<svg width="500" height="500" viewBox="0 0 500 500" fill="none" xmlns="http://www.w3.org/2000/svg">
<path fill-rule="evenodd" clip-rule="evenodd" d="M134.642 220.104C149.182 168.065 196.263 132.12 249.883 132.12C303.503 132.12 350.584 168.065 365.124 220.104L372.464 218.019C356.998 162.666 306.918 124.431 249.883 124.431C192.848 124.431 142.768 162.666 127.302 218.019L134.642 220.104ZM365.124 279.9C350.584 331.938 303.503 367.884 249.883 367.884C196.263 367.884 149.182 331.938 134.642 279.9L127.302 281.985C142.768 337.338 192.848 375.573 249.883 375.573C306.918 375.573 356.998 337.338 372.464 281.985L365.124 279.9ZM126.949 266.002L112 236.104L118.685 232.761L130.292 255.974L141.898 232.761L148.583 236.104L133.634 266.002H126.949ZM365.907 232.761L350.958 262.659L357.644 266.002L369.25 242.789L380.856 266.002L387.542 262.659L372.593 232.761H365.907Z" fill="white"/>
</svg>
