<svg width="175" height="33" viewBox="0 0 175 33" fill="none" xmlns="http://www.w3.org/2000/svg">
<path fill-rule="evenodd" clip-rule="evenodd" d="M11.207 16.8878C10.8996 16.936 10.7139 16.8237 10.6368 16.4942C10.4732 15.7924 10.2936 15.0942 10.1027 14.3995C9.99675 14.0128 10.0525 13.6627 10.2737 13.3457C10.7606 12.6477 11.2577 11.9572 11.7543 11.2664C11.9606 10.9796 12.2375 10.826 12.5933 10.8089C13.2832 10.7748 13.9729 10.7291 14.6626 10.6851C15.0036 10.663 15.2236 10.7861 15.3128 11.1505C15.4843 11.8498 15.679 12.5434 15.865 13.2389C15.9583 13.587 15.892 13.9041 15.6876 14.1936C15.1967 14.8886 14.7073 15.5849 14.2118 16.2762C13.9948 16.579 13.6995 16.7254 13.325 16.7442C12.6184 16.781 11.9128 16.8388 11.207 16.8878Z" fill="#0094FF"/>
<path fill-rule="evenodd" clip-rule="evenodd" d="M20.9266 11.8762C20.8892 12.2703 20.8769 12.757 20.7539 13.2297C20.6116 13.7756 20.3253 14.0629 19.763 14.0322C18.8835 13.984 18.0049 13.8789 17.1331 13.7485C16.7055 13.6847 16.5206 13.2935 16.4162 12.92C16.2139 12.1964 16.0488 11.4622 15.8776 10.7303C15.8013 10.4041 15.873 10.0985 16.0685 9.8265C16.6234 9.05226 17.1623 8.26539 17.7412 7.50975C18.2321 6.8675 19.0049 6.86777 19.4777 7.4955C20.4319 8.76359 20.9227 10.1957 20.9266 11.8762Z" fill="#0094FF"/>
<path fill-rule="evenodd" clip-rule="evenodd" d="M14.4275 5.20099C15.1689 5.17126 15.9067 5.32182 16.6253 5.56267C17.3527 5.80598 17.6261 6.54183 17.1964 7.18711C16.6596 7.99566 16.0691 8.77011 15.4953 9.55378C15.2993 9.82087 15.0212 9.94607 14.69 9.96985C14.0191 10.0182 13.3502 10.0836 12.6792 10.1274C11.9676 10.1737 11.6377 9.95549 11.3452 9.29916C11.1036 8.75848 10.8462 8.22436 10.599 7.68609C10.2431 6.91164 10.3778 6.44262 11.109 6.03389C12.1306 5.46105 13.2272 5.16396 14.4275 5.20099Z" fill="#0094FF"/>
<path fill-rule="evenodd" clip-rule="evenodd" d="M22.5999 3.12413C22.5323 4.08797 22.2466 5.03378 21.3171 5.66987C20.9094 5.9488 20.5295 6.27602 20.2519 6.71026C20.0576 7.0136 19.7806 7.05268 19.5499 6.79093C18.9119 6.0675 18.1622 5.52263 17.3054 5.11281C17.0261 4.97943 16.9567 4.70964 17.1606 4.43429C17.4964 3.98232 17.7021 3.46186 17.8344 2.92393C18.1501 1.63567 19.7892 0.661294 21.0609 0.755292C21.8989 0.817128 22.418 1.3717 22.5529 2.35827C22.5832 2.57538 22.5814 2.79721 22.5999 3.12413Z" fill="#0094FF"/>
<path fill-rule="evenodd" clip-rule="evenodd" d="M24.2117 16.0507C24.1672 17.8046 23.125 19.2687 21.7034 20.5289C21.5734 20.6443 21.4141 20.7352 21.25 20.6303C21.0676 20.5135 21.144 20.3237 21.2028 20.174C21.5235 19.3583 21.4089 18.553 21.1347 17.7623C20.6063 16.2405 20.5872 14.7421 21.2606 13.2566C21.5606 12.5931 21.5807 11.8969 21.4919 11.1845C21.4667 10.9825 21.3773 10.6974 21.6178 10.5897C21.8782 10.4732 22.0267 10.7326 22.1838 10.8999C23.469 12.2788 24.1678 13.9011 24.2117 16.0507Z" fill="#0094FF"/>
<path fill-rule="evenodd" clip-rule="evenodd" d="M3.77734 7.51941C3.79337 7.44492 3.81461 7.3717 3.8409 7.3003C5.10033 4.37778 6.91538 3.11867 9.85065 3.18933C10.8717 3.21426 11.8201 3.53883 12.742 3.95625C12.9222 4.03842 13.1344 4.12607 13.0935 4.37642C13.0577 4.59554 12.846 4.62786 12.6685 4.65032C11.7991 4.75604 11.0918 5.17785 10.447 5.75742C9.45257 6.65114 8.25727 7.0286 6.95018 7.03897C5.98052 7.04693 5.03785 7.10691 4.24976 7.7766C4.14203 7.86727 4.01544 7.91138 3.88265 7.8514C3.74987 7.79137 3.78569 7.65581 3.77734 7.51941Z" fill="#0094FF"/>
<path fill-rule="evenodd" clip-rule="evenodd" d="M5.99242 14.6856C5.97945 13.9228 6.49987 13.4325 7.19045 13.4899C9.5407 13.686 9.25154 13.8033 9.70881 15.6231C10.1439 17.3537 10.3649 16.8626 9.1555 18.5634C8.95368 18.847 8.74085 19.1279 8.49806 19.3749C7.85571 20.0287 6.96223 19.8299 6.6601 18.9646C6.28375 17.8854 6.23387 16.7444 6.08466 15.6229C6.0407 15.2917 6.01883 14.9583 5.99242 14.6856Z" fill="#0094FF"/>
<path fill-rule="evenodd" clip-rule="evenodd" d="M10.12 21.4076C9.67054 21.404 9.20514 21.4489 8.95206 20.9419C8.6944 20.4256 8.77408 19.9477 9.06957 19.46C10.2802 17.464 10.2737 17.4512 12.5744 17.3451C12.9887 17.3259 13.4304 17.1277 13.8231 17.4302C14.5445 17.9846 14.8028 18.8141 14.9402 19.6591C15.015 20.1193 14.7023 20.531 14.2447 20.6491C12.888 20.9995 11.5205 21.3064 10.12 21.4076Z" fill="#0094FF"/>
<path fill-rule="evenodd" clip-rule="evenodd" d="M16.6289 14.4609C17.3755 14.5341 18.0517 14.5799 18.7215 14.6709C19.538 14.7805 19.9748 15.5706 19.5894 16.3043C19.0069 17.4131 18.3146 18.4345 17.3242 19.2443C16.7322 19.7286 15.5933 19.5809 15.3816 18.734C15.2544 18.2221 14.9859 17.7474 14.7812 17.2542C14.5789 16.7677 14.594 16.3308 14.9767 15.9137C15.2314 15.6356 15.4273 15.2979 15.6371 14.977C15.893 14.5854 16.2694 14.4692 16.6289 14.4609Z" fill="#0094FF"/>
<path fill-rule="evenodd" clip-rule="evenodd" d="M9.1198 12.989C8.32252 12.9199 7.76437 12.8878 7.2105 12.8192C6.52692 12.7344 6.0767 12.0262 6.2727 11.3481C6.65966 10.0126 7.47279 8.94524 8.43102 7.99584C8.96956 7.46124 9.82953 7.67615 10.1508 8.3713C10.4292 8.9729 10.6833 9.58843 10.9429 10.1999C11.1408 10.6647 11.112 11.1022 10.7767 11.5061C10.5759 11.7481 10.364 11.9918 10.2199 12.2685C9.92619 12.8323 9.48436 13.0465 9.1198 12.989Z" fill="#0094FF"/>
<path fill-rule="evenodd" clip-rule="evenodd" d="M1.03125 19.5103C1.07762 17.2997 2.30474 15.524 4.31159 14.7632C4.77799 14.5864 5.23285 14.8155 5.31437 15.3287C5.44599 16.157 5.53601 16.9924 5.62582 17.8267C5.67271 18.2612 5.45643 18.5322 5.04336 18.6233C3.94437 18.8659 3.09359 19.54 2.28651 20.2856C2.02731 20.5271 1.76409 20.708 1.40839 20.564C1.05269 20.42 1.03312 20.0924 1.03125 19.763V19.5103Z" fill="#0094FF"/>
<path fill-rule="evenodd" clip-rule="evenodd" d="M10.7057 27.1361C10.0927 27.1424 9.83221 26.6749 10.0927 26.0992C10.343 25.5475 10.5277 24.9762 10.6833 24.3914C10.8197 23.8706 10.8599 23.3278 10.802 22.7915C10.7529 22.3046 10.9747 22.0344 11.4385 21.9447C12.2059 21.796 12.9683 21.617 13.7379 21.4802C14.211 21.396 14.6071 21.7885 14.5927 22.2779C14.5274 24.5252 13.1104 26.4225 11.0157 27.0638C10.8923 27.1005 10.7636 27.1225 10.7057 27.1361Z" fill="#0094FF"/>
<path fill-rule="evenodd" clip-rule="evenodd" d="M6.46578 22.0455C6.49563 21.6248 6.63795 21.1356 6.77651 20.6506C6.88043 20.2887 7.19167 20.3371 7.41304 20.4741C7.77571 20.6949 8.11433 20.9568 8.42295 21.255C8.68741 21.5156 8.7046 21.8118 8.3198 22.0298C7.95143 22.2392 7.61296 22.5115 7.23557 22.6953C6.68793 22.9614 6.44782 22.7705 6.46578 22.0455Z" fill="#0094FF"/>
<path d="M167.918 14.9456C167.182 14.9456 166.851 15.3802 166.663 16.0322C166.236 17.531 165.82 19.0298 164.954 20.3337C164.756 20.6335 164.553 21.1243 164.096 20.9145C163.728 20.7497 163.831 20.3 163.868 19.9365C164.018 18.6727 164.253 17.4207 164.572 16.1896C164.829 15.1105 164.439 14.7395 163.368 14.9831C163.126 15.0412 162.906 15.1661 162.73 15.344C162.555 15.522 162.431 15.7459 162.373 15.991C161.961 17.1085 161.721 18.2838 161.659 19.4757C161.659 20.4949 161.033 21.0344 160.3 21.4916C159.785 21.8138 159.391 21.5665 159.362 20.9445C159.361 20.6402 159.389 20.3364 159.447 20.0377C159.634 18.9474 159.844 17.8607 160.028 16.7704C160.128 16.1859 160.198 15.5639 159.66 15.1705C159.122 14.777 158.452 14.9081 157.863 15.1892C156.759 15.725 156.059 16.6879 155.444 17.7146C155.304 17.9507 155.264 18.2954 154.818 18.3741C154.995 17.6247 155.161 16.9277 155.311 16.2346C155.4 15.8411 155.636 15.3578 155.223 15.0805C155.021 14.9761 154.798 14.9204 154.572 14.918C154.345 14.9155 154.121 14.9663 153.917 15.0664C153.713 15.1664 153.534 15.3131 153.395 15.4949C153.256 15.6767 153.159 15.8888 153.114 16.1147C152.761 17.1657 152.563 18.2644 152.528 19.3745C152.518 19.745 152.422 20.1078 152.248 20.4334C152.074 20.7589 151.827 21.0381 151.527 21.248C151.25 21.4803 150.945 21.7276 150.569 21.529C150.194 21.3304 150.297 20.9595 150.312 20.6335C150.374 19.2733 150.75 17.9582 150.934 16.613C151.033 15.8898 150.724 15.5451 150.05 15.5414C149.631 15.5414 149.248 15.5864 149.012 15.1142C148.905 14.8969 148.644 14.9269 148.415 14.9156C147.673 14.8803 146.938 15.0849 146.317 15.5001C145.573 15.9716 144.941 16.6061 144.469 17.3574C143.996 18.1086 143.694 18.9578 143.585 19.8429C143.539 20.2567 143.368 20.646 143.097 20.9578C142.825 21.2695 142.466 21.4886 142.068 21.5852C141.829 21.6377 141.542 21.7164 141.361 21.5253C141.181 21.3342 141.413 21.0681 141.512 20.8621C142.123 19.5806 142.447 18.2392 142.097 16.8378C141.634 14.9344 139.693 14.2899 138.191 15.5189C138.014 15.6613 137.908 15.9386 137.591 15.8936C137.44 15.4739 137.48 14.9306 136.855 14.8145C136.654 14.7683 136.446 14.7673 136.246 14.8115C136.045 14.8557 135.857 14.9442 135.693 15.0706C135.529 15.1971 135.395 15.3583 135.299 15.5432C135.203 15.7281 135.149 15.9322 135.139 16.1409C135.115 16.7774 135.137 17.4149 135.205 18.0481C135.33 19.2471 135.161 20.2963 134.13 21.0832C133.762 21.3604 133.412 21.8101 132.911 21.5253C132.411 21.2405 132.613 20.7384 132.687 20.3113C132.9 19.0823 133.162 17.8645 133.346 16.6317C133.556 15.2304 132.738 14.5859 131.409 15.073C130.465 15.4616 129.67 16.152 129.145 17.0401C128.891 17.4149 128.655 17.7895 128.408 18.1868C128.485 17.4487 128.524 16.707 128.523 15.9648C128.531 15.8248 128.51 15.6846 128.46 15.554C128.41 15.4233 128.332 15.3054 128.233 15.2086C128.133 15.1118 128.014 15.0384 127.883 14.9936C127.753 14.9488 127.614 14.9337 127.477 14.9494C126.416 14.9269 125.698 15.5488 125.032 16.2758C124.494 16.864 124.174 17.606 123.743 18.2691L123.548 18.1942C123.703 17.5273 123.876 16.864 124.012 16.1933C124.086 15.8187 124.322 15.3877 123.964 15.0992C123.607 14.8107 123.128 14.9231 122.709 15.0505C122.498 15.1162 122.308 15.2363 122.158 15.3993C122.006 15.5622 121.899 15.7622 121.847 15.9798C121.682 16.4792 121.551 16.9901 121.457 17.5085C121.365 18.153 120.905 18.183 120.441 18.2579C119.977 18.3328 119.896 17.9432 119.789 17.591C119.392 16.2608 118.684 15.2041 117.212 14.9868C116.494 14.8444 115.75 14.9231 115.076 15.2127C114.402 15.5023 113.828 15.9898 113.427 16.613C112.759 17.601 112.436 18.7885 112.51 19.9853C112.538 20.1603 112.498 20.3396 112.398 20.4851C112.299 20.6306 112.147 20.7309 111.976 20.7646C110.459 21.3419 108.832 21.5622 107.219 21.4091C105.217 21.2068 103.832 20.0452 103.497 18.1231C103.283 17.0736 103.275 15.9914 103.473 14.9387C103.672 13.886 104.072 12.8837 104.653 11.9893C105.221 11.0941 106.079 10.4308 107.079 10.1158C109.042 9.49377 110.062 10.3518 109.8 12.4014C109.8 12.4838 109.782 12.5663 109.771 12.6487C109.694 13.2595 109.679 13.859 110.422 14.0538C110.738 14.1592 111.081 14.1409 111.384 14.0022C111.688 13.8636 111.929 13.6147 112.061 13.3044C113.144 11.2211 111.951 8.4671 109.69 7.95C108.811 7.73167 107.898 7.70187 107.007 7.86252C106.116 8.02317 105.268 8.37067 104.517 8.88301C101.686 10.8015 100.658 13.6679 100.614 16.9652C100.559 20.9445 103.118 23.6011 107.043 23.7585C109.013 23.872 110.984 23.5525 112.823 22.8217C112.98 22.7443 113.156 22.7164 113.329 22.7418C113.501 22.7672 113.662 22.8446 113.792 22.9641C115.452 24.2343 117.393 24.0095 118.762 22.432C119.163 21.9737 119.458 21.4295 119.623 20.8396C119.8 20.2101 120.275 20.2363 120.728 20.2775C121.181 20.3188 121.096 20.7422 121.118 21.0494C121.138 21.6598 121.227 22.2658 121.384 22.8555C121.432 23.1039 121.562 23.3282 121.752 23.4921C121.942 23.656 122.18 23.7499 122.429 23.7585C122.691 23.7878 122.954 23.7176 123.169 23.5613C123.383 23.4049 123.532 23.1736 123.589 22.9117C123.762 22.3571 123.902 21.7876 124.067 21.2367C124.328 20.3014 124.712 19.4064 125.209 18.5764C125.375 18.3141 125.511 17.857 125.89 17.9844C126.269 18.1118 126.052 18.524 126.03 18.805C125.975 19.5544 125.868 20.3038 125.79 21.0531C125.678 21.7694 125.777 22.5034 126.074 23.1627C126.169 23.3634 126.324 23.5287 126.516 23.6355C126.708 23.7423 126.928 23.7853 127.146 23.7585C127.353 23.7623 127.555 23.6996 127.725 23.5792C127.895 23.4587 128.024 23.2867 128.092 23.0878C128.239 22.713 128.346 22.3009 128.46 21.9C128.765 20.6907 129.263 19.5403 129.933 18.494C130.091 18.2579 130.253 17.857 130.599 18.0181C130.945 18.1793 130.761 18.5614 130.713 18.8462C130.504 19.763 130.364 20.6951 130.297 21.6339C130.297 23.0466 130.945 23.7547 132.333 23.7473C133.014 23.7473 133.044 23.957 132.83 24.5191C132.208 26.002 131.848 27.5851 131.766 29.1953C131.733 31.0126 132.263 32.0055 133.338 32.1929C134.553 32.4214 135.573 31.6308 136.188 29.971C136.703 28.595 137.025 27.1519 137.145 25.6844C137.23 24.5154 137.363 23.5074 138.824 23.4362C139.126 23.4362 139.369 23.0615 139.737 23.2976C140.993 24.1257 142.193 23.8259 143.32 23.0278C143.728 22.7393 143.946 22.7018 144.336 23.0878C144.785 23.5259 145.381 23.774 146.004 23.7816C146.625 23.7893 147.227 23.556 147.687 23.129C147.92 22.8935 148.139 22.6433 148.342 22.3796C149.814 24.0995 150.323 24.1819 152.178 22.9229C152.609 22.6306 152.661 22.9229 152.815 23.1777C152.919 23.38 153.081 23.5446 153.28 23.6486C153.48 23.7527 153.706 23.7911 153.927 23.7585C154.147 23.7424 154.356 23.6562 154.524 23.5122C154.693 23.3682 154.813 23.1738 154.866 22.9566C154.969 22.6719 155.039 22.3721 155.12 22.0798C155.438 20.813 155.957 19.6079 156.659 18.5127C156.829 18.2617 156.983 17.8045 157.37 17.9844C157.683 18.1306 157.495 18.539 157.447 18.8237C157.289 19.8354 156.994 20.8246 157.046 21.8625C157.108 23.1365 157.782 23.7734 159.045 23.7622C159.847 23.7694 160.627 23.4955 161.254 22.9866C161.6 22.7018 161.817 22.6119 162.175 23.0466C162.911 23.9945 163.924 24.017 164.792 23.159C165.106 22.8177 165.402 22.4599 165.68 22.0873C165.717 22.4606 165.654 22.8372 165.498 23.1771C165.342 23.517 165.098 23.8073 164.792 24.017C163.549 24.9288 162.455 26.0339 161.549 27.2919C160.932 28.116 160.611 29.1302 160.639 30.1658C160.639 30.4373 160.692 30.7062 160.795 30.9566C160.898 31.2071 161.048 31.4341 161.239 31.6243C161.429 31.8146 161.655 31.9641 161.903 32.0644C162.151 32.1646 162.416 32.2134 162.683 32.2079C163.067 32.212 163.448 32.1363 163.803 31.9856C164.157 31.8348 164.477 31.6121 164.744 31.3311C165.343 30.684 165.804 29.9188 166.1 29.0829C167.167 26.4113 167.572 23.5861 168.025 20.7684C168.279 19.1534 168.552 17.5423 168.795 15.9273C168.909 15.1404 168.691 14.9306 167.918 14.9456ZM116.962 21.4466C116.844 21.5556 116.706 21.6378 116.555 21.6873C116.404 21.7369 116.244 21.7528 116.087 21.734C115.929 21.7152 115.777 21.662 115.642 21.5782C115.506 21.4943 115.39 21.3817 115.301 21.248C114.989 20.8224 114.835 20.298 114.866 19.7679C114.888 18.6888 115.036 17.8945 115.658 17.3099C115.736 17.2113 115.837 17.1335 115.951 17.0832C116.065 17.0329 116.19 17.0117 116.314 17.0214C116.649 17.0963 116.527 17.4261 116.56 17.6509C116.629 18.3727 116.918 19.0543 117.388 19.5994C117.845 20.0939 117.617 20.952 116.962 21.4466ZM135.047 24.7139C134.991 26.3684 134.771 28.0128 134.391 29.6225C134.314 29.8998 134.252 30.3007 133.872 30.2557C133.493 30.2108 133.504 29.8061 133.471 29.5063C133.396 28.8456 133.447 28.1763 133.622 27.5354C133.869 26.1209 134.352 24.7598 135.051 23.5112C135.051 23.9196 135.076 24.3168 135.047 24.7139ZM138.276 21.5103C138.099 21.6639 137.878 21.885 137.62 21.7314C137.363 21.5777 137.495 21.3379 137.491 21.1281C137.491 20.7534 137.491 20.3562 137.491 19.9703C137.491 18.9811 137.333 17.9582 138.276 17.2463C138.581 17.0139 138.869 16.7179 139.292 16.8978C139.479 16.9868 139.632 17.135 139.729 17.3201C139.825 17.5051 139.861 17.7172 139.83 17.9244C139.857 18.6032 139.731 19.2793 139.462 19.9009C139.192 20.5225 138.787 21.073 138.276 21.5103ZM148.463 17.5872C148.323 18.404 148.158 19.2209 147.985 20.0302C147.922 20.3286 147.827 20.6189 147.702 20.8958C147.458 21.4091 147.156 21.9225 146.479 21.7576C145.801 21.5927 145.879 21.0082 145.86 20.375C145.967 19.086 146.413 17.8757 147.58 17.0439C147.819 16.8716 148.117 16.6692 148.405 16.8266C148.692 16.9839 148.508 17.3362 148.463 17.5872ZM163.688 29.7199C163.485 30.0309 163.243 30.4693 162.793 30.2445C162.344 30.0197 162.425 29.5513 162.535 29.1504C162.903 27.7865 163.864 26.8609 165.05 25.7781C164.722 27.3218 164.409 28.5958 163.688 29.7199Z" fill="#0094FF"/>
<path d="M93.3145 6.75841C92.8168 7.31097 92.4405 7.96495 92.2099 8.67686C91.5717 10.4187 91.1512 12.2352 90.9582 14.0837C90.9654 14.288 90.9005 14.4881 90.776 14.6482C90.6509 14.8082 90.4738 14.9176 90.2772 14.9568C87.8617 15.6537 86.5471 17.3361 86.157 19.8278C86.1055 20.1501 86.1349 20.5247 85.844 20.7458C84.9639 21.4315 84.0215 21.9861 82.8469 21.8362C82.3832 21.78 81.7717 21.72 81.7423 21.1955C81.713 20.7983 82.3425 20.847 82.6776 20.7121C84.1501 20.1313 85.3026 19.3183 85.476 17.5759C85.5604 16.991 85.4189 16.3955 85.0802 15.9151C84.741 15.4348 84.2325 15.1072 83.6607 15.0018C83.1043 14.8933 82.5304 14.917 81.9848 15.071C81.4387 15.2251 80.9348 15.5052 80.5127 15.8898C79.3232 16.9614 78.8888 18.3515 78.8631 19.9065C78.8631 20.1875 78.9146 20.4611 78.6608 20.6559C77.7405 21.4053 76.7497 21.9523 75.5129 21.78C75.0785 21.7238 74.5112 21.6488 74.4747 21.1543C74.4449 20.7796 75.0193 20.8058 75.3322 20.6859C76.514 20.2287 77.5856 19.6517 78.0236 18.3328C78.6572 16.4219 77.6262 14.9006 75.7115 14.9193C74.2055 14.9381 73.1344 15.6874 72.3613 16.9614C72.2064 17.2199 72.0963 17.5047 71.9526 17.7745C71.843 17.9713 71.669 18.1228 71.4611 18.2022C71.2532 18.2817 71.0241 18.2842 70.8146 18.2091C70.303 18.0743 70.741 17.6696 70.7482 17.3885C70.756 17.1075 70.8697 16.7853 70.8738 16.4855C70.8738 15.8823 70.7668 15.2828 70.1373 15.013C69.8583 14.8892 69.549 14.8526 69.2494 14.908C68.9498 14.9634 68.6729 15.1082 68.4547 15.324C67.7182 15.9684 67.2765 16.849 67.5267 17.767C67.9318 19.2658 66.8607 20.0152 66.2492 21.0194C66.1643 20.8691 66.1143 20.7013 66.102 20.5285C65.9141 19.0297 65.962 17.486 65.9033 15.9647C65.9033 15.5188 65.8518 15.0355 65.2846 14.9343C64.7174 14.8331 64.1801 14.9343 63.9037 15.5525C63.6978 16.0059 63.5357 16.4818 63.3591 16.9427C62.8176 18.2616 62.2546 19.5655 61.6801 21.0156C61.4912 20.7417 61.3929 20.4135 61.4001 20.0789C61.3415 18.7524 61.2643 17.4223 61.2421 16.0921C61.2421 15.3877 61.0651 14.8968 60.2441 14.9006C59.4232 14.9043 59.0145 15.2153 58.9887 16.0771C58.9522 16.9349 58.9805 17.7942 59.0732 18.6475C59.1483 19.0685 59.1051 19.5024 58.9496 19.8998C58.7942 20.2973 58.5322 20.6423 58.1935 20.8957C57.8327 21.2479 57.4642 21.8475 56.9011 21.5102C56.3931 21.2142 56.636 20.5997 56.706 20.1313C56.864 19.0335 57.0962 17.9469 57.2583 16.8527C57.4091 15.8336 57.2176 15.6275 56.2088 15.5713C56.0173 15.5713 55.7965 15.6275 55.6601 15.4701C54.7362 14.406 53.7382 14.9455 52.8509 15.4289C51.1205 16.3731 50.2258 17.9544 49.9055 19.8953C49.865 20.165 49.9239 20.4798 49.6883 20.6709C48.6979 21.469 47.6301 22.0498 46.2973 21.7687C45.9291 21.6976 45.4946 21.5814 45.4689 21.2105C45.4431 20.8395 45.9549 20.8995 46.2053 20.7645C46.6213 20.551 47.0705 20.4161 47.4792 20.1913C47.9101 19.9727 48.2858 19.6563 48.5776 19.2665C48.8693 18.8767 49.0692 18.424 49.1618 17.9431C49.5299 16.1783 48.5027 14.9193 46.7317 14.9455C44.3901 14.9455 42.6302 17.0738 42.6486 19.8428C42.7002 22.2222 44.0882 23.661 46.4188 23.7584C47.581 23.8278 48.7366 23.5365 49.7325 22.9228C49.9755 22.7729 50.178 22.5781 50.5204 22.8704C52.0299 24.1743 53.0459 24.1331 54.4748 22.7018C54.7543 22.4282 54.8428 22.447 55.0749 22.7542C55.9546 23.9383 56.9932 24.0919 58.1935 23.245C58.4823 23.0371 58.7592 22.8119 59.0217 22.5706C59.2466 22.3683 59.3568 22.4132 59.5225 22.6643C60.5421 24.2005 61.8531 24.1631 62.814 22.5744C63.2078 21.9224 63.5027 21.2105 63.9186 20.3524C64.0215 21.1318 64.0586 21.7163 64.1801 22.2784C64.5079 23.8258 65.7962 24.2642 67.0079 23.26C67.4994 22.8583 67.9055 22.3584 68.2004 21.7913C68.7934 20.6372 69.5186 19.9477 70.9474 20.315C71.4148 20.4349 71.6433 20.4911 71.7535 20.9856C71.8672 21.5914 72.1457 22.1524 72.5579 22.6043C72.9702 23.0563 73.4988 23.3809 74.084 23.5411C75.4758 23.972 76.8969 23.942 78.1343 23.1664C79.0916 22.5706 79.8611 22.3046 80.6893 23.26C80.8185 23.3644 80.9698 23.4363 81.1314 23.4699C81.8978 23.7523 82.7167 23.8552 83.5274 23.7708C84.3385 23.6865 85.1204 23.4171 85.8147 22.9828C86.2635 22.7092 86.5507 22.6081 86.9893 23.0727C87.4638 23.5464 88.1026 23.8118 88.7676 23.8118C89.4326 23.8118 90.0708 23.5464 90.5459 23.0727C91.0868 22.5331 91.3154 22.4882 91.6319 23.2525C91.9042 23.9083 92.5378 24.0357 93.1709 23.8296C93.8853 23.601 93.7782 23.009 93.6645 22.4507C93.5502 21.8924 93.4545 21.3603 93.296 20.8245C93.1889 20.4281 93.1632 20.0131 93.2218 19.6062C93.28 19.1992 93.4205 18.809 93.6346 18.4602C94.8746 16.3012 95.8057 13.9734 96.3996 11.547C96.7018 10.2431 96.8824 8.92415 96.5396 7.59776C96.1238 5.93409 94.5076 5.53688 93.3145 6.75841ZM44.9976 18.8236C45.1412 18.1267 45.34 17.411 46.0286 16.9801C46.1585 16.8756 46.3194 16.8187 46.4851 16.8187C46.6508 16.8187 46.8116 16.8756 46.9416 16.9801C47.0811 17.0924 47.1802 17.2484 47.2234 17.424C47.2667 17.5995 47.2518 17.7846 47.1809 17.9506C47.0088 18.3104 46.7609 18.6273 46.4548 18.8786C46.1487 19.1298 45.792 19.3094 45.41 19.4044C44.9792 19.4344 44.9939 19.1571 44.9976 18.8236ZM54.8871 17.441C54.6807 18.3852 54.4377 19.5131 54.1762 20.6409C54.0996 20.9704 53.9338 21.2714 53.6976 21.5102C53.6008 21.6359 53.4701 21.7301 53.3208 21.7815C53.1721 21.8328 53.012 21.839 52.8596 21.7993C52.7078 21.7596 52.5698 21.6757 52.4638 21.5578C52.3578 21.44 52.2878 21.2932 52.2621 21.1355C51.8935 19.8241 52.9579 17.5234 54.169 16.9539C54.7326 16.6579 54.9385 16.7478 54.8871 17.441ZM73.9111 19.1046C73.8004 18.4827 74.4747 17.19 75.0527 16.9239C75.6307 16.6579 76.1573 16.9689 76.1573 17.6434C76.1573 18.3927 74.957 19.4719 74.224 19.4082C74.1844 19.4087 74.1453 19.4012 74.1082 19.3862C74.0717 19.3712 74.0377 19.349 74.0094 19.3208C73.9811 19.2926 73.9585 19.2591 73.943 19.222C73.9271 19.1849 73.9188 19.145 73.9183 19.1046H73.9111ZM81.2158 19.0148C81.135 18.4002 81.7058 17.2424 82.2396 16.9577C82.8726 16.6167 83.4177 16.9577 83.3992 17.6546C83.3807 18.3515 82.2653 19.4194 81.5581 19.3894C81.2971 19.3782 81.2529 19.2245 81.2235 19.0148H81.2158ZM89.4521 21.7875C88.7526 21.8699 88.4212 21.4128 88.4433 20.0864C88.4757 19.5175 88.6307 18.9628 88.8983 18.4621C89.1654 17.9614 89.5381 17.527 89.99 17.19C90.461 16.834 90.726 16.9314 90.726 17.5646C90.7446 18.4489 90.8032 19.3332 90.8218 20.2175C90.8475 20.847 90.0636 21.7163 89.4593 21.7875H89.4521ZM94.2384 13.4505C93.996 14.3542 93.6238 15.2165 93.1338 16.0097C93.2445 13.5554 93.4324 11.1386 94.0912 8.77052C94.1725 8.48949 94.2569 8.0661 94.592 8.09234C95.0007 8.11858 94.9605 8.57943 94.9971 8.89042C95.1149 10.4679 94.7392 11.9742 94.2569 13.4505H94.2384Z" fill="#0094FF"/>
<path d="M39.4947 8.11836C38.7152 7.85294 37.8918 7.74724 37.0721 7.80737C36.7177 7.78296 36.3623 7.78296 36.008 7.80737C34.0198 8.08462 32.2672 8.77034 31.4683 10.8424C30.6251 13.0456 31.5419 15.0615 33.8983 16.2118C35.1022 16.8038 36.3578 17.2834 37.5801 17.8717C38.3975 18.2689 38.9424 18.9058 38.7914 19.9213C38.6405 20.9367 37.9409 21.3039 37.1273 21.5475C36.1742 21.8164 35.1717 21.8485 34.2039 21.6411C32.6097 21.3339 32.2599 20.8805 32.4256 19.2618C32.4919 18.6098 32.363 18.1003 31.6671 17.9016C31.3492 17.8013 31.0053 17.8323 30.7097 17.988C30.4142 18.1436 30.1907 18.4115 30.0876 18.7335C29.4801 20.281 30.0728 22.2594 31.5493 22.9788C34.1965 24.2678 36.9321 24.2977 39.4837 22.7952C42.2046 21.1953 42.061 17.5007 39.3364 15.9495C38.5043 15.4774 37.5986 15.1402 36.7259 14.7654C35.9896 14.4282 35.1943 14.1622 34.561 13.6077C34.2892 13.397 34.0778 13.1161 33.9486 12.7942C33.8194 12.4723 33.7773 12.1211 33.8265 11.777C33.8757 11.4329 34.0145 11.1085 34.2285 10.8374C34.4424 10.5663 34.7238 10.3585 35.0434 10.2354C35.7216 9.92419 36.467 9.79517 37.2083 9.8607C38.9645 10.033 39.9291 10.4265 39.5757 12.4573C39.5594 12.5679 39.5594 12.6803 39.5757 12.7908C39.5749 12.9307 39.6024 13.0692 39.6567 13.1977C39.7109 13.3263 39.7906 13.442 39.8909 13.5377C39.9911 13.6334 40.1097 13.707 40.2392 13.7538C40.3687 13.8007 40.5063 13.8198 40.6435 13.81C41.3798 13.84 41.8253 13.4016 42.0094 12.5323C42.4476 10.3965 41.5418 8.81151 39.4947 8.11836Z" fill="#0094FF"/>
<path d="M43.9934 6.76596C44.5641 6.59735 44.5162 6.19271 44.3911 5.70184C44.1775 4.8775 44.4389 4.43911 45.2342 4.18431C45.5733 4.07743 45.9226 4.00711 46.2762 3.97448C47.204 3.88081 47.2776 3.97448 47.0825 4.90373C46.6259 7.12944 46.2945 9.37762 45.9779 11.6258C45.9043 12.1803 46.0479 12.66 46.6849 12.7199C47.3218 12.7799 47.701 12.4501 47.7673 11.7644C47.9436 9.88823 48.2201 8.02326 48.5957 6.17767C49.159 3.44241 48.4816 3.96699 51.3166 3.96324C52.053 3.96324 52.1894 4.21429 51.9902 4.91122C51.335 7.20439 51.3056 9.56122 51.3645 11.918C51.3645 12.2703 51.4418 12.6 51.8322 12.7049C51.9933 12.7416 52.1611 12.7339 52.3186 12.6825C52.4755 12.6312 52.6166 12.538 52.7267 12.4126C52.9408 12.158 53.0824 11.8481 53.1354 11.5171C53.3382 10.7675 53.647 10.0518 54.0521 9.39261C54.1478 9.23897 54.2549 8.99917 54.4757 9.07785C54.6965 9.15653 54.6008 9.40759 54.5786 9.58746C54.4695 10.1572 54.3908 10.7326 54.3429 11.3111C54.3208 12.4164 54.9837 12.9148 56.0589 12.675C56.4105 12.615 56.7399 12.4597 57.0122 12.2253C57.3807 11.8993 57.6051 11.9443 57.9844 12.244C59.0597 13.0909 60.8488 12.8286 61.5889 11.7644C61.8689 11.3598 62.0933 10.8352 61.7068 10.4792C61.3203 10.1233 61.0773 10.704 60.8303 10.9288C60.0942 11.5846 59.5641 11.6408 58.9161 11.0375C59.159 10.779 59.5049 10.7565 59.7957 10.6216C60.1246 10.4861 60.4272 10.2933 60.6908 10.0521C61.0135 9.76687 61.2338 9.38025 61.3161 8.95339C61.399 8.52654 61.3393 8.08376 61.1473 7.6952C60.7788 7.05076 59.9136 6.7997 59.0262 7.13693C58.4935 7.32466 58.0287 7.67142 57.6926 8.1319C57.3565 8.59244 57.164 9.14532 57.1414 9.71857C57.146 9.99462 57.1264 10.2705 57.0822 10.5429C57.0441 10.7519 56.9308 10.9391 56.7651 11.0684C56.5994 11.1978 56.3925 11.2601 56.184 11.2436C55.6647 11.1686 55.8597 10.6928 55.9076 10.3631C56.0332 9.54247 56.2355 8.72936 56.3055 7.90881C56.3683 7.21188 55.9375 6.90085 55.256 7.0395C54.8833 7.13211 54.5411 7.32194 54.2621 7.59028C53.751 8.11263 53.3181 8.70851 52.9769 9.35887C52.7782 8.72564 53.069 8.41837 53.3454 8.11111C54.0125 7.3761 54.6013 6.571 55.1016 5.70934C55.5746 4.92791 55.8304 4.03045 55.8417 3.11268C55.8381 2.40075 55.7681 1.65136 55.0058 1.37409C54.2436 1.09681 53.6213 1.50148 53.1647 2.12348C53.0623 2.29875 52.9069 2.4357 52.7221 2.514C52.5368 2.59231 52.3319 2.60778 52.1379 2.55813C50.2401 2.31179 48.3203 2.29921 46.4197 2.52066C45.5731 2.587 44.7481 2.82524 43.9934 3.22134C43.5054 3.48505 43.1292 3.9215 42.9359 4.44825C42.7426 4.975 42.7454 5.55554 42.9441 6.0803C43.1355 6.55241 43.4043 6.93835 43.9934 6.76596ZM58.6325 9.42634C58.7611 8.91301 58.8867 8.36594 59.5342 8.30224C59.5986 8.28957 59.6644 8.29271 59.7272 8.31136C59.79 8.33006 59.8472 8.36374 59.8945 8.40963C59.9419 8.45546 59.9774 8.51219 59.999 8.57499C60.0201 8.6378 60.0263 8.70484 60.017 8.77058C59.9872 9.2352 59.2434 9.89468 58.8569 9.85723C58.5697 9.82349 58.5882 9.59867 58.6325 9.42634ZM53.9677 3.04523C54.0521 2.85039 54.1442 2.58436 54.4093 2.64056C54.6744 2.69676 54.6636 2.97029 54.6636 3.18762C54.6636 4.57774 53.9857 5.6756 53.1503 6.70227C53.2152 5.44465 53.4916 4.20771 53.9677 3.04523Z" fill="#0094FF"/>
</svg>
