<svg width="112" height="27" viewBox="0 0 112 27" fill="none" xmlns="http://www.w3.org/2000/svg">
<path fill-rule="evenodd" clip-rule="evenodd" d="M33.8565 6.91697C37.0986 6.91697 39.2809 9.19544 40.1003 11.0976C40.5351 12.1334 40.6998 13.2626 40.579 14.3795C40.3512 16.5858 39.0549 18.5398 37.1107 19.6074C35.1665 20.6751 32.8221 20.7204 30.8381 19.7286C30.8374 19.9553 30.8341 20.4606 30.8301 21.0712C30.8228 22.2119 30.813 23.7198 30.813 24.4632C30.813 25.1309 30.4568 25.7478 29.8786 26.0816C29.3004 26.4154 28.5881 26.4154 28.0099 26.0816C27.4317 25.7478 27.0755 25.1309 27.0755 24.4632V13.6834V9.05747C27.0445 8.1632 27.5861 7.34835 28.4226 7.03075C29.2592 6.71314 30.2051 6.96323 30.7754 7.65277C31.7287 7.16434 32.7854 6.912 33.8565 6.91697ZM31.6357 13.5576C31.5716 14.6865 32.3647 15.684 33.4792 15.8757C34.1913 15.9992 34.919 15.7686 35.43 15.2576C35.9411 14.7465 36.1717 14.0188 36.0482 13.3067C35.8564 12.1923 34.859 11.3991 33.73 11.4633C32.601 11.5275 31.6999 12.4286 31.6357 13.5576Z" fill="#729AFE"/>
<path fill-rule="evenodd" clip-rule="evenodd" d="M24.4644 7.03755C25.2834 7.33786 25.8297 8.11514 25.835 8.98742H25.8371V18.3814C25.8023 19.5129 24.8788 20.4142 23.7468 20.4215C23.1258 20.4219 22.5368 20.1462 22.1393 19.669L22.0745 19.7087C20.0902 20.7005 17.7454 20.655 15.8011 19.5869C13.8568 18.5188 12.5608 16.5642 12.3336 14.3575C12.2156 13.2406 12.3832 12.1121 12.8206 11.0777C13.6401 9.17555 15.8224 6.89709 19.0645 6.89709C20.1415 6.88237 21.205 7.13748 22.1581 7.63915C22.7261 6.97707 23.6454 6.73725 24.4644 7.03755ZM18.9168 15.8811C20.0455 15.946 21.0432 15.1539 21.2359 14.0399H21.2464C21.3717 13.3253 21.1402 12.5946 20.6264 12.0824C20.1126 11.5703 19.3811 11.3412 18.6669 11.4688C17.5528 11.6607 16.7599 12.6578 16.8239 13.7864C16.8878 14.9151 17.7882 15.8163 18.9168 15.8811Z" fill="#729AFE"/>
<path d="M98.3832 18.3501V5.24369C98.3832 3.34115 96.8409 1.79883 94.9384 1.79883H94.9028C94.5207 1.79883 94.2109 2.1086 94.2109 2.49073V18.3501C94.2109 19.5045 95.1468 20.4404 96.3013 20.4404C97.4525 20.4358 98.3832 19.5013 98.3832 18.3501Z" fill="#729AFE"/>
<path d="M16.037 1.79883H3.44486C1.54232 1.79883 0 3.34115 0 5.24369V5.28759C0 5.66972 0.309774 5.97949 0.691899 5.97949H6.88555V18.3501C6.88555 19.5045 7.82142 20.4404 8.97588 20.4404C10.1303 20.4404 11.0662 19.5045 11.0662 18.3501V5.97949H16.037C17.1915 5.97949 18.1273 5.04362 18.1273 3.88916C18.1273 2.7347 17.1915 1.79883 16.037 1.79883Z" fill="#729AFE"/>
<path d="M78.1763 12.0801C78.0814 10.1172 76.9059 8.36881 75.124 7.54014C73.342 6.71147 71.2475 6.9392 69.6853 8.13148C68.2279 7.02132 66.2995 6.74526 64.5891 7.40196C63.9679 6.87622 63.098 6.75884 62.3597 7.1011C61.6213 7.44337 61.1487 8.18305 61.1484 8.99688V18.3532C61.1484 19.5077 62.0843 20.4435 63.2388 20.4435C64.3932 20.4435 65.3291 19.5077 65.3291 18.3532V17.5003V12.5881C65.3112 12.1706 65.5237 11.7769 65.8826 11.5628C66.2415 11.3487 66.6889 11.3487 67.0478 11.5628C67.4067 11.7769 67.6192 12.1706 67.6013 12.5881V18.3532C67.5774 19.4594 68.4197 20.3926 69.5226 20.4818C70.6254 20.5711 71.6068 19.7854 71.761 18.6897V12.5881C71.7431 12.1706 71.9557 11.7769 72.3146 11.5628C72.6734 11.3487 73.1208 11.3487 73.4797 11.5628C73.8386 11.7769 74.0511 12.1706 74.0332 12.5881V18.3532C74.0332 19.5077 74.9691 20.4435 76.1236 20.4435C77.278 20.4435 78.2139 19.5077 78.2139 18.3532V13.1504C78.2139 12.7553 78.1972 12.3999 78.1763 12.0801Z" fill="#729AFE"/>
<path fill-rule="evenodd" clip-rule="evenodd" d="M108.886 7.92091C109.826 8.49969 110.604 9.30732 111.147 10.2684C111.709 11.2397 112.001 12.3427 111.996 13.4645C111.996 13.9313 111.788 14.3738 111.428 14.6706C111.089 14.9566 110.658 15.1109 110.215 15.1054H103.248C103.426 15.6508 103.764 16.13 104.218 16.4808C104.771 16.9249 105.461 17.1635 106.17 17.156C106.619 17.1719 107.067 17.1212 107.5 17.0055C107.757 16.9274 108.005 16.8201 108.238 16.6857C108.259 16.6723 108.279 16.6594 108.299 16.6469C108.475 16.5362 108.597 16.4594 108.666 16.4181L108.693 16.4035C109.484 16.0042 110.23 16.0899 110.75 16.6125C111.045 16.8943 111.212 17.2851 111.21 17.6932C111.21 18.2325 110.945 18.707 110.42 19.1251C109.873 19.548 109.255 19.87 108.595 20.0762C106.676 20.7217 104.576 20.5548 102.782 19.6142C101.792 19.0695 100.977 18.2547 100.432 17.2647C99.8769 16.2385 99.5941 15.0869 99.6109 13.9202C99.5852 12.657 99.8838 11.4083 100.478 10.2934C101.012 9.29493 101.806 8.46034 102.778 7.87911C103.706 7.33034 104.766 7.04153 105.844 7.04297C106.92 7.04385 107.975 7.34814 108.886 7.92091ZM103.257 12.0172H108.22H108.23C108.114 11.586 107.857 11.2057 107.501 10.9365C107.038 10.5487 106.451 10.3389 105.847 10.345C104.461 10.345 103.627 10.8843 103.257 12.0172Z" fill="#729AFE"/>
<path d="M48.1487 20.7347C45.0544 20.7312 42.3928 18.5439 41.7899 15.5089C41.6292 14.7695 41.8806 14.001 42.4473 13.4995C43.0139 12.9981 43.8073 12.842 44.5216 13.0914C45.236 13.3408 45.7598 13.9568 45.8912 14.702C46.1048 15.7793 47.0505 16.555 48.1487 16.554C49.3651 16.5425 50.3673 15.5959 50.4481 14.3822C50.4669 13.7937 50.2224 13.2274 49.7813 12.8374C49.3841 12.4653 48.5856 12.2688 47.7411 12.0598C46.0981 11.6543 43.8489 11.1003 42.7368 8.65466C42.1273 7.29644 42.1572 5.73678 42.8184 4.40293C43.7235 2.59479 45.7804 1.38867 47.9209 1.38867H47.9564C49.6789 1.40938 51.3452 2.00453 52.691 3.07975C53.272 3.54963 53.558 4.29392 53.4412 5.03196C53.3243 5.77 52.8224 6.38954 52.1246 6.65696C51.4269 6.92438 50.6395 6.79901 50.0593 6.32812C49.4521 5.84909 48.7046 5.58252 47.9313 5.56933C47.3899 5.56933 46.7524 5.89752 46.5642 6.27168C46.4693 6.47709 46.4648 6.71286 46.5517 6.92178C46.7879 7.43809 47.2812 7.63458 48.7507 7.99621C49.9568 8.29304 51.4556 8.66302 52.6513 9.78553C53.9885 11.0223 54.7114 12.7864 54.6266 14.6058C54.4402 18.042 51.6004 20.7331 48.1592 20.7347H48.1487Z" fill="#729AFE"/>
<path d="M60.0088 18.35V10.3628C60.0088 8.46029 58.4665 6.91797 56.5639 6.91797H56.52C56.3362 6.91797 56.1599 6.99115 56.03 7.12136C55.9002 7.25157 55.8276 7.42809 55.8281 7.61196V18.35C55.8281 19.5044 56.764 20.4403 57.9185 20.4403C59.0729 20.4403 60.0088 19.5044 60.0088 18.35Z" fill="#729AFE"/>
<path d="M60.151 7.40217C60.0456 7.40154 59.9451 7.35772 59.873 7.28093L59.7622 7.16805C58.8221 6.31198 57.5571 5.90554 56.2943 6.05391C56.1591 6.07034 56.0255 6.0134 55.9437 5.90456C55.8618 5.79571 55.8443 5.65148 55.8977 5.52621C55.951 5.40093 56.0672 5.31364 56.2023 5.29721C57.6933 5.12424 59.1859 5.60703 60.2931 6.62039L60.429 6.75835C60.5329 6.86947 60.5611 7.03161 60.5008 7.17129C60.4405 7.31097 60.3031 7.40162 60.151 7.40217Z" fill="#6EEEEC"/>
<path d="M61.1564 6.31564C61.051 6.31526 60.9504 6.2714 60.8784 6.1944C60.8303 6.14423 60.7843 6.09616 60.7342 6.04808C59.6409 4.98828 57.8976 4.42598 56.2943 4.62038C56.1591 4.63681 56.0255 4.57988 55.9437 4.47103C55.8618 4.36219 55.8443 4.21796 55.8977 4.09268C55.951 3.96741 56.0672 3.88011 56.2023 3.86368C58.0251 3.64211 60.013 4.28175 61.2672 5.5025C61.3236 5.55685 61.3801 5.61538 61.4344 5.67182C61.5384 5.78294 61.5666 5.94508 61.5062 6.08476C61.4459 6.22444 61.3086 6.3151 61.1564 6.31564Z" fill="#6EEEEC"/>
<path d="M62.1828 5.25153C62.072 5.25199 61.9665 5.20385 61.8943 5.11984C61.8358 5.05295 61.7752 4.98815 61.7083 4.92334C60.3746 3.62734 58.2488 2.9438 56.2943 3.18001C56.1591 3.19644 56.0255 3.13951 55.9437 3.03066C55.8618 2.92181 55.8443 2.77759 55.8977 2.65231C55.951 2.52703 56.0672 2.43974 56.2023 2.42331C58.3784 2.15993 60.7467 2.92708 62.2392 4.37568C62.3186 4.45302 62.3981 4.53454 62.4712 4.62025C62.5376 4.69644 62.5709 4.79588 62.5638 4.89666C62.5568 4.99743 62.5099 5.09126 62.4336 5.15746C62.3639 5.2177 62.2749 5.25106 62.1828 5.25153Z" fill="#6EEEEC"/>
<path d="M63.2062 4.17306C63.0988 4.17692 62.9948 4.13515 62.9199 4.0581C61.3814 2.38583 58.7162 1.45563 56.2872 1.75873C56.0801 1.782 55.8932 1.63339 55.8692 1.42637C55.8482 1.21994 55.9957 1.03446 56.2015 1.0083C58.9064 0.682212 61.766 1.68139 63.4884 3.55851C63.592 3.66982 63.6194 3.83215 63.558 3.97129C63.4966 4.11043 63.3583 4.19964 63.2062 4.19815V4.17306Z" fill="#6EEEEC"/>
<path fill-rule="evenodd" clip-rule="evenodd" d="M86.2165 6.91714C89.4586 6.91714 91.643 9.1956 92.4603 11.0978C92.8936 12.134 93.0568 13.2632 92.9348 14.3796C92.707 16.586 91.4107 18.5399 89.4665 19.6076C87.5223 20.6752 85.1778 20.7205 83.1938 19.7288C83.1931 19.9554 83.1898 20.4608 83.1859 21.0714C83.1785 22.2121 83.1688 23.72 83.1688 24.4634C83.1688 25.4955 82.3321 26.3321 81.3 26.3321C80.2679 26.3321 79.4312 25.4955 79.4312 24.4634V9.05764C79.3967 8.16013 79.9393 7.34085 80.7792 7.02252C81.6191 6.70419 82.5684 6.95798 83.1374 7.65294C84.0901 7.16483 85.146 6.9125 86.2165 6.91714ZM84.0072 13.5529C83.9397 14.68 84.7276 15.6789 85.8395 15.8758C86.5532 16.0032 87.2842 15.7744 87.7979 15.2627C88.3116 14.7511 88.5434 14.021 88.4189 13.3068C88.2265 12.1941 87.2309 11.4022 86.1035 11.4651C84.9761 11.528 84.0747 12.4257 84.0072 13.5529Z" fill="#729AFE"/>
</svg>
