<svg width="57" height="30" viewBox="0 0 57 30" fill="none" xmlns="../../www.w3.org/2000/svg.html">
<g clip-path="url(#clip0)">
<path fill-rule="evenodd" clip-rule="evenodd" d="M16.5273 19.9639C18.9728 19.9639 20.6159 21.791 20.6745 24.0072V24.6293C20.6745 25.0789 20.4017 25.3302 19.9963 25.3476L19.9507 25.3486H13.9843C13.965 26.9616 15.0407 28.1863 16.5469 28.1863C17.5055 28.1863 18.288 27.7783 18.6597 26.9616C18.8358 26.5925 19.0901 26.4758 19.4227 26.4758H20.0094C20.4791 26.4758 20.7332 26.8646 20.5572 27.331C19.9417 28.9362 18.4758 29.9216 16.642 29.9545L16.5469 29.9554C13.6713 29.9554 12.048 27.7783 12.048 24.8818C12.048 22.1801 13.7495 19.9639 16.5273 19.9639ZM33.0505 19.9639C35.5351 19.9639 37.5108 22.0632 37.5108 24.9401C37.5108 27.8254 35.634 29.9111 33.1306 29.9547L33.0505 29.9554C30.5075 29.9554 28.5905 27.8561 28.5905 24.9401C28.5905 22.0632 30.5662 19.9639 33.0505 19.9639ZM43.4526 19.9639C45.898 19.9639 47.5411 21.791 47.5998 24.0072V24.6293C47.5998 25.0789 47.3269 25.3302 46.9215 25.3476L46.8759 25.3486H40.9095C40.89 26.9616 41.966 28.1863 43.4721 28.1863C44.4307 28.1863 45.2133 27.7783 45.585 26.9616C45.7608 26.5925 46.0151 26.4758 46.3477 26.4758H46.9346C47.4042 26.4758 47.6585 26.8646 47.4822 27.331C46.867 28.9362 45.4008 29.9216 43.5673 29.9545L43.4721 29.9554C40.5965 29.9554 38.973 27.7783 38.973 24.8818C38.973 22.1801 40.6748 19.9639 43.4526 19.9639ZM52.9701 19.9639C55.0047 19.9639 56.3544 21.0912 56.5696 22.627C56.6262 23.0206 56.3553 23.2697 55.9853 23.287L55.9438 23.2879H55.3958C55.0632 23.2879 54.7306 23.0741 54.633 22.7047C54.5156 22.2384 53.9483 21.655 52.9506 21.655C51.8552 21.655 51.3268 22.219 51.3268 22.8408C51.3268 23.2879 51.7183 23.6184 52.2267 23.7545C52.931 23.9489 53.8113 24.1238 54.5548 24.2597C55.9633 24.5318 56.9413 25.4066 56.9413 26.923C56.9413 28.5729 55.5119 29.92 53.0671 29.9547L52.9701 29.9554C50.5836 29.9554 49.1163 28.6529 49.0579 26.8646C49.0383 26.4953 49.3122 26.2037 49.6839 26.2037H50.251C50.6423 26.2037 50.9357 26.4953 50.9746 26.8646C51.0336 27.6031 51.8161 28.2058 52.9897 28.2252L53.0715 28.2257L53.1517 28.2248C54.3959 28.1999 55.0436 27.6702 55.0436 26.9616C55.0436 26.437 54.6526 26.1065 54.1241 26.0093C53.2831 25.8538 52.5008 25.679 51.6594 25.4261C50.5249 25.0956 49.4098 24.3182 49.4098 22.8602C49.4098 21.1498 50.8771 19.9639 52.9701 19.9639ZM27.3771 19.9639C27.7879 19.9639 28.0618 20.2166 28.0618 20.6054V21.1301C28.0618 21.524 27.7708 21.8092 27.3818 21.8291L27.3382 21.8302H26.9861C25.8514 21.8302 25.0102 22.5494 24.6385 23.2685V29.1C24.6385 29.4749 24.4022 29.7773 23.9817 29.7984L23.9342 29.7996H23.4258C23.0345 29.7996 22.7215 29.4888 22.7215 29.1V20.8193C22.7215 20.4302 23.0345 20.1194 23.4258 20.1194H23.9342C24.3452 20.1194 24.5798 20.4108 24.6189 20.7998L24.6385 21.247C25.1278 20.5666 26.1253 19.9639 27.0252 19.9639H27.3771ZM1.46385 15.6682C1.87468 15.6682 2.20726 15.9986 2.20726 16.4066V21.791H7.86089V16.4066C7.86089 15.9986 8.19323 15.6682 8.58474 15.6682H9.17141C9.582 15.6682 9.91482 15.9986 9.91482 16.4066V29.0806C9.91482 29.4555 9.60535 29.7759 9.21509 29.7983L9.17141 29.7996H8.58474C8.19323 29.7996 7.86089 29.4694 7.86089 29.0806V23.735H2.20726V29.0806C2.20726 29.4555 1.89802 29.7759 1.50756 29.7983L1.46385 29.7996H0.896748C0.485672 29.7996 0.153333 29.4694 0.153333 29.0806V16.4066C0.153333 15.9986 0.485672 15.6682 0.896748 15.6682H1.46385ZM33.0505 21.7327C31.564 21.7327 30.488 23.113 30.488 24.9401C30.488 26.8258 31.564 28.1477 33.0505 28.1477C34.5374 28.1477 35.6134 26.8452 35.6134 24.9401C35.6134 23.113 34.5374 21.7327 33.0505 21.7327ZM43.433 21.6744C42.0834 21.6744 41.203 22.7047 41.0269 23.6962H45.6239C45.6047 22.6082 44.7368 21.7077 43.502 21.6753L43.433 21.6744ZM16.5077 21.6744C15.1581 21.6744 14.278 22.7047 14.1017 23.6962H18.6989C18.6797 22.6082 17.8118 21.7077 16.5767 21.6753L16.5077 21.6744ZM39.251 0C39.6423 0 39.9357 0.31104 39.9357 0.69984V13.4321C39.9357 13.8068 39.6628 14.1094 39.2925 14.1305L39.251 14.1317H38.7621C38.3513 14.1317 38.1165 13.8598 38.0578 13.4707L38.0383 13.3154C37.415 13.8598 36.6095 14.2591 35.7799 14.286L35.6909 14.2874C32.9718 14.2874 31.3678 12.1687 31.3678 9.27216C31.3678 6.43416 33.0305 4.296 35.7692 4.296C36.6104 4.296 37.4514 4.66536 38.0187 5.17056V0.69984C38.0187 0.31104 38.3317 0 38.7426 0H39.251ZM27.3037 3.31368C29.0936 3.31368 30.5447 4.7556 30.5447 6.534C30.5447 7.44192 30.165 8.26056 29.5569 8.84592L29.5591 8.84688L24.0629 14.2543L18.5665 8.84688C17.9605 8.26056 17.5811 7.44192 17.5811 6.534C17.5811 4.7556 19.0319 3.31368 20.8219 3.31368C22.6118 3.31368 24.0629 4.7556 24.0629 6.534C24.0629 4.7556 25.5137 3.31368 27.3037 3.31368ZM16.9473 0.5076C16.8894 0.66864 16.8092 0.82176 16.75 0.98256C16.6268 1.31712 16.5162 1.65624 16.3901 1.9896C16.2022 2.48712 15.9404 2.94 15.5259 3.28848C15.0359 3.70032 14.4536 3.88536 13.8251 3.94296C13.1452 4.0056 12.495 3.90024 11.9151 3.52776C11.6681 3.36912 11.4012 3.32136 11.1263 3.28008C10.9867 3.25944 10.9365 3.324 10.9657 3.46296C10.978 3.5208 11.001 3.57696 11.0123 3.6348C11.0478 3.81216 11.158 3.89952 11.3323 3.9432C11.5579 4.00008 11.7415 4.13904 11.9238 4.28016C12.012 4.34904 12.1216 4.41312 12.2296 4.43016C13.0242 4.55376 13.722 4.91064 14.4009 5.3112C14.9832 5.65464 15.4945 6.0888 15.9191 6.61008C16.6254 7.47672 17.0302 8.45856 16.9652 9.59448C16.9488 9.88056 16.9014 10.165 16.8686 10.4501C16.7263 11.1828 16.4573 11.8634 16.0665 12.498C16.044 12.5345 16.0218 12.5719 15.9933 12.6036C15.8093 12.8064 15.7395 13.0478 15.7054 13.3154C15.6653 13.6308 15.5061 13.8967 15.2417 14.0837C14.9523 14.2889 14.6437 14.2522 14.343 14.1106C14.2002 14.0434 14.0681 13.9517 13.9362 13.8634C13.8121 13.7801 13.6848 13.7482 13.5326 13.763C12.9701 13.8185 12.4359 13.6865 11.9168 13.4882C10.978 13.129 10.2713 12.4966 9.72764 11.6618C9.06876 10.65 8.73062 9.54624 8.77531 8.34504C8.80405 7.56528 8.95911 6.79992 9.36004 6.11304C9.53056 5.82096 9.74624 5.5536 9.95564 5.28624C10.052 5.16336 10.132 5.04312 10.1629 4.88856C10.2148 4.62768 10.3266 4.39128 10.5109 4.19784C10.6408 4.0608 10.6626 3.9168 10.6078 3.74328C10.5481 3.5568 10.4638 3.39048 10.3119 3.25968C10.2503 3.20664 10.194 3.14136 10.1537 3.07104C10.0667 2.91984 10.1339 2.78352 10.3078 2.75616C10.4904 2.7276 10.6609 2.77728 10.8309 2.84544C11.0019 2.91408 11.1785 2.97576 11.3577 3.01872C11.5705 3.0696 11.6502 3.01152 11.7031 2.80176C11.7647 2.55744 11.8436 2.31984 11.9789 2.1048C12.338 1.53504 12.7943 1.06608 13.3957 0.744C13.7899 0.5328 14.2174 0.47736 14.6555 0.456C15.1661 0.43104 15.6759 0.40032 16.1853 0.3636C16.3264 0.35352 16.4657 0.31392 16.6053 0.2868C16.6444 0.27936 16.6824 0.26688 16.7215 0.2592C16.9328 0.21648 17.0191 0.30672 16.9473 0.5076ZM53.6522 0.35784C54.1021 0.35784 54.3758 0.62976 54.3758 1.05768V8.32776H56.1759C56.5473 8.32776 56.8408 8.6388 56.8408 9.00816V9.49392C56.8408 9.88704 56.5687 10.172 56.2168 10.1926L56.1759 10.1938H54.3758V13.44C54.3758 13.8337 54.085 14.1369 53.7134 14.1581L53.6717 14.1593H53.0848C52.6938 14.1593 52.3808 13.8482 52.3808 13.44V10.1938H46.9424C46.5511 10.1938 46.2381 9.88272 46.2381 9.47448V9.0276C46.2381 8.65824 46.3948 8.40552 46.5511 8.19144L52.1262 0.8244C52.3417 0.55224 52.6742 0.35784 53.0848 0.35784H53.6522ZM8.54054 0C8.99051 0 9.30352 0.33048 9.30352 0.73872V1.22472C9.30352 1.65564 9.01247 1.9241 8.58822 1.94272L8.54054 1.94376H2.16331V5.83152H6.52574C6.93633 5.83152 7.26891 6.162 7.26891 6.57024V7.05624C7.26891 7.4499 6.95966 7.77125 6.56942 7.79371L6.52574 7.79496H2.16331V13.4126C2.16331 13.7873 1.85428 14.108 1.46384 14.1304L1.42013 14.1317H0.85279C0.441955 14.1317 0.109375 13.8012 0.109375 13.4126V0.73872C0.109375 0.33048 0.441955 0 0.85279 0H8.54054ZM35.7887 6.10368C34.2823 6.10368 33.3041 7.50336 33.3041 9.2916C33.3041 11.0801 34.2043 12.4601 35.7887 12.4601C36.7862 12.4601 37.5886 11.7602 38.0187 11.0604V7.38672C37.5492 6.70632 36.7862 6.10368 35.7887 6.10368ZM52.4004 3.3708L48.6248 8.32776H52.4004V3.3708Z" fill="#00A3DA"/>
</g>
<defs>
<clipPath id="clip0">
<rect width="57" height="30" fill="white"/>
</clipPath>
</defs>
</svg>
