<svg fill="none" height="36" viewBox="0 0 136 36" width="136" xmlns="../../www.w3.org/2000/svg.html"><path d="m23.8234 8.26422c-.0214-.15771-.1573-.2452-.2702-.25472-.112-.00953-2.3062-.04331-2.3062-.04331s-1.8351-1.80554-2.0164-1.98922c-.1812-.18367-.5353-.12822-.673-.08664-.0017.00087-.3445.1083-.9217.28937-.0967-.31709-.2387-.70696-.4413-1.09857-.6533-1.26318-1.6102-1.93117-2.7663-1.93289-.0017 0-.0026 0-.0043 0-.0804 0-.1599.00779-.2402.01472-.0342-.04158-.0685-.0823-.1044-.12216-.5037-.54582-1.1492-.8118-1.9231-.7884-1.493.04331-2.98006 1.13582-4.18578 3.07652-.84828 1.36541-1.4939 3.08087-1.67688 4.40902-1.71451.53806-2.91338.91396-2.93989.92266-.86537.2755-.89273.3024-1.00561 1.1289-.0838.6247-2.34814 18.3647-2.34814 18.3647l18.9758 3.3252 8.2244-2.0715s-3.3554-22.98598-3.3768-23.14368zm-7.1376-1.78648c-.4369.13689-.9338.29284-1.4725.46178-.0111-.76588-.1009-1.83153-.4532-2.7525 1.133.21747 1.6905 1.51618 1.9257 2.29072zm-2.4653.77368c-.9945.31188-2.0796.65237-3.1682.99375.3061-1.18782.8868-2.37043 1.6-3.14584.265-.28851.6361-.60994 1.0757-.79361.413.87331.5028 2.10964.4925 2.9457zm-2.0343-3.99229c.3506-.0078.6456.07018.8979.23826-.4036.21226-.7936.51723-1.1595.9149-.9484 1.03099-1.6752 2.6312-1.96512 4.17509-.90386.28329-1.78805.56143-2.60211.81615.51396-2.43022 2.52428-6.07682 4.82883-6.1444z" fill="#95bf47"/><path d="m23.554 8.00962c-.112-.00952-2.3063-.0433-2.3063-.0433s-1.835-1.80556-2.0163-1.98923c-.0675-.06844-.159-.10397-.2548-.11869l.0008 27.6194 8.2237-2.0707s-3.3555-22.98506-3.3769-23.14276-.1582-.2452-.2702-.25472z" fill="#5e8e3e"/><path d="m14.4193 12.2938-.9552 3.6206s-1.0654-.4913-2.3284-.4107c-1.85225.1187-1.87192 1.3022-1.85307 1.5994.10089 1.6192 4.30547 1.9727 4.54147 5.7657.1856 2.9839-1.5623 5.0251-4.08058 5.1862-3.02283.1932-4.68688-1.6132-4.68688-1.6132l.64049-2.7603s1.67514 1.2805 3.01596 1.1947c.87566-.0563 1.1886-.778 1.15696-1.2883-.13166-2.1122-3.55555-1.9875-3.77187-5.4582-.18216-2.9205 1.7111-5.8801 5.88832-6.1469 1.6093-.1049 2.4328.311 2.4328.311z" fill="#fff"/><g fill="#000"><path d="m38.0302 19.8769c-.9456-.5199-1.4317-.9582-1.4317-1.5606 0-.7665.6752-1.2589 1.7294-1.2589 1.2273 0 2.323.5199 2.323.5199l.8643-2.6828s-.7947-.6299-3.1339-.6299c-3.2551 0-5.5112 1.8888-5.5112 4.5441 0 1.5055 1.0534 2.6553 2.4588 3.4759 1.1348.6566 1.5402 1.1223 1.5402 1.8063 0 .7116-.5674 1.2864-1.6208 1.2864-1.5699 0-3.0525-.8215-3.0525-.8215l-.9185 2.6828s1.3698.9307 3.6742.9307c3.3501 0 5.7546-1.6697 5.7546-4.6808-.0009-1.6137-1.2162-2.7635-2.6759-3.6116z"/><path d="m51.3778 14.2373c-1.6481 0-2.9449.794-3.944 1.9979l-.0543-.0275 1.4317-7.58172h-3.7284l-3.6199 19.29682h3.7284l1.2426-6.5961c.4859-2.4912 1.7556-4.0233 2.9447-4.0233.8371 0 1.162.5748 1.162 1.3963 0 .5199-.0543 1.1498-.1621 1.6697l-1.4045 7.5543h3.7286l1.4584-7.8009c.1624-.8215.2708-1.8063.2708-2.4637-.0016-2.1354-1.1091-3.4218-3.054-3.4218z"/><path d="m62.8563 14.2373c-4.4852 0-7.4559 4.1059-7.4559 8.6766 0 2.9285 1.7825 5.2822 5.1329 5.2822 4.4035 0 7.3753-3.9958 7.3753-8.6766 0-2.7094-1.5673-5.2822-5.0523-5.2822zm-1.837 11.0586c-1.2699 0-1.8103-1.0948-1.8103-2.4637 0-2.162 1.1081-5.6929 3.1341-5.6929 1.3238 0 1.7553 1.1497 1.7553 2.272 0 2.3261-1.1065 5.8846-3.0791 5.8846z"/><path d="m77.4472 14.2373c-2.5166 0-3.9447 2.2445-3.9447 2.2445h-.0535l.2163-2.0254h-3.2959c-.1618 1.3689-.4598 3.4485-.7562 5.009l-2.5937 13.8221h3.7285l1.0259-5.5838h.0816s.7649.4924 2.1884.4924c4.3762 0 7.2396-4.5432 7.2396-9.1423 0-2.5444-1.108-4.8165-3.8363-4.8165zm-3.5661 11.1127c-.9679 0-1.5406-.5474-1.5406-.5474l.6215-3.5309c.4326-2.3537 1.648-3.9142 2.9451-3.9142 1.1348 0 1.4856 1.0673 1.4856 2.0804 0 2.4362-1.4317 5.9121-3.5116 5.9121z"/><path d="m86.6046 8.81738c-1.1882 0-2.1339.95814-2.1339 2.18952 0 1.1223.7022 1.8888 1.7558 1.8888h.054c1.162 0 2.1611-.794 2.1883-2.1895 0-1.09483-.7294-1.88882-1.8642-1.88882z"/><path d="m81.3926 27.9229h3.7274l2.5403-13.3838h-3.7557z"/><path d="m97.1416 14.5122h-2.5937l.1346-.6298c.2162-1.2865.9729-2.4362 2.2156-2.4362.6632 0 1.1882.1916 1.1882.1916l.7294-2.95602s-.6483-.32826-2.0265-.32826c-1.3239 0-2.6467.38322-3.6468 1.25887-1.2699 1.09481-1.8643 2.68191-2.1612 4.27001l-.1073.6298h-1.7297l-.5404 2.847h1.7296l-1.9721 10.5653h3.7285l1.9721-10.5653h2.5665z"/><path d="m106.112 14.539s-2.331 5.949-3.377 9.1964h-.055c-.071-1.0458-.918-9.1964-.918-9.1964h-3.9179l2.2429 12.289c.055.2733.028.4383-.081.6299-.4327.8482-1.1617 1.6697-2.0263 2.2721-.7022.5198-1.4856.8481-2.1067 1.0672l1.0264 3.2027c.7567-.1641 2.323-.794 3.6466-2.0529 1.703-1.6147 3.269-4.1058 4.89-7.5001l4.565-9.9088h-3.889z"/></g></svg>