<svg fill="none" height="36" viewBox="0 0 140 36" width="140" xmlns="../../www.w3.org/2000/svg.html"><path d="m38.3472 14.7314c0-2.1397-2.0717-4.4122-5.6566-4.4122-4.0257 0-8.4481 2.9661-9.124 8.8835-.6905 5.9763 3.0119 8.6325 6.7438 8.6325s5.686-1.4609 7.6841-3.4087c-1.719-2.1692-3.9375-1.1658-4.3636-.9445-.4702.2361-1.0726.5608-2.3067.5608-1.4399 0-2.9091-.6493-2.9091-3.3497 9.2268-.9149 9.9321-3.822 9.9321-5.9617zm-4.5694.3542c-.0588.664-.3232 1.8003-4.9954 2.4348.9844-3.512 2.865-3.7777 3.7319-3.7777.8081 0 1.3223.6346 1.2635 1.3429zm-15.6327.5755s-1.9835 6.2568-2.1451 6.7732c-.0588-.5312-1.5133-11.7609-1.5133-11.7609-3.3792 0-5.18641 2.4201-6.14142 4.9729 0 0-2.40955 6.2716-2.61525 6.8028-.01469-.487-.36731-6.729-.36731-6.729-.20569-3.1284-3.05601-5.032-5.36272-5.032l2.79156 17.0143c3.54086-.0147 5.45087-2.4201 6.44996-4.9729 0 0 2.13038-5.5337 2.21858-5.7846.0147.2361 1.528 10.7575 1.528 10.7575 3.5555 0 5.4655-2.2577 6.494-4.7221l4.9807-12.2922c-3.5114 0-5.3627 2.4054-6.3177 4.973zm33.2489-5.3714c-2.1892 0-3.8641 1.1953-5.2746 2.9513v-.0147l1.2636-10.2263c-2.9091 0-5.2746 2.53812-5.7301 6.31579l-2.2038 18.25381c1.6749 0 3.4527-.487 4.4077-1.7265.8522 1.1067 2.1304 1.9921 4.0257 1.9921 4.9073 0 8.2718-5.7255 8.2718-11.0969-.0293-4.8991-2.3948-6.4486-4.7603-6.4486zm-.4555 8.7801c-.5142 2.9956-2.1744 5.032-3.7759 5.032-1.6162 0-2.3067-.7231-2.3067-.7231.3085-2.6266.4995-4.2351 1.0872-5.6222s1.9835-3.6006 3.438-3.6006c1.4252 0 2.0717 1.9036 1.5574 4.9139zm17.4693-8.3817h-3.4233l.0147-.177c.235-2.24302.764-3.42355 2.5124-3.61538 1.19-.11805 1.719-.73783 1.8512-1.41663.1028-.53123.4261-2.37579.4261-2.37579-6.8761-.04427-9.0358 2.93654-9.5942 7.4815l-.0146.1033h-.0735c-1.1166 0-2.3508 1.2691-2.5565 2.8776l-.0735.5902h2.2921l-1.9247 15.9666-.5877 2.8627c.0734 0 .1616.0148.235.0148 3.2177-.1181 5.2746-2.6709 5.7301-6.3748l1.4986-12.4693h1.0725c1.0579 0 2.2921-1.0624 2.5124-2.8332zm17.8072-.2951c-3.9523 0-7.6841 2.9218-8.8302 7.5111-1.146 4.5893.5877 10.0197 6.4059 10.0197 5.8035 0 9.1534-5.6518 9.1534-10.3591 0-4.6778-3.1589-7.1717-6.7291-7.1717zm1.6014 8.5293c-.2056 2.0807-1.1166 5.2385-3.6143 5.2385-2.5124 0-2.1598-3.6891-1.91-5.4451.2645-1.8741 1.3076-4.545 3.5556-4.545 2.0128 0 2.2038 2.4053 1.9687 4.7516zm24.6536-3.2612s-1.983 6.2568-2.145 6.7732c-.059-.5312-1.513-11.7609-1.513-11.7609-3.379 0-5.187 2.4201-6.142 4.9729 0 0-2.409 6.2716-2.615 6.8028-.014-.487-.3671-6.729-.3671-6.729-.2057-3.1284-3.056-5.032-5.3627-5.032l2.7768 17.0143c3.541-.0147 5.451-2.4201 6.45-4.9729 0 0 2.13-5.5337 2.204-5.7846.029.2361 1.528 10.7575 1.528 10.7575 3.555 0 5.465-2.2577 6.494-4.7221l4.981-12.2922c-3.497 0-5.348 2.4054-6.289 4.973zm-40.8299-12.5578-2.8797 23.33-.5877 2.8776c.0735 0 .1616.0147.2351.0147 3.1001-.0442 5.3039-2.7742 5.7153-6.2125l1.6603-13.38413c.4995-4.08755-1.9247-6.62567-4.1433-6.62567z" fill="#3f4ff2"/></svg>