<svg fill="none" height="60" viewBox="0 0 120 60" width="120" xmlns="http://www.w3.org/2000/svg" xmlns:xlink="http://www.w3.org/1999/xlink"><clipPath id="a"><path d="m30 17h59v25h-59z"/></clipPath><g clip-path="url(#a)" fill="#fff"><path d="m56.6688 27.1121c2.5289 0 3.9764-1.6143 4.4277-3.0864l-2.018-.7193c-.2129.7193-.9111 1.7481-2.4097 1.7481-1.4476 0-2.6908-1.0706-2.6908-2.9692s1.2432-2.9358 2.6482-2.9358c1.4646 0 2.1202.9368 2.3331 1.7648l2.0606-.736c-.3917-1.5139-1.8222-3.1114-4.4107-3.1114-2.7674 0-4.9217 2.0994-4.9217 5.01-.0085 2.8772 2.1543 5.0352 4.9813 5.0352z"/><path d="m66.4187 27.1121c2.3161 0 3.8402-1.3382 4.3511-2.9943l-1.9414-.6022c-.315.9368-1.0218 1.6477-2.4097 1.6477-1.422 0-2.5715-1.0288-2.6311-2.4674h7.0418c.0426-.2342.0682-.4767.0596-.7193 0-2.9943-1.737-4.918-4.7087-4.918-2.4353 0-4.6832 1.9823-4.6832 4.9766 0 3.2118 2.3075 5.0769 4.9216 5.0769zm-.2214-8.1632c1.5838 0 2.3331.9869 2.3757 2.0993h-4.7258c.0937-1.196 1.124-2.1161 2.3501-2.0993z"/><path d="m79.6508 20.6049c0-1.8819-1.124-3.538-4.0957-3.538-2.3757 0-3.8743 1.4553-4.0531 3.0863l2.0947.4684c.1022-.9535.7663-1.7063 1.9754-1.7063 1.2688 0 1.8222.6441 1.8222 1.4386 0 .3346-.1617.6023-.7152.6775l-2.4694.368c-1.6433.2342-2.9035 1.1626-2.9035 2.8522 0 1.4971 1.2431 2.8605 3.2612 2.8605 1.5582 0 2.5119-.7779 2.9632-1.4972 0 .7611.0766 1.1459.1022 1.2044h2.1372c-.0851-.5018-.1277-1.0037-.1192-1.5139zm-2.2565 2.2917c0 1.8484-1.1069 2.4507-2.3927 2.4507-.9111 0-1.4049-.5855-1.4049-1.2212 0-.7778.5705-1.1626 1.2857-1.2797l2.5119-.368z"/><path d="m85.5175 17.0835c-1.0644 0-2.2139.4433-2.8525 1.539v-1.263h-2.2309v9.4597h2.2905v-5.4533c0-1.2463.6897-2.2332 2.001-2.2332 1.4476 0 1.9755.9284 1.9755 2.0993v5.5956h2.2905v-5.9887c.0085-2.0826-1.1155-3.7554-3.4741-3.7554z"/><path d="m35.2793 31.9133c-1.4816 0-2.5886.6775-3.0228 1.4135v-5.7711h-2.2565v14.0682h2.2309v-1.263c.5535.9117 1.6008 1.4972 2.9632 1.4972 2.8099 0 4.53-2.1579 4.53-5.01.0085-2.7769-1.5583-4.9348-4.4448-4.9348zm-.4513 7.9458c-1.4646 0-2.5886-1.1291-2.5886-2.9943 0-1.8819 1.124-2.9525 2.5886-2.9525 1.5241 0 2.5885 1.0706 2.5885 2.9525 0 1.8652-1.0899 2.9943-2.5885 2.9943z"/><path d="m55.2806 38.6376v-4.3911h2.0011v-1.999h-2.0011v-2.894h-2.0776v1.4219c0 .8364-.4513 1.4721-1.4816 1.4721h-.4939v1.999h1.7797v4.7591c0 1.7648 1.1069 2.8186 2.8865 2.8186.8345 0 1.2687-.1589 1.405-.2174v-1.8568c-.264.0502-.5279.0752-.7919.0752-.8515 0-1.2262-.3512-1.2262-1.1876z"/><path d="m62.1015 38.6376v-4.3911h2.001v-1.999h-2.001v-2.894h-2.0777v1.4219c0 .8364-.4513 1.4721-1.4816 1.4721h-.4939v1.999h1.7797v4.7591c0 1.7648 1.1069 2.8186 2.8865 2.8186.8345 0 1.2688-.1589 1.405-.2174v-1.8568c-.264.0502-.5279.0752-.7919.0752-.8515 0-1.2261-.3512-1.2261-1.1876z"/><path d="m67.2783 27.6392h-2.2905v14.0682h2.2905z"/><path d="m72.6002 31.9546c-2.4353 0-4.6832 1.9823-4.6832 4.9766 0 3.2034 2.3161 5.0686 4.9216 5.0686 2.3161 0 3.8403-1.3383 4.3512-2.9944l-1.9415-.6022c-.315.9368-1.0303 1.6477-2.4097 1.6477-1.422 0-2.5715-1.0287-2.6311-2.4673h7.0419c.0425-.2342.0681-.4768.0596-.7193 0-2.986-1.7456-4.9097-4.7088-4.9097zm-2.3331 3.9813c.0937-1.2045 1.124-2.1245 2.3501-2.0994 1.5838 0 2.3331.9869 2.3757 2.0994z"/><path d="m51.1764 35.869h-.0255c-.1022-.9618-.4684-1.8735-1.0644-2.643-.1703-.2258-.3661-.4684-.5875-.736l-1.5583-1.8652-1.2602-1.5055-1.1239-1.3466-.5365-.6524c-.2129-.2593-.4342-.5186-.6471-.7779l-.0085-.0083c-.4769-.5688-.9707-1.1626-1.4561-1.7565-.6982-.828-.9707-1.9237-.7323-2.9692.2384-1.012.9452-1.8568 1.9074-2.2917 1.0473-.4935 2.282-.46 3.3038.0836.9877.5353 1.6519 1.5139 1.7711 2.618.1192.92-.1363 1.7564-.7493 2.5008l-.3236.3931-.017-.2677c-.0426-.5938-.5705-1.0371-1.1666-.9953-.034 0-.0681.0084-.1022.0084-.5619.1004-.9536.6022-.9111 1.1626l.2044 2.6096c.0426.5603.5194.9953 1.0899.9953h.0852l2.6566-.1924c.5279-.0335.9622-.4266 1.0303-.9368.0767-.5938-.3576-1.1291-.9536-1.196-.0682-.0084-.1448-.0084-.2129-.0084l-.1022.0084.2129-.2593c1.0643-1.2797 1.4901-2.9107 1.1836-4.4747-.3151-1.5641-1.3113-2.9023-2.7333-3.6635-.0596-.0334-.1193-.0585-.1789-.092-.0596-.0334-.1192-.0585-.1788-.0836-.1362-.0669-.281-.1255-.4172-.1757l-.0255-.0167c-.0256-.0084-.0511-.0167-.0767-.0334l-.0511-.0168c-.9622-.3262-1.9925-.3847-2.9887-.1589-2.3501.4851-4.1042 2.4172-4.3171 4.7675-.017.1589-.0255.3178-.0255.4851v.0753l.017.5269h.017c.1022.9535.4769 1.8652 1.0644 2.6263.3746.4935.7749.9702 1.1665 1.4303.1618.1923.3236.3847.4854.5771.4513.552.9111 1.0957 1.3709 1.6477l.1277.1589c-.281.3346-.562.6691-.843 1.012l-.0255.0335c-.6982.828-1.4135 1.6895-2.1117 2.5426-.6982.8281-1.124 1.8485-1.2432 2.9191h-.0255v.5018c-.0086 1.2463.4342 2.459 1.2431 3.4209.0256.0335.0511.0585.0767.0836l.034.0419c.0426.0418.0852.092.1192.1338 1.8819 2.0073 4.9898 2.3335 7.2633.7527.1107-.0752.2129-.1505.3065-.2258l.0681-.0585.0256-.0251c.0937-.0753.1873-.1673.281-.2509l.0255-.0251.0426-.0419c.1107-.1087.2214-.2258.3151-.3429l.034-.0418.017-.0167c.0852-.1004.1618-.2091.2385-.3179l.017-.0251c.017-.025.0341-.0418.0511-.0669.0766-.1171.1533-.2425.2214-.368.0255-.0418.0426-.0753.0596-.1171l.017-.0251c.0511-.092.0937-.184.1362-.2843l.0086-.0251c.017-.0419.0425-.092.0596-.1422.0511-.1088.0936-.2259.1362-.3597.017-.0585.0341-.1087.0511-.1673.0426-.1505.0766-.2843.1107-.4182.0085-.025.0085-.0418.0085-.0669l.0085-.0251c.0256-.1338.0511-.276.0681-.4098v-.0251c0-.0251.0086-.0418.0086-.0669.017-.1506.0255-.3095.0255-.4684 0-.0167 0-.0334 0-.0585zm-2.3075 1.9656c-.5535 1.2044-1.5327 1.8735-2.9036 1.999-.1192.0083-.2384.0167-.3491.0167-1.5072 0-2.844-.9033-3.3209-2.2917-.4087-1.1794-.2128-2.275.5705-3.2453.6983-.8698 1.4391-1.748 2.1458-2.5928l.017-.0167.6131-.7361.1277.1506c.1618.1924.2981.3596.6131.736l1.2006 1.4386c.3576.4182.6471.7695.9196 1.1375.7919 1.0706.9111 2.2165.3662 3.4042z"/></g></svg>