<svg fill="none" height="60" viewBox="0 0 120 60" width="120" xmlns="http://www.w3.org/2000/svg" xmlns:xlink="http://www.w3.org/1999/xlink"><clipPath id="a"><path d="m0 0h120v60h-120z"/></clipPath><g clip-path="url(#a)" fill="#fff"><path d="m71.6816 35.6251h-.8979c-.0612 0-.1199-.0248-.1631-.0688-.0433-.044-.0676-.1037-.0676-.1659v-3.6081c0-.2015.0287-.9438.6286-1.2088.4257-.1833.8821-.0292 1.3613.4584.3118.3172.792.4915 1.3167.4704.4922-.0137.959-.2251 1.2984-.588.3395-.363.5237-.848.5126-1.3489-.0111-.5008-.2167-.9768-.5719-1.3238s-.831-.5368-1.3233-.5277c-.4567-.0097-.8994.1607-1.2355.4754-.4871.4936-1.0038.7313-1.5048.7182-.4366-.0141-.8385-.2075-1.2236-.5883-.023-.0226-.0412-.0498-.0535-.08-.0123-.0301-.0183-.0624-.0177-.095.0005-.0326.0077-.0647.0209-.0944.0133-.0297.0325-.0563.0562-.0781l.6732-.6043c.0421-.038.0963-.059.1525-.059s.1104.021.1525.059c.0744.0833.1734.1398.2821.1611h.0059c.1159 0 .297-.1178.495-.3163.6465-.6557 1.6375-.9831 2.6393-.8491.777.1011 1.49.4903 2.0024 1.0931.5124.6027.7882 1.3767.7745 2.1735-.0049.866-.3461 1.6949-.9492 2.3061-.603.6111-1.4191.9549-2.2702.9565-.6662.0089-1.3179-.1978-1.8612-.5903v3.0874c.0002.031-.0058.0618-.0174.0906-.0117.0287-.0288.0548-.0505.0767-.0216.0219-.0473.0392-.0756.051-.0283.0117-.0586.0176-.0891.0174z"/><path d="m17.5739 27.5982h-1.1187v5.0505c0 .0622-.0243.1219-.0676.166-.0433.044-.1019.0687-.1631.0687h-.8613c-.0302 0-.0602-.0061-.0881-.0179s-.0533-.0291-.0746-.0509c-.0214-.0218-.0383-.0477-.0498-.0762-.0115-.0284-.0173-.0589-.0172-.0897v-5.0505h-.9028c-.0303.0001-.0603-.0058-.0882-.0175-.028-.0117-.0534-.0289-.0749-.0506-.0214-.0217-.0384-.0475-.05-.0759-.0116-.0285-.0176-.0589-.0176-.0897v-.6568c0-.0622.0243-.1219.0676-.1659.0432-.044.1019-.0688.1631-.0688h.9028v-2.1636c-.0001-.0308.0057-.0613.0172-.0897.0115-.0285.0284-.0544.0498-.0762.0213-.0218.0467-.0391.0746-.0509s.0579-.0179.0881-.0179h.8613c.0612 0 .1198.0247.1631.0687.0433.0441.0676.1038.0676.166v2.1636h1.1187c.0611 0 .1198.0248.1631.0688.0432.044.0675.1037.0675.1659v.6568c0 .0308-.006.0612-.0176.0897-.0116.0284-.0286.0542-.05.0759s-.0469.0389-.0749.0506c-.0279.0117-.0579.0176-.0881.0175z"/><path d="m24.4935 29.218v3.4308c0 .0622-.0243.1219-.0676.1659-.0432.044-.1019.0688-.1631.0688h-.8583c-.0612 0-.1198-.0248-.1631-.0688s-.0676-.1037-.0676-.1659v-3.3341c0-1.0436-.6207-1.6469-1.4295-1.6469-.8237 0-1.8216.4663-1.8216 1.798v3.183c0 .0622-.0243.1219-.0675.1659-.0433.044-.102.0688-.1631.0688h-.8613c-.0612 0-.1199-.0248-.1631-.0688-.0433-.044-.0676-.1037-.0676-.1659v-9.4141c0-.0617.0239-.121.0665-.1649s.1005-.069.1612-.0698h.8613c.0612 0 .1198.0247.1631.0687.0432.0441.0675.1038.0675.166v4.2125c.3644-.7817 1.3761-1.1081 2.0503-1.1081 1.5919-.003 2.5364 1.0537 2.5235 2.8789z"/><path d="m31.8545 30.2201h-4.9757c.1753 1.0435.9306 1.5512 1.9563 1.5512.6623 0 1.2869-.2609 1.6631-.7514.0327-.042.0787-.0712.1301-.0826.0515-.0114.1052-.0043.1521.0201l.6534.3324c.0293.0151.0552.0364.0758.0625s.0355.0563.0438.0887c.0082.0324.0096.0662.004.0992s-.0181.0644-.0365.0921c-.5891.9196-1.6424 1.389-2.7532 1.389-1.8215 0-3.2521-1.3316-3.2521-3.3633s1.4573-3.324 3.2521-3.324c1.7949 0 3.1571 1.2923 3.1571 3.3139 0 .1652-.0119.3425-.0247.5319-.0017.0111-.0072.0213-.0155.0287-.0084.0074-.019.0115-.0301.0116zm-1.2523-1.0839c-.1218-1.0072-.8494-1.5512-1.8216-1.5512s-1.6998.4936-1.8889 1.5512z"/><path d="m47.6469 26.7076v5.943c0 .0622-.0243.1219-.0676.166-.0432.044-.1019.0687-.1631.0687h-.8613c-.0611 0-.1198-.0247-.1631-.0687-.0432-.0441-.0675-.1038-.0675-.166v-.7283c-.4178.7273-1.3217 1.098-2.1721 1.098-1.7126 0-3.1253-1.3176-3.1253-3.3492 0-2.0317 1.4166-3.3352 3.1164-3.3352.891 0 1.7672.3566 2.1849 1.0839v-.7122c0-.0622.0243-.1219.0676-.1659s.1019-.0688.1631-.0688h.8613c.0605.0011.1181.0263.1605.0702s.0662.103.0662.1645zm-1.3355 2.9494c0-1.2904-1.0385-2.0448-2.0107-2.0448-1.079 0-1.9562.837-1.9562 2.0448 0 1.2077.8772 2.087 1.9562 2.087 1.0791 0 2.0107-.7967 2.0107-2.087z"/><path d="m58.2246 26.5699v5.943c0 .0621-.0242.1216-.0672.1656-.0431.044-.1015.0688-.1625.0691h-.8623c-.061-.0003-.1194-.0251-.1624-.0691-.0431-.044-.0672-.1035-.0672-.1656v-.7273c-.4188.7273-1.3227 1.098-2.1721 1.098-1.7136 0-3.1303-1.3175-3.1303-3.3492s1.4167-3.3362 3.1165-3.3362c.891 0 1.7671.3576 2.1859 1.0849v-.7132c0-.0619.0242-.1214.0672-.1652.0431-.0438.1015-.0685.1624-.0685h.8623c.0609 0 .1193.0247.1624.0685s.0673.1033.0673.1652zm-1.3355 2.9504c0-1.2904-1.0385-2.0448-2.0097-2.0448-1.0791 0-1.9562.837-1.9562 2.0448 0 1.2077.8742 2.0871 1.9562 2.0871 1.0821 0 2.0097-.7968 2.0097-2.0871z"/><path d="m49.385 23h.8613c.0611 0 .1198.0247.1631.0687.0432.0441.0675.1038.0675.166v9.4141c0 .0622-.0243.1219-.0675.1659-.0433.044-.102.0688-.1631.0688h-.8613c-.0612 0-.1199-.0248-.1631-.0688-.0433-.044-.0676-.1037-.0676-.1659v-9.4141c0-.0622.0243-.1219.0676-.166.0432-.044.1019-.0687.1631-.0687z"/><path d="m65.9741 23.2347v9.4141c0 .0308-.006.0613-.0176.0898s-.0286.0543-.05.0761-.0469.0391-.0748.0509c-.028.0118-.058.0179-.0883.0179h-.8583c-.0303 0-.0602-.0061-.0882-.0179-.0279-.0118-.0532-.0291-.0746-.0509-.0213-.0218-.0382-.0477-.0497-.0762s-.0173-.059-.0172-.0897v-.7263c-.4188.7273-1.3226 1.098-2.172 1.098-1.7137 0-3.1304-1.3176-3.1304-3.3493s1.4167-3.3351 3.1165-3.3351c.891 0 1.7671.3566 2.1859 1.0839v-4.1853c-.0001-.0308.0057-.0613.0172-.0897.0115-.0285.0284-.0544.0497-.0762.0214-.0218.0467-.0391.0746-.0509.028-.0118.0579-.0179.0882-.0179h.8613c.0606.0008.1185.0259.1611.0698.0427.0439.0666.1032.0666.1649zm-1.3375 6.4224c0-1.2903-1.0385-2.0447-2.0097-2.0447-1.0801 0-1.9562.837-1.9562 2.0447 0 1.2078.8761 2.0871 1.9562 2.0871 1.0702 0 2.0097-.7967 2.0097-2.0871z"/><path d="m82.2697 26.7479-.1466.8179c-.0063.0332-.0196.0646-.039.092-.0193.0275-.0443.0505-.0731.0673s-.0609.0271-.094.0302-.0664-.0011-.0978-.0122c-.2181-.0756-.4467-.1151-.6771-.1169-1.1474 0-1.683 1.2208-1.683 2.9514v2.0709c0 .0623-.0243.122-.0676.166-.0432.044-.1019.0687-.1631.0687h-.8791c-.0612 0-.1198-.0247-.1631-.0687-.0432-.044-.0675-.1037-.0675-.166v-5.9429c.0005-.0619.025-.1211.0682-.1647s.1016-.068.1624-.068h.8742c.0612 0 .1198.0247.1631.0687.0432.044.0675.1037.0675.166v1.2087c.3238-1.1261.9583-1.5784 1.7672-1.5784.3056-.0005.6092.0499.8989.1491.0511.0186.0941.055.1214.1027.0274.0477.0373.1037.0281.1582z"/><path d="m82.3931 29.657c0-2.0306 1.5107-3.324 3.3055-3.324 1.7949 0 3.3185 1.2903 3.3185 3.324s-1.5246 3.3634-3.3185 3.3634c-1.7938 0-3.3055-1.3317-3.3055-3.3634zm5.3023 0c0-1.2349-.9177-2.0588-1.9968-2.0588s-1.9799.8239-1.9799 2.0588c0 1.235.9038 2.0871 1.9799 2.0871s1.9968-.837 1.9968-2.0871z"/><path d="m88.3809 34.9716c0-.0309.006-.0614.0176-.0899.0116-.0284.0285-.0543.05-.0761.0214-.0218.0468-.0391.0748-.0509s.058-.0178.0883-.0178h.495c.9711 0 1.1325-.8059 1.1196-1.5382v-6.4909c-.0001-.0308.0058-.0613.0172-.0897.0115-.0285.0284-.0544.0498-.0762.0213-.0218.0467-.0391.0746-.0509s.0579-.0179.0881-.0179h.8623c.0302 0 .0602.0061.0881.0179s.0533.0291.0747.0509c.0213.0218.0382.0477.0497.0762.0115.0284.0173.0589.0172.0897v6.505c0 1.6479-.6198 2.7872-2.3334 2.7872h-.6059c-.0612 0-.1199-.0247-.1631-.0688-.0433-.044-.0676-.1037-.0676-.1659zm1.8542-11.5042c.792-.4694 1.5593-.0192 1.5593.6718 0 .4946-.3911.8653-.9039.8653-.691 0-1.2444-.7484-.6554-1.5371z"/><path d="m99.0064 30.2201h-4.9757c.1752 1.0436.9316 1.5512 1.9562 1.5512.6623 0 1.2919-.2609 1.6642-.7514.0322-.0422.078-.0717.1293-.0833s.105-.0046.1518.0198l.6534.3324c.0293.0152.0551.0365.0758.0625.0206.0261.0356.0563.0439.0886.0083.0324.0098.0662.0044.0992-.0055.033-.0177.0644-.036.0922-.589.9197-1.6424 1.3891-2.7541 1.3891-1.8216 0-3.2511-1.3317-3.2511-3.3634 0-2.0316 1.4572-3.324 3.2511-3.324 1.7938 0 3.157 1.2934 3.157 3.315 0 .1652-.0118.3425-.0237.5318-.0019.0112-.0076.0214-.0161.0288s-.0193.0114-.0304.0115zm-1.2534-1.0838c-.1217-1.0073-.8504-1.5512-1.8215-1.5512-.9712 0-1.6999.4935-1.8889 1.5512z"/><path d="m99.7485 29.6711c0-2.0317 1.5785-3.3352 3.3995-3.3352.93 0 1.739.3496 2.293.9177.022.0219.04.0482.052.0773s.018.0603.018.0919-.006.0628-.018.0919c-.012.029-.03.0553-.052.0773l-.549.5258c-.042.0398-.096.0625-.153.0636s-.112-.0194-.154-.0575c-.389-.3456-.89-.5328-1.406-.5258-1.174 0-2.105.8511-2.105 2.073 0 1.2218.931 2.0729 2.105 2.0729.516.0068 1.016-.1804 1.405-.5258.042-.0382.098-.0586.154-.0573.057.0013.112.0243.153.0644l.549.5248c.022.022.04.0484.052.0776.012.0291.018.0605.018.0921 0 .0317-.006.063-.018.0921-.012.0292-.03.0556-.052.0776-.554.5671-1.363.9177-2.293.9177-1.82 0-3.3985-1.3045-3.3985-3.3361z"/><path d="m109.769 27.5982h-1.119v5.0505c0 .0622-.024.1219-.067.166-.043.044-.102.0687-.163.0687h-.861c-.031 0-.061-.0061-.089-.0179s-.053-.029-.075-.0508c-.021-.0218-.038-.0477-.05-.0762-.011-.0285-.017-.059-.017-.0898v-5.0505h-.903c-.061 0-.119-.0246-.162-.0685-.043-.0438-.068-.1032-.068-.1652v-.6568c0-.0307.006-.0612.018-.0897.011-.0285.028-.0543.049-.0761.022-.0219.047-.0392.075-.051s.058-.0179.088-.0179h.903v-2.1636c0-.0622.024-.1219.067-.166.044-.044.102-.0687.164-.0687h.861c.061 0 .12.0247.163.0687.043.0441.067.1038.067.166v2.1636h1.119c.03 0 .06.0061.088.0179s.054.0291.075.0509c.022.0218.039.0477.05.0761.012.0285.018.059.018.0898v.6568c0 .0621-.025.1215-.068.1653s-.102.0684-.163.0684z"/><path d="m40.2285 31.2802c-.1722 1.1372-1.1879 1.8897-2.5452 1.8897h-.0802c-.9266-.0212-2.2146-.6729-2.3384-2.0559-.0031-.0122-.0048-.0247-.0049-.0373-.0007-.0459.0158-.0904.0461-.1244.0304-.034.0722-.0551.1172-.0589h1.0257c.0413.0007.0812.0155.1133.042.0321.0264.0546.0631.0639.1041.0009.007.0009.0141 0 .0211.1158.5832.8068.7212 1.0048.7263.198.005 1.1444-.0121 1.2533-.7172.0112-.0584.0089-.1187-.0067-.176-.0157-.0574-.0442-.1102-.0834-.1544-.2395-.2115-.5692-.3022-1.2137-.4362-1.4949-.3021-2.0255-1.3195-2.0255-2.0951 0-.9801.7554-2.0206 2.1542-2.0206.3656-.0063.7282.0679 1.063.2176s.6337.3713.8764.6497l.0554.0634c.0147.0272.0226.0576.0228.0887-.0002.0493-.0194.0967-.0534.1319-.1911.1662-.5732.4875-.7693.6537-.0361.0338-.0827.0537-.1316.0564-.0356-.0004-.0702-.012-.099-.0332l-.005-.005c-.0138-.0182-.0317-.0373-.0505-.0585-.1156-.1261-.2565-.2257-.413-.2919-.1566-.0662-.3253-.0975-.4948-.0918-.7712 0-.792.5721-.792.6376 0 .3374.3594.6205.9356.7383.7484.1541 1.3196.2972 1.8295.7424.2157.1971.3789.4467.4742.7253.0954.2787.1199.5773.0712.8682z"/></g></svg>