<svg fill="none" height="60" viewBox="0 0 120 60" width="120" xmlns="http://www.w3.org/2000/svg" xmlns:xlink="http://www.w3.org/1999/xlink"><clipPath id="a"><path d="m0 0h120v60h-120z"/></clipPath><g clip-path="url(#a)"><path clip-rule="evenodd" d="m70.4534 21.0347c-.0877.02-.252.0818-.3652.1373s-.2665.1515-.3407.2133c-.0743.0618-.1849.1734-.2458.2479s-.1493.2095-.1964.2999c-.0472.0904-.1123.2496-.1447.3539-.0495.1593-.0588.2423-.0578.5183.001.2921.009.3513.0711.531.0385.1112.1039.2619.1454.3349.0415.0729.1259.1947.1876.2707.0616.0759.1785.1894.2598.2522.0812.0627.2255.1532.3206.2011.0952.0478.2466.1065.3367.1303.0998.0263.2572.0432.403.0431.1345-.0001.3162-.0185.4149-.042.0966-.023.256-.0806.3542-.128s.2459-.138.3281-.2013c.0823-.0633.2087-.1852.2809-.271.0722-.0857.17-.2308.2173-.3224.0473-.0915.1044-.2234.1268-.2929s.0518-.2144.0654-.322c.0163-.1293.016-.2646-.0008-.3992-.014-.1121-.0545-.2857-.09-.386-.0355-.1002-.1147-.2639-.176-.3636-.063-.1027-.1923-.2572-.2979-.3562-.1026-.0962-.2639-.2155-.3584-.2651s-.2455-.1151-.3355-.1455c-.119-.0401-.2431-.058-.4534-.0652-.1946-.0066-.342.0021-.4492.0265zm13.8284.0016c-.0877.0192-.2521.0802-.3652.1356-.1132.0554-.2625.1482-.3317.2061-.0693.0579-.1793.1685-.2446.2457-.0652.0772-.1577.2154-.2055.3071-.0477.0916-.1134.2519-.1458.3562-.0488.1567-.059.2446-.0587.5057.0002.2337.0122.3555.0464.4677.0254.0835.0851.2298.1327.3253s.1386.2414.2022.3244c.0635.0829.1794.2018.2574.2642.078.0623.2279.1573.333.2111.1052.0538.2639.1171.3527.1406.0977.0259.2558.0427.4007.0426.1344-.0001.3162-.0185.4149-.042.0966-.023.256-.0806.3542-.128s.2458-.138.3281-.2013.2087-.1852.2809-.271c.0722-.0857.17-.2308.2173-.3224.0473-.0915.1042-.2234.1264-.2929.0223-.0695.0521-.2102.0664-.3127.0179-.1284.0179-.2521-.0002-.3977-.0144-.1163-.0534-.2923-.0867-.3911s-.0982-.244-.1442-.3228-.1799-.2411-.2977-.3608c-.1793-.1821-.253-.2367-.4534-.3355-.1316-.065-.3186-.1347-.4156-.155s-.2727-.0362-.3904-.0354c-.1178.0009-.2859.0172-.3736.0363zm-37.0814.2562c-.0485.0047-.2015.0206-.3401.0352-.1385.0147-.3935.0556-.5667.0909s-.4459.1073-.606.16c-.1601.0528-.4143.1542-.5648.2255s-.3879.2055-.5275.2983c-.1652.1097-.3508.2663-.5315.4484-.1656.1668-.3374.3707-.4253.5048-.0812.1238-.1963.3286-.256.4551-.0597.1266-.1426.3325-.1842.4577-.0417.1251-.1041.3697-.1388.5436-.0346.1738-.0749.469-.0894.6561-.0146.187-.0265.4458-.0265.5752v.2351h-.7179-.7179v1.1757 1.1757h.7179.7179v4.7027 4.7027h1.4735 1.4735v-4.7027-4.7027h1.9773 1.9773v4.7027 4.7027h1.4735 1.4735v-5.8784-5.8784h-3.4543-3.4544l.0142-.3476c.0099-.2443.0302-.4039.0682-.5369.0297-.1041.093-.2636.1406-.3545s.1379-.2242.2007-.2963c.0627-.072.1973-.1868.299-.255.1016-.0683.2838-.1601.4046-.204.1209-.0439.3235-.0981.4503-.1204.1279-.0225.3873-.042.5831-.0438.1939-.0018.4291.0056.5226.0164l.1701.0197v-1.2517-1.2518l-.0567-.0131c-.0312-.0072-.1814-.0245-.3338-.0384-.1523-.0139-.4527-.0235-.6674-.0212-.2148.0022-.4301.0079-.4786.0127zm28.4124 3.1687v1.6942h-.7935-.7934v1.1757 1.1756h.7557.7556l.0001 2.5979c.0001 1.6123.0101 2.7082.0265 2.8886.0146.1599.0538.428.0873.5957.0334.1676.1019.4236.1522.5688.0502.1452.1541.3874.2308.5382.0768.1508.2075.3669.2907.4804.0831.1134.2507.3046.3724.4249.1263.1248.3441.3007.5075.41.1575.1052.3993.2444.5373.3093.1381.0648.3984.1663.5785.2254.1801.0592.4748.1367.6549.1723.1801.0355.4366.0766.57.0912.1334.0145.4055.0337.6045.0427.2131.0095.507.0039.7146-.0136.194-.0164.3782-.0362.4094-.044l.0566-.0142v-1.2899-1.2899l-.0793.0159c-.0436.0088-.1881.0228-.3211.0312s-.3544.0024-.492-.0134c-.1375-.0157-.3415-.0517-.4534-.0798-.1118-.0282-.3166-.1064-.4551-.1739-.1754-.0853-.3033-.1698-.4208-.2779-.0929-.0856-.2193-.2318-.281-.325s-.1413-.2434-.177-.3338c-.0356-.0904-.0843-.2383-.1083-.3287-.0396-.1495-.0443-.3923-.0517-2.6863l-.0082-2.5221h1.3232 1.3232v-1.1756-1.1757h-1.3222-1.3222l-.0065-1.6877-.0064-1.6876-1.4295-.0066-1.4294-.0065zm-40.868 1.2544c-.0554.0056-.2425.0283-.4156.0504-.1732.0221-.4226.0621-.5542.0889s-.364.082-.5163.1227c-.1524.0407-.3961.1154-.5416.1661s-.3835.143-.5289.2051c-.1455.0621-.4131.1903-.5946.2848-.1815.0946-.4451.2481-.5856.3411-.1406.093-.2556.1733-.2556.1784 0 .0052.2439.4736.5419 1.0409s.5506 1.0402.5613 1.051c.0107.0107.0927-.0297.1823-.0898.0895-.06.2771-.1724.4166-.2498.1396-.0773.3946-.2031.5668-.2795.1721-.0764.4553-.1845.6293-.2402.1741-.0558.4355-.1256.5809-.1552.1455-.0295.3942-.0631.5526-.0747.1585-.0116.4245-.0115.5912 0 .1709.0119.4111.0486.5509.0842.1363.0347.329.1034.4282.1526s.2446.1433.3232.2092.1892.1789.2458.2511c.0565.0722.1407.2144.1869.316.0463.1017.1036.2588.1274.3492.0244.0929.0489.3082.0566.4955l.0134.3313-.7651.0151c-.4208.0083-.9011.0274-1.0674.0423-.1662.015-.4774.0502-.6916.0782-.2141.0281-.5372.0796-.7179.1144-.1806.0349-.4758.102-.6559.1492s-.4635.1324-.6297.1894c-.1663.057-.495.1997-.7305.317-.2355.1174-.5328.289-.6607.3814-.128.0924-.3214.2547-.4301.3608-.1086.106-.2649.2842-.3474.3959-.0825.1118-.1977.2953-.256.4078-.0584.1125-.1452.3226-.1931.4668-.0479.1443-.1062.3931-.1295.553-.0325.2222-.039.3832-.0276.6827.0092.2431.0344.485.0664.6371.0284.1349.0867.3454.1294.4678.0429.1224.1303.3249.1944.45.0641.1252.1991.3376.2999.4721.1009.1346.2712.3258.3784.4251.1073.0992.2914.2465.4092.3274.1177.0808.3274.2039.466.2734.1385.0695.3345.1562.4354.1926.101.0364.2937.0937.4282.1274.1346.0336.3297.0763.4336.095.121.0217.3879.0336.743.0332.4728-.0005.5958-.009.8377-.0577.1559-.0313.3883-.0913.5163-.1332.1281-.0418.3576-.1369.51-.2112.1523-.0743.3582-.1905.4574-.2581s.2692-.1993.3778-.2926.2551-.2355.3256-.316c.0704-.0805.1854-.2261.2555-.3234s.16-.2396.1999-.316l.0725-.1391-.0097.8912-.0097.8913h1.3504 1.3504v-3.864c0-2.5385-.0092-3.9587-.0268-4.1401-.0147-.1519-.0544-.4157-.0883-.5861-.0338-.1704-.1022-.4321-.1519-.5815s-.1458-.386-.2135-.5257-.1932-.3616-.279-.493c-.1054-.1616-.2585-.3417-.4727-.5559-.2011-.2011-.3991-.3712-.5419-.4654-.1237-.0817-.3447-.2084-.4911-.2815-.1464-.0732-.3796-.1723-.5181-.2202-.1385-.048-.3766-.1166-.5289-.1525-.1524-.036-.3961-.0839-.5416-.1065-.1754-.0272-.4766-.0438-.8942-.0492-.3463-.0045-.675-.0036-.7304.002zm27.2663.0114c-.1039.0129-.2796.0415-.3904.0637-.1108.0221-.2941.0667-.4072.0992-.113.0324-.3114.1012-.4408.1529-.1293.0517-.2917.1225-.3609.1574s-.2143.1185-.3225.1859c-.1082.0673-.2808.186-.3836.2636-.1028.0777-.2866.24-.4084.3607s-.2966.3163-.3884.4346-.2241.3096-.2939.4251c-.0699.1154-.1319.2235-.1378.24s-.0165.0243-.0236.0174c-.0071-.007-.0036-.1264.0079-.2655.0114-.139.0213-.6197.022-1.0682l.0012-.8154h-1.4105-1.4106v5.8784 5.8784h1.4593 1.4593l.0101-2.9898c.0088-2.5613.0159-3.0279.0501-3.2558.0219-.1463.0636-.3596.0927-.474s.0823-.2905.1183-.3913c.036-.1009.1162-.2858.1783-.4109.062-.1252.1619-.3015.2218-.3919s.1822-.2497.2717-.354c.0896-.1043.2383-.2522.3305-.3287s.2669-.2019.3882-.2788.3164-.1778.4334-.2243c.1171-.0464.3206-.1136.4522-.1492.2186-.0591.2839-.0649.7557-.0665.4197-.0014.5464.0066.6772.0429.0885.0245.2359.0802.3274.1238.1167.0555.2206.134.3469.2622.1297.1317.206.2367.2719.3742.0504.1051.1186.298.1516.4287s.0722.347.0871.4807c.018.162.027 1.472.027 3.923v3.6797h1.4618 1.4619l-.0087-4.1528c-.0078-3.7853-.0124-4.1785-.0523-4.4424-.024-.1593-.067-.3982-.0955-.531-.0285-.1327-.0916-.3608-.1401-.5068s-.1436-.3768-.2114-.5128c-.0677-.136-.1817-.3351-.2534-.4424-.0716-.1074-.2332-.2986-.3591-.425s-.3186-.2901-.4281-.3637c-.1096-.0737-.3136-.1886-.4534-.2553s-.3686-.1552-.5083-.1966-.3948-.1001-.5667-.1304c-.2406-.0424-.4404-.0571-.8668-.0638-.3048-.0048-.6392.0019-.7431.0148zm7.3802 6.1298v5.8784h1.4735 1.4735v-5.8784-5.8784h-1.4735-1.4735zm13.8283 0v5.8784h1.4736 1.4735v-5.8784-5.8784h-1.4735-1.4736zm-45.9001.8912c-.0105.2813-.0301.4374-.0793.635-.036.1441-.1092.3673-.1628.496-.0535.1287-.143.3124-.1987.4082-.0558.0958-.1555.248-.2216.3383s-.1834.2308-.2606.3123c-.0773.0815-.2298.2158-.339.2985-.1093.0827-.2736.1879-.3653.2339-.0916.0459-.2403.1075-.3303.1368-.0901.0293-.2374.0649-.3275.0792-.09.0142-.243.0258-.34.0256s-.2515-.0112-.3434-.0246c-.0919-.0133-.2572-.0528-.3672-.0877-.1101-.0349-.2694-.1084-.354-.1633-.0847-.0549-.1991-.1451-.2542-.2005-.0551-.0553-.1411-.1613-.1911-.2354-.0499-.0741-.1197-.2258-.155-.3371-.0512-.1613-.0642-.2534-.064-.4551.0002-.1835.0144-.2984.0519-.419.0284-.0914.0951-.2336.1483-.316s.162-.2097.2419-.2828c.0799-.0732.2208-.178.313-.2329.0923-.0549.2486-.1332.3474-.1741.0988-.0408.2802-.103.403-.1383.1229-.0353.3424-.0867.4879-.1142.1454-.0276.3665-.0631.4911-.0789.1247-.0158.3627-.0379.529-.0491.1662-.0112.539-.022.8283-.024l.5261-.0037zm50.4749 3.3675c-.0675.0273-.1663.0799-.2195.117-.0533.037-.1239.103-.157.1466-.033.0436-.0864.1305-.1186.193-.0437.0849-.0612.1683-.069.3287-.0087.1764-.0008.2409.044.3602.0326.0868.1037.1993.1766.2793.07.0769.1846.1657.269.2086.1321.0671.1712.0747.3863.0747.2059.0001.259-.0092.3808-.0666.0779-.0366.1883-.1089.2454-.1607.0575-.0522.1403-.1688.1858-.2617.0745-.1518.0821-.1889.0818-.3955-.0003-.1795-.012-.2532-.0549-.3472-.03-.0656-.1078-.1764-.1728-.2462-.0651-.0698-.1814-.1579-.2586-.1958-.1153-.0566-.1808-.0702-.3683-.0764-.1808-.006-.2536.0027-.351.042zm.6559.1681c.0715.0344.1719.1091.2232.1661s.1152.1535.1421.2145c.0298.0674.0491.1687.0496.2588.0004.0814-.013.194-.0298.2501-.0168.0562-.0719.1573-.1226.2246-.0654.0869-.1408.1475-.2595.2083-.144.0737-.1919.0855-.3426.0846-.1187-.0008-.2121-.0175-.2895-.0519-.0628-.0279-.1649-.0975-.2266-.1547-.0621-.0573-.1387-.1632-.171-.2361-.0431-.0972-.0587-.1791-.0589-.3092-.0001-.1265.0147-.2094.0523-.2907.0288-.0626.0944-.1565.1455-.2088.0512-.0523.1376-.1179.1921-.1457.0544-.0279.1416-.0612.1937-.0742.0522-.0129.1572-.0178.2334-.0108s.1971.0408.2686.0751zm-.6968.6551v.5184h.0756.0756v-.2023-.2023h.0893c.0841 0 .0967.0117.2175.2023.1251.1973.1307.2023.2285.2023h.1002l-.0449-.0696c-.0246-.0382-.0829-.1264-.1295-.1959-.0773-.1153-.0809-.1287-.0409-.1517.0241-.0139.0754-.0557.114-.0929.0571-.0549.0703-.0896.0703-.1846 0-.0643-.0172-.1503-.0382-.1911s-.0715-.0914-.1121-.1125c-.0524-.0272-.1514-.0384-.3396-.0384h-.2658zm.5572-.3185c.0261.0323.0474.0846.0474.1163s-.0213.084-.0474.1163c-.0396.0491-.0764.0603-.2267.0688l-.1793.0102v-.1953-.1954l.1793.0102c.1503.0085.1871.0197.2267.0689z" fill="#fff" fill-rule="evenodd"/></g></svg>