<svg fill="none" height="60" viewBox="0 0 120 60" width="120" xmlns="http://www.w3.org/2000/svg" xmlns:xlink="http://www.w3.org/1999/xlink"><clipPath id="a"><path d="m0 0h120v60h-120z"/></clipPath><g clip-path="url(#a)"><path clip-rule="evenodd" d="m58.8292 9.01061c-.1128.00952-.3784.04067-.5902.06923-.2118.02858-.4666.07309-.5663.09893-.0997.02585-.2177.06472-.2621.08639-.0445.02167-.0836.0542-.087.07229-.004.0219.0129.03703.0508.04525.0312.00679.4056-.0029.832-.02151.6828-.02982.8862-.03085 1.7046-.00853.5111.01394 1.0753.03407 1.2539.04475.1786.01069.4571.02835.6189.03927s.4358.03358.6088.05038c.173.01677.4332.03964.5783.0508s.3871.02574.5377.03242c.1816.00805.2933.00452.3314-.01045.0316-.01241.0538-.03392.0493-.04778-.0045-.01385-.0427-.04164-.0848-.06174-.0421-.02009-.1967-.0671-.3435-.10443s-.4952-.10497-.7742-.1503c-.279-.04531-.6899-.09692-.9131-.11468-.2232-.01775-.6159-.04078-.8726-.05117s-.7817-.02282-1.1668-.02765c-.385-.00482-.7923-.00099-.9051.00853zm-3.3867.56061c-.0334.00453-.2.03111-.3701.05904-.17.02791-.5079.10097-.7508.16233-.2428.06135-.574.15313-.7358.20397s-.452.15044-.6449.22134c-.1928.0709-.4713.1798-.6189.2419-.1475.0621-.4326.1941-.6335.2932-.2009.0992-.436.2268-.5225.2836-.0865.0569-.1573.1178-.1573.1354 0 .0266.0182.0302.1066.0209.0586-.0061.2937-.0723.5225-.1472.2288-.0748.8223-.2772 1.319-.4498.4966-.1726 1.0217-.3524 1.1668-.3996.145-.0472.4966-.1656.7812-.26302.2846-.09745.5885-.20954.6754-.24908.0868-.03956.1546-.08191.1506-.09413-.0041-.01221-.0569-.02331-.1174-.02465-.0605-.00135-.1374.00126-.1709.0058zm9.9127.25817c0 .01572.0288.05274.0639.08226.0352.02951.1164.08011.1805.11245.0641.0323.1945.0909.2897.1302.0951.0393.3066.1216.4699.1828s.4877.1658.7209.2325c.2331.0667.5149.1397.626.1623.1112.0227.2307.0412.2655.0412.0404 0 .0681-.0123.0764-.0337.0086-.0225-.0066-.0493-.0463-.0815-.0326-.0264-.1825-.1106-.3332-.1873-.1507-.0766-.3515-.1713-.4464-.2105-.0949-.0391-.3506-.1304-.5682-.2028-.2202-.0733-.5313-.15937-.7015-.19408-.1743-.03555-.3686-.06241-.4515-.06241-.1119 0-.1457.00662-.1457.02858zm4.6786 1.97061c-.0077.0201.0027.056.0249.0861.021.0284.1123.1156.2028.1938.1245.1075.2721.2007.607.3831.2433.1326.5292.2909.6352.3518.106.0608.348.2129.5378.3379.1897.125.4499.312.5783.4155.1283.1035.3018.2482.3855.3215s.2983.2753.4769.4489c.1786.1737.5301.5078.7812.7426.2512.2347.6219.5897.824.7887.202.1991.484.4987.6266.6658.1427.1671.3797.4724.5268.6785s.3917.5627.5435.7925c.1518.2297.3455.4954.4305.5904.0849.0951.1786.1886.2082.208.0523.0343.0549.0339.0928-.0129.0319-.0392.0376-.0723.0311-.18-.0051-.085-.0263-.1718-.0596-.2438-.0285-.0615-.1689-.2757-.3122-.476-.1432-.2003-.3284-.4541-.4115-.5639-.0832-.1099-.2761-.3514-.4287-.5368s-.5224-.6287-.8217-.9852c-.2992-.3565-.6321-.7379-.7396-.8475-.1076-.1097-.3203-.311-.4727-.4474-.1524-.1365-.3624-.3162-.4667-.3994s-.3403-.2597-.5245-.3922c-.1841-.1325-.4261-.3107-.5377-.396s-.3536-.2628-.5378-.3945c-.1841-.1316-.5083-.3543-.7203-.4948-.2121-.1404-.4495-.2997-.5276-.3539-.0782-.0542-.206-.1289-.2841-.166-.0781-.0372-.2143-.0859-.3026-.1084-.0882-.0225-.2037-.0408-.2565-.0408-.0717 0-.0994.0087-.1093.0344zm-20.7125.1664c-.0632.0202-.1864.0752-.2739.1223-.0876.0472-.2185.1278-.2911.1793-.0725.0515-.1761.1347-.23.1849-.054.0502-.1103.1146-.1251.1431-.0183.0353-.0206.063-.0074.0867.0131.0234.0448.0349.096.0349.0421 0 .1261-.0147.1867-.0327.0607-.018.165-.06.232-.0935s.1812-.1047.254-.1582c.0727-.0535.1886-.1559.2576-.2276.0689-.0717.1313-.1539.1385-.1828.0073-.0288.0072-.062 0-.0738-.0073-.0117-.0379-.0209-.0679-.0203s-.1063.0176-.1694.0377zm9.5202 2.0278c-.2288.043-.4571.0892-.5073.1026-.0503.0134-.1507.0536-.2233.0894-.0725.0357-.2871.1622-.4768.281-.2586.162-.3857.2286-.5075.266-.0894.0274-.1853.0655-.2131.0846s-.1561.1187-.285.2214c-.129.1027-.3162.2753-.416.3834-.0998.1082-.2363.2524-.3033.3207-.0669.0682-.1789.1559-.2487.1949-.0698.0389-.193.1138-.2739.1663-.0808.0526-.1717.1156-.202.1402-.0546.0442-.0575.0443-.3474.0185-.2646-.0235-.3102-.0226-.4799.0102-.1719.0331-.2081.0338-.4338.0074-.1355-.0158-.3559-.0281-.4899-.0274-.2388.0012-.2485.0031-.5073.0979-.1451.0531-.3551.1411-.4667.1956-.1272.0621-.2938.1692-.4464.287-.1339.1033-.3683.311-.5208.4614-.2758.2719-.278.2748-.399.5266-.0669.1392-.1282.2896-.1363.3342s-.0278.107-.0439.1386c-.0161.0317-.1636.2368-.3278.4558s-.3522.4848-.4178.5906-.1834.3137-.2616.4621c-.1062.2012-.1668.2918-.2387.3562-.0529.0476-.1403.1027-.1942.1226-.0538.0199-.2261.103-.3828.1846-.1566.0815-.3941.1891-.5276.239s-.3751.1465-.5369.2148-.3673.1596-.4566.203-.2143.1135-.2779.1559-.1934.1431-.2884.2236c-.0951.0806-.2242.2082-.2868.2836-.0627.0754-.1498.2009-.1937.2789-.0438.078-.1259.283-.1824.4557-.0564.1727-.1518.5054-.212.7393-.0601.234-.1372.5621-.1713.7292s-.097.5363-.1398.8204c-.0719.4775-.0824.5234-.1393.6076-.0338.0501-.1147.1728-.1797.2725-.0776.1192-.2263.2929-.4337.5066-.1736.1789-.3668.3935-.4293.477-.0625.0834-.2097.2929-.3271.4656-.1173.1727-.2838.4311-.37.5743-.0861.1432-.206.3619-.2664.4861-.0958.197-.1151.2582-.1511.479-.0227.1393-.0547.2876-.071.3296-.0239.0613-.0298.2014-.0298.7115v.6352l.1026.4227c.0564.2325.125.5681.1524.7457.0275.1776.0598.3599.0719.4051.0122.0452.0459.1506.075.2341.0434.1247.0528.1882.0526.3545-.0001.1612-.0091.224-.044.3078-.0314.0755-.0472.1673-.0558.3241-.0066.1203-.0256.3099-.0423.4214-.0217.1453-.0248.2283-.0109.2937.0106.0501.0529.2369.094.4152.041.1782.0966.3729.1235.4325s.0903.1706.1409.2466c.0714.1072.1062.1414.1551.1521.0367.008.1063.0572.1668.1179.0571.0573.17.1953.2509.3067s.1698.2481.1977.3038c.0327.0656.061.1763.0802.314.0162.117.0486.4759.0719.7976l.0424.5849.1728.7912c.0951.4351.1787.8008.1859.8127.0071.0118.1134.1628.2362.3355.1229.1726.3142.437.4252.5874.1109.1504.2635.3471.339.4371s.2454.2539.3776.3641c.1321.1101.3035.2552.3807.3224.0773.0671.2088.2087.2922.3145s.1982.241.2552.3005c.0569.0594.1414.1345.1878.1667.0463.0323.2563.1399.4667.2392s.4509.2006.5347.2252c.0837.0245.2115.0757.284.1137.0726.0379.1929.1147.2673.1706.0745.0558.2252.1902.335.2986.1097.1084.3117.3175.4487.4647.1477.1585.2965.2973.3652.3404.0637.0401.2816.1709.484.2908.2025.1198.4445.2481.5378.2851s.2622.0831.3754.1025.2143.0404.2245.0468c.0103.0063.2178.0757.4611.1541.2433.0785.5531.1679.6886.1986.2461.056.2466.056.9409.051.5699-.0042.7668.0021 1.0958.0349.2206.0219.4361.0485.4789.059.0596.0145.143.0073.3552-.031.1524-.0274.3467-.0675.4316-.089.0848-.0216.2464-.0761.3591-.1212.1264-.0506.2536-.0865.3326-.0939.0874-.0081.1691-.0014.2577.0213.0714.0182.1729.0566.2256.0852.0527.0287.1738.1137.2691.189s.2795.1985.4094.2738c.13.0753.3044.1631.3877.1951s.181.0731.2172.0913c.0362.0181.0977.0635.1368.1007s.1046.0816.1456.0987c.041.017.156.0402.2557.0515.0996.0112.2898.0477.4226.081.1328.0332.351.0794.4849.1026.1624.0281.4059.0484.7306.0607.2678.0102.6559.0246.8624.032.2476.0089.4479.0052.5884-.0109.1172-.0134.3272-.0423.4668-.0643.1395-.0219.3267-.0618.4159-.0886.0893-.0269.3496-.0907.5784-.1419.2288-.0511.5385-.125.6882-.1641s.4009-.1218.558-.1838c.1572-.062.4526-.1931.6565-.2915.2038-.0983.455-.2267.558-.2852.1031-.0585.402-.2397.6642-.4027.2623-.163.5787-.3596.703-.4368s.402-.2581.6171-.4019c.215-.1439.5653-.4.7783-.5693.2131-.1693.4696-.3602.57-.4243.1005-.064.2043-.136.2307-.1599s.1547-.1665.2851-.3168c.1305-.1504.2835-.3327.34-.4052.0565-.0724.144-.1962.1944-.275.0504-.0789.2172-.3615.3706-.628.1534-.2664.3752-.6348.4929-.8186.1177-.1839.2796-.4391.3599-.5672.0802-.1281.1824-.3058.2271-.395.0447-.0891.1289-.2756.1872-.4144.0584-.1389.1337-.307.1674-.3737.042-.083.1261-.1857.267-.3262.1374-.1369.2483-.2717.3342-.4062.0707-.1106.1856-.2923.2554-.4037.0699-.1114.2253-.3575.3454-.5469s.3356-.4993.4788-.6887c.1493-.1974.2782-.3898.3021-.4508.0229-.0586.1552-.2774.294-.4862.1389-.2088.3212-.5117.4052-.6733.084-.1615.2201-.4395.3026-.6178.0825-.1782.1692-.3833.1929-.4557.0236-.0724.0657-.2228.0935-.3342s.1377-.5834.2443-1.0489.1938-.875.1938-.9101-.0582-.2923-.1293-.5716c-.0712-.2792-.1506-.5987-.1766-.71-.0269-.1153-.0836-.2763-.1318-.3747-.0466-.0948-.1312-.2523-.188-.35-.0568-.0976-.2254-.3757-.3747-.6178s-.3157-.5223-.3697-.6225c-.054-.1003-.2457-.4102-.426-.6887s-.4195-.6613-.5317-.8507c-.1121-.1894-.3086-.5234-.4367-.7423-.1282-.2189-.3401-.549-.4711-.7337-.1939-.2734-.2568-.3472-.3394-.3979-.0558-.0343-.4727-.24-.9265-.4572-.4538-.2173-.8855-.4307-.9594-.4744-.0738-.0437-.1619-.1109-.1956-.1493-.058-.0659-.0609-.0772-.051-.1993.0058-.0732-.0043-.2307-.0234-.3627-.0263-.1813-.029-.2547-.0121-.3298.0119-.0531.039-.1306.0603-.1723l.0387-.0756-.051-.1404c-.028-.0771-.0705-.1995-.0944-.2719-.034-.1031-.0435-.1823-.044-.3646-.0004-.156.0121-.2897.0378-.4047.0304-.1365.0359-.2196.027-.4051-.0083-.1734-.0252-.2776-.0657-.4055-.03-.0947-.0901-.2406-.1336-.3241-.0435-.0836-.1263-.2157-.184-.2937s-.2106-.247-.3399-.3755c-.1627-.1618-.3067-.2814-.4684-.3888-.1283-.0853-.3201-.1952-.4261-.2442s-.2567-.115-.3348-.1468c-.0781-.0317-.3064-.1684-.5073-.3036-.2009-.1353-.5159-.3488-.7001-.4744-.1841-.1256-.3741-.2603-.4221-.2993-.0481-.039-.115-.1198-.1488-.1795-.0528-.0933-.103-.1381-.359-.3194-.1638-.116-.3617-.2519-.4398-.302s-.2909-.1744-.473-.2762c-.182-.1018-.4031-.2213-.4913-.2656-.0883-.0443-.2303-.0996-.3157-.123-.1266-.0347-.1895-.0404-.3406-.031-.102.0064-.2631.0172-.358.0241-.1452.0104-.1936.0054-.3044-.0316-.0725-.0241-.2276-.0968-.3448-.1615s-.2954-.1587-.396-.209c-.1005-.0502-.3535-.1648-.5622-.2547-.2086-.0899-.4998-.2056-.6471-.257s-.2915-.1082-.3205-.1262c-.029-.0181-.1083-.085-.1761-.1489-.0935-.0878-.1502-.1236-.2334-.1471-.0605-.0171-.4341-.1054-.8303-.1963-.5092-.1169-.7544-.1824-.8364-.2237-.0957-.0481-.1404-.0581-.2537-.0567-.0757.001-.3247.037-.5535.0799zm-12.5207.2306c-.0834.0492-.2219.1381-.3076.1975-.0858.0595-.2775.2078-.4262.3296-.1486.1219-.4473.3996-.6637.6172-.2164.2175-.5446.569-.7294.7811-.1847.212-.4595.5404-.6106.7298s-.3434.4401-.4273.557c-.0839.117-.2266.3312-.3172.476-.0906.1449-.2337.3955-.318.5571-.0843.1615-.1906.3814-.2361.4885-.0455.1072-.0827.2143-.0827.238 0 .0243.0129.0432.0295.0432.0163 0 .0791-.0616.1397-.1368.0605-.0752.2123-.2768.3373-.4479.1249-.1712.3568-.4766.5153-.6786s.4672-.5815.6861-.8433.5063-.6037.6387-.7598c.1323-.1562.3867-.4523.5653-.6581.1785-.2058.578-.6313.8878-.9455.3097-.3142.5631-.5854.5631-.6028 0-.0193-.0179-.0316-.0461-.0316-.0254 0-.1144.0403-.1979.0894zm13.8179.3659c.0466.0164.1806.0483.2978.0708.1171.0226.2471.0411.2887.0411.0635 0 .1246.0345.3794.2145.1671.1179.3358.2395.3748.2701.0567.0445.0998.0581.2131.0675.0782.0065.1951.0316.2599.0558s.2246.1144.3551.2004c.1305.0861.281.182.3345.2133.0535.0312.2042.0913.3348.1334.1307.0422.3384.1185.4615.1695.1257.052.2815.1006.3551.1107.0796.0108.1911.0102.2834-.0016.0837-.0108.2381-.0139.3431-.0069s.3151.0307.4667.0526c.1517.022.3373.0584.4123.0809.1104.033.192.0821.4262.2562.1593.1185.3809.2904.4925.382.1116.0917.2721.2384.3566.326.0845.0877.1931.2141.2413.2809.0482.0669.116.1523.1507.1899.0347.0375.1179.0945.1849.1265.0669.0321.1417.0583.1661.0583.0244.0001.0667.0086.0941.019s.1358.0992.2408.1975c.1389.1299.2411.2047.375.2747.1012.053.1966.0964.2121.0967.0153.0002.1558.1056.312.2343.1563.1286.3663.2963.4667.3725.1005.0763.2922.1964.426.267.1834.0967.2739.1591.367.253.0951.0958.1406.1635.197.2937l.0735.1691-.3522.3545c-.1937.1949-.3667.3836-.3846.4192-.0178.0357-.0324.0733-.0324.0835s.0394.0297.0877.0431c.0793.0222.1174.0175.3974-.0491.1703-.0406.3338-.0709.3633-.0675.0329.0038.0635.0258.0792.0569.0169.0335.0257.1498.0261.3443.0004.1616.009.394.0192.5165.0101.1226.0388.3003.0637.395.0432.1644.0442.1874.0232.5064-.0159.2408-.0338.3677-.0642.4541-.0231.066-.0703.1638-.1048.2175s-.1134.1438-.1753.2003c-.0859.0783-.207.1486-.5105.296-.2188.1063-.4139.2076-.4336.2251-.0197.0174-.0414.0662-.0481.1084-.0068.0421-.0272.0891-.0454.1044-.0182.0152-.1035.0708-.1897.1234-.0861.0527-.2413.1611-.3449.2409s-.2893.2456-.4126.3686c-.1234.123-.3025.3147-.398.4261-.0956.1114-.2945.353-.4422.5368s-.3868.4639-.5314.6224c-.2219.243-.2761.2916-.3464.3105-.0458.0123-.1152.0164-.1541.0091-.039-.0073-.0956-.0379-.1259-.0681-.0426-.0426-.0669-.105-.1078-.2771-.0291-.1221-.0903-.418-.136-.6576-.0687-.3597-.0864-.5042-.1015-.8304-.0101-.2173-.0281-.5636-.04-.7697s-.0305-.4705-.0413-.5874c-.0109-.117-.03-.2765-.0425-.3545s-.058-.2203-.1011-.3162c-.0662-.1471-.0782-.1947-.0766-.3038.0011-.0712-.0089-.1699-.0222-.2192s-.0498-.1136-.0811-.1428c-.0313-.0291-.2337-.1746-.4497-.3233-.2161-.1487-.4751-.3319-.5755-.4072-.1005-.0753-.3379-.2667-.5276-.4254s-.3927-.3245-.451-.3686c-.0653-.0494-.165-.0983-.2597-.1275-.0846-.026-.2594-.1031-.3884-.1714-.1291-.0683-.3136-.1728-.4099-.2324-.0964-.0595-.3623-.238-.5909-.3966s-.5391-.3781-.6899-.4877c-.1509-.1097-.4017-.3004-.5574-.4239s-.3452-.2608-.4212-.305c-.0759-.0443-.2864-.1446-.4677-.2229s-.6238-.2925-.9834-.4759c-.3595-.1835-.7156-.3589-.7914-.3899-.0756-.031-.245-.0872-.3763-.1248-.221-.0634-.241-.066-.2718-.0352-.0308.0307-.027.0406.0519.1347.0692.0825.1488.1367.4241.2886.1864.1029.4622.2598.6128.3487.1507.089.3562.2165.4566.2834s.253.1748.3389.2399c.086.065.2151.1705.287.2345.0718.064.2046.1996.295.3014.135.152.1778.1876.2394.1991.0413.0077.1258.0397.1879.0712.062.0314.1849.1195.273.1958s.2022.1722.2536.2131c.0515.0409.2888.1802.5275.3096.2386.1294.4943.2705.5681.3136.0739.0432.2393.157.3676.2531.1284.096.2791.196.3349.2222s.1442.0629.1965.0817c.0522.0187.1481.0683.213.1102.065.0418.2002.1444.3007.2278.1004.0834.273.2141.3835.2904s.3114.2268.4465.3345c.135.1076.3003.2434.3672.3017.067.0583.1325.1306.1455.1607.0131.03.0302.121.038.202.0141.1466.0146.1477.098.1951.0461.0262.1134.053.1496.0596.0363.0067.09.0279.1195.0472.0295.0192.0664.0656.082.103.0157.0375.0369.1837.0471.3251.0103.1413.0421.3936.0708.5607.0286.1671.0887.4953.1336.7292.0448.234.0985.4892.1194.5672.0208.078.0661.283.1005.4557s.072.4006.0835.5064c.0114.1058.0264.2525.0332.3258.0078.0849.003.1623-.0131.2127-.0141.0436-.0487.1103-.077.1481-.0459.0612-.0531.0952-.0654.3088-.0129.2234-.0192.2507-.0914.397-.0678.1375-.1183.1977-.4039.4817-.1795.1786-.3793.3809-.4441.4496-.0827.0878-.2154.1865-.4464.3321-.1808.1139-.6162.3993-.9676.6341s-.6498.4338-.6631.4423c-.0158.01-.0707-.0464-.1577-.162-.0734-.0976-.1646-.2367-.2027-.3091s-.0978-.2036-.1327-.2915-.1185-.3514-.1856-.5855c-.0672-.2342-.1457-.4722-.1745-.5289s-.0891-.1624-.134-.2348-.0983-.1504-.1187-.1733c-.0203-.0229-.0553-.114-.0778-.2025s-.0808-.243-.1295-.3432c-.0488-.1003-.1805-.3373-.2929-.5267-.1123-.1894-.239-.3934-.2816-.4533-.0425-.0599-.181-.2054-.3077-.3234-.1266-.118-.2885-.2928-.3597-.3886s-.1781-.2102-.2376-.2542-.2118-.1391-.3386-.2113c-.1634-.0931-.2842-.1816-.4148-.3039-.1014-.0949-.2392-.2142-.3061-.2652-.067-.051-.2724-.195-.4566-.32-.1841-.1251-.3853-.278-.447-.3398-.0927-.0928-.1901-.153-.5581-.345-.2452-.1279-.5175-.2749-.6051-.3267-.0877-.0519-.2657-.1838-.3957-.2932s-.2976-.2397-.3724-.2896c-.1115-.0743-.2352-.1233-.6864-.272-.3027-.0997-.6545-.2308-.7819-.2912-.1273-.0604-.4247-.2165-.6609-.3469s-.5172-.2778-.6243-.3275c-.1072-.0497-.3335-.1488-.5029-.2201-.2761-.1161-.3177-.1282-.4013-.1168-.0513.007-.0974.0194-.1024.0275s.0198.0582.0551.1115c.0354.0532.1242.1407.1974.1944.0732.0536.2199.145.3259.2031s.2444.1402.3075.1825.1727.128.2435.1904c.0928.0817.2138.155.4332.2623.1674.0819.4534.2186.6355.3036.1821.0851.4845.2219.672.3042.1874.0822.4173.1685.5107.1917.0935.0232.2066.0662.2513.0956.0448.0293.1499.1185.2336.1983.0837.0797.1887.1728.2334.2068.0446.0341.1775.1213.2953.1939.1177.0725.2648.1589.3268.1919.0621.0331.2488.1684.415.3007s.4081.3456.5377.474c.1296.1283.2865.2637.3487.3008s.1884.1.2805.1397c.1538.0664.204.1055.6152.4781.2463.2233.5482.5067.671.63.1466.1472.2975.3284.4395.528.119.1671.2618.3771.3172.4666.0931.1504.1014.1744.1088.314l.0079.1511.2967.4963c.1632.2729.3768.636.4745.8069.1088.1902.1878.3538.2036.422.0143.0613.0323.1721.04.2464.0103.0986.0618.2575.1915.5907.0977.2507.1965.515.2197.5874.0231.0724.0513.1681.0626.2127s.0353.1995.0534.3443c.0213.1696.0485.2958.0765.3545.0376.0789.0451.1403.0555.4557.0068.2068.0224.3893.0361.4217.0132.0313.024.06.024.0636s-.0218.0121-.0485.0188c-.0266.0066-.0768.0444-.1116.0839-.0488.0555-.0631.0907-.0631.1555 0 .0562.0207.1203.0627.1947.0483.0854.0605.1277.0528.1839-.0054.0401-.052.1869-.1035.3262-.0514.1392-.1272.3383-.1683.4424-.0411.104-.1184.2555-.1717.3366s-.1714.2173-.2623.3027c-.091.0854-.2487.2129-.3506.2834-.1019.0704-.272.1783-.3781.2397-.106.0614-.2281.1231-.2714.137-.048.0154-.1434.0218-.2453.0165-.1386-.0073-.1926-.0211-.321-.0819-.1431-.0679-.193-.1117-.6791-.5963-.2951-.2942-.6802-.7048-.8801-.9383-.1955-.2284-.4752-.5584-.6216-.7334-.1463-.175-.3028-.3801-.3477-.4558-.045-.0756-.1092-.204-.1427-.2853s-.0973-.2593-.1417-.3956c-.0445-.1364-.0904-.3069-.1021-.3789-.0117-.0721-.0215-.172-.0218-.2222-.0003-.0562-.0178-.1217-.0458-.171-.0249-.044-.0773-.0986-.1164-.1215-.0591-.0347-.1004-.0409-.2479-.037-.1576.0041-.1826-.0003-.2296-.0406-.0461-.0396-.0533-.063-.058-.187-.0031-.0826-.0193-.1684-.0389-.2057-.0184-.0352-.0578-.0831-.0874-.1064-.0297-.0233-.1-.056-.1563-.0727s-.1191-.0303-.1397-.0303c-.0239 0-.0703.0509-.1293.142-.0506.0781-.1022.1716-.1146.2076-.0123.0361-.0357.0861-.0519.1112-.0186.0288-.0496.0456-.0844.0456-.0332 0-.0745-.021-.1042-.0529-.0271-.0291-.095-.0823-.151-.1183-.0561-.036-.1475-.1102-.2034-.1649-.0884-.0867-.1048-.1158-.1275-.2277-.0208-.1022-.0428-.1463-.108-.217-.0672-.0727-.1209-.1036-.2982-.1718-.119-.0457-.2711-.1139-.338-.1514-.067-.0375-.1963-.1281-.2875-.2012-.0911-.0732-.2691-.2491-.3956-.391-.1266-.1419-.294-.3203-.3721-.3964-.0782-.0762-.2182-.1893-.3112-.2514-.1008-.0673-.2401-.1376-.345-.1741-.1602-.0557-.2002-.0614-.4497-.0632-.2196-.0016-.287-.009-.3396-.0374-.0361-.0195-.2552-.155-.487-.3012-.2318-.1461-.5219-.3223-.6446-.3916-.1228-.0692-.4743-.2561-.7813-.4152-.3069-.1591-.5991-.3173-.6493-.3515-.0502-.0343-.1939-.1565-.3192-.2717-.1869-.1718-.2343-.2059-.2638-.19-.0198.0107-.0605.0453-.0904.0769-.03.0316-.0633.0806-.074.109-.0135.0356-.0117.07.0058.1114.0139.0329.0837.1106.1551.1726.0715.0621.3163.2617.5441.4437s.5079.4112.6224.5094c.1146.0981.2959.2468.4029.3303s.3246.2286.4835.3224.4258.2701.5932.3918.3592.2582.4262.3033c.0669.0452.2861.178.487.2952.2009.1171.525.3015.7203.4096.1954.1081.4556.2632.5784.3446.1227.0813.3202.2333.4387.3376.1186.1043.3149.28.4363.3905.1214.1104.3029.2614.4034.3356.1004.0742.2921.2117.426.3056.179.1256.3468.2725.6345.5556l.3911.3848-.0727.191c-.0448.1177-.0682.2089-.0609.2376.0064.0257.0412.0802.0772.1211s.1021.091.1468.1113.1205.0371.1684.0374c.0479.0002.1575.0144.2435.0315.0861.0172.221.0624.2999.1006s.1879.1085.2422.1562.1374.1392.1847.2034c.0473.0641.1584.1846.2468.2676.0885.0831.2067.2175.2629.2987.056.0812.1685.2661.2498.4109s.2916.4821.4674.7495c.1757.2673.3739.5838.4403.7033.0664.1194.146.2926.177.3848.0386.1152.0568.2121.058.3095.0011.0981-.0133.188-.0469.2919-.0267.0827-.1118.2543-.1894.3821-.0774.1277-.208.3863-.2902.5748-.0821.1885-.1873.4085-.2338.4888-.0562.0971-.1566.2179-.2998.3604-.1743.1734-.2455.2291-.3743.2926-.1396.0688-.1806.0793-.3348.0864-.1547.0071-.1995.0004-.3741-.0557-.109-.0351-.3716-.113-.5834-.1731-.2118-.0602-.4643-.1464-.561-.1917-.0967-.0452-.2816-.1582-.4109-.251-.1292-.0929-.2595-.1846-.2895-.2038s-.0994-.0468-.1543-.0612c-.0549-.0145-.1719-.0743-.26-.1329-.0881-.0587-.2616-.2034-.3855-.3217-.1239-.1182-.3082-.2904-.4096-.3826-.1366-.1242-.2001-.199-.2451-.289-.0334-.0668-.0671-.1715-.0747-.2326-.0114-.0907-.0256-.121-.0774-.1645-.0349-.0293-.1-.0687-.1447-.0877-.0448-.0189-.1727-.0591-.2843-.0894s-.3125-.0869-.4464-.1257-.3098-.1017-.3908-.1397-.2773-.1546-.4363-.259c-.1589-.1044-.5116-.356-.7836-.559-.2721-.2031-.6007-.4381-.7302-.5224-.1524-.0992-.3108-.2261-.4489-.3598-.1174-.1136-.2545-.2342-.3047-.2679-.0503-.0338-.1654-.0996-.2558-.1463-.1294-.0667-.2029-.1244-.3449-.2706-.1045-.1075-.219-.2043-.2719-.2299-.0502-.0243-.137-.0771-.1928-.1173s-.2376-.1984-.404-.3517c-.1664-.1532-.413-.3847-.5479-.5144-.223-.2144-.2903-.2639-.7396-.5443-.2718-.1696-.5766-.3441-.6773-.3877-.1008-.0436-.1853-.0767-.1879-.0735s-.0151.0257-.0278.05c-.0126.0244-.023.0797-.023.123s.0144.1208.0319.1723c.0246.072.088.1508.2759.3428.1342.1372.2896.3018.3454.3658l.1014.1163-.1287-.0118c-.0708-.0065-.1827-.0249-.2486-.0408-.0722-.0175-.1569-.0571-.2131-.0997-.0512-.0389-.1482-.0979-.2154-.131-.0672-.0332-.2453-.0922-.3957-.1313-.1504-.039-.2757-.071-.2785-.0711s-.0051.0431-.0051.096c0 .0642.0194.1368.0582.2178.0422.0881.1147.1775.2638.3256.1131.1123.2056.2126.2056.2231 0 .0104-.1031.08-.2291.1546-.1259.0746-.2482.1565-.2715.182-.0234.0255-.058.0769-.0769.1141-.0188.0373-.0313.0701-.0277.073s.0505.0306.1041.0615c.0796.0459.1132.054.1826.0444.0468-.0065.1764-.0403.288-.0752.1999-.0626.2074-.0633.4972-.0509.1618.0069.3947.0222.5174.034.1228.0118.3446.0519.493.0891.1662.0417.3182.0941.3957.1365.0819.0447.1525.1036.2019.1684.0418.0548.0761.1101.0761.1228.0001.0127-.037.038-.0824.0561-.0493.0197-.1906.0402-.3501.0509-.1666.0111-.3001.0309-.354.0525-.0485.0195-.1222.0751-.1674.1264-.0445.0504-.0809.1062-.0809.1239s.0594.0889.132.1582c.0873.0833.1887.154.2993.2085.1157.057.2418.0981.4083.1331.1325.0279.2848.0695.3384.0926.0537.023.1132.0591.1323.0802.028.0308.0325.0615.0227.1551-.0094.0906-.0035.136.0266.203.0213.0474.0795.1433.1294.213.0499.0698.0968.1509.1041.1803.0074.0294.0028.0734-.0103.0977-.013.0243-.0754.0673-.1387.0954-.085.0379-.173.056-.3381.0698-.1228.0102-.3602.0364-.5276.0582s-.3843.0587-.482.082c-.0976.0234-.1775.0488-.1775.0566s.0479.0499.1064.0935.1567.104.2182.1341c.0614.0301.1601.0647.2192.0769s.1671.0222.2398.0222c.0728 0 .3257.0283.5621.063.3739.0548.4901.0633.8929.0658l.463.0029.0353.1038c.0193.0571.0514.1285.0712.1587.0197.0301.0669.0677.1047.0835s.089.0287.1138.0287c.0247 0 .0827-.0182.1287-.0405.0461-.0223.1745-.1189.2854-.2149.111-.0959.2519-.2086.3133-.2504s.1577-.0993.2139-.1277c.0563-.0284.1545-.0668.2183-.0853.0637-.0185.1297-.0307.1465-.0271.0221.0047.0024.0409-.0709.1301-.0559.068-.1556.1614-.2216.2076s-.1689.1014-.2285.1227c-.0596.0212-.1507.0535-.2024.0717-.0759.0266-.0963.0441-.1056.0908-.0064.0317-.0325.082-.0582.1117-.0338.0392-.0961.0679-.227.1047-.0992.0278-.2316.0766-.2942.1084s-.1778.1032-.2559.1587-.2973.2301-.487.3881c-.1898.158-.3657.3133-.391.3452-.0305.0383-.0385.0625-.0238.0716.0123.0076.138.0198.2794.0272.1414.0073.3895.0068.5514-.0013.1618-.0081.5134-.0425.7812-.0764.2679-.034.5199-.0668.56-.0731l.073-.0113.0132.1717c.0073.0945.0184.185.0245.2011.0062.0161.0341.0397.0619.0523.0278.0127.0715.023.0972.023.0256 0 .113-.0466.1942-.1035s.4047-.3554.7189-.6634c.3141-.3079.6232-.5953.6868-.6387.0831-.0566.1432-.0815.2135-.0882.0748-.0072.1044-.0015.1259.0244.0236.0283.0238.0508.0017.1389-.0144.0578-.0385.1351-.0535.1718-.0222.0542-.0537.0783-.1686.129-.1279.0564-.1499.0752-.2319.1982-.0498.0747-.1408.1901-.2023.2564-.0693.0748-.1674.1509-.2585.2008-.1139.0623-.1924.1294-.352.3007-.1129.1212-.2452.2478-.294.2814-.0671.046-.1032.0926-.1476.1904-.0463.102-.0543.138-.0374.1695.0118.022.0417.0398.0664.0397s.258-.0267.5185-.059c.4022-.0499.4862-.055.558-.0343.0465.0135.0845.0343.0845.0464s-.0957.2086-.2127.4366l-.2126.4145.0365.1158c.0201.0636.045.1129.0552.1094.0103-.0034.161-.1194.3348-.2577s.3644-.3049.4235-.3701c.0876-.0965.1305-.1263.2315-.1603.0682-.023.1813-.0787.2513-.1237.0701-.045.2507-.2064.4014-.3587.1506-.1523.3359-.3517.4118-.4431.0758-.0914.1443-.1661.1522-.1659.0078.0001.0258.0075.0398.0164.0204.013.0197.0356-.0034.1121-.0158.0527-.0544.1295-.0856.1708s-.3121.3984-.6242.7936c-.5071.6422-.5694.7291-.5855.8174-.0099.0543-.0144.1024-.01.1068.0044.0043.231-.0821.5036-.1921.2725-.11.64-.2604.8166-.3341.1766-.0738.348-.1341.3809-.1341.0459 0 .085.0259.168.1114.099.102.1155.1113.1973.111.0492-.0003.1715-.0219.272-.0482.1004-.0263.3268-.0899.5031-.1414s.3433-.0936.371-.0936c.0278 0 .0834.0137.1236.0305l.0732.0305-.0109.1204c-.0092.1009-.0559.2148-.2881.702-.1524.3198-.2821.6066-.2883.6374-.0082.041.007.086.057.1683.0375.0618.0747.1104.0827.1079.0081-.0024.166-.2004.3509-.4399s.3894-.513.4545-.6077.1461-.2268.18-.2937c.0339-.0668.0922-.1501.1295-.185s.1526-.1056.2563-.157.1927-.0935.1979-.0935c.0051 0 .0093.0101.0093.0223 0 .0123-.0377.1148-.0838.2279-.046.1131-.0961.2512-.1113.3069s-.0277.1331-.0278.1721.0089.1033.0199.1427c.011.0396.0328.0893.0484.1107.0269.0367.036.0312.1676-.1022.0918-.093.19-.2258.2884-.39.0821-.137.1871-.2965.2334-.3545l.0841-.1055.0134.1013c.0074.0557.0143.162.0152.2363.0015.1088-.0136.1781-.0778.3569-.0438.1219-.1114.3483-.1504.503-.0389.1546-.0947.4224-.124.5951s-.0619.4233-.0724.557-.0193.3042-.0195.3789c-.0003.0746.0101.159.023.1873.0179.0392.0387.0516.0868.0516.0348 0 .0829-.0137.107-.0305.024-.0168.0622-.0799.0848-.1402s.0742-.3034.1147-.5402c.0405-.2369.0952-.5051.1216-.596s.1023-.2836.1688-.4284c.0664-.1447.1843-.4493.262-.6767.0777-.2275.1529-.4637.1671-.525s.0395-.1387.0563-.1722c.0168-.0334.0556-.0926.0862-.1316.0307-.039.1205-.1993.1997-.3561.1183-.2345.1633-.303.2533-.3849.0602-.0548.1324-.1152.1604-.1342.0322-.0218.0785-.1002.1255-.2127.0409-.0979.098-.2145.1269-.2591s.1478-.2154.2643-.3795c.1166-.1642.2185-.3026.2265-.3076.0081-.005.0265-.0017.0409.0072.0204.0125.0049.0696-.0681.2517-.0519.1295-.1479.4429-.2134.6964-.0655.2536-.1425.5284-.1711.6107-.0286.0824-.0658.2165-.0827.298-.0213.1032-.0306.2705-.0306.5518v.4036l.0617.0091c.034.005.0659.0024.0709-.0056.005-.0081.0808-.2322.1685-.498.0902-.2733.3054-.8396.4956-1.3036.1849-.4512.368-.8942.4069-.9845.0561-.1302.1645-.2879.5223-.7596.2484-.3275.5427-.7074.6539-.8442.1797-.221.2253-.2639.4078-.3829.113-.0738.2664-.1921.3409-.263.0749-.0714.1843-.1513.245-.1791.0602-.0275.1545-.0584.2095-.0685.055-.0102.2004-.0247.3232-.0321.1228-.0075.3191-.0306.4363-.0514.1172-.0207.2724-.0432.3449-.0499.0726-.0067.2004-.0025.2841.0094s.2298.045.3247.0735c.0949.0286.3027.1027.4619.1648.2811.1095.2917.112.3713.0858.0451-.0149.0876-.0361.0944-.0472.0069-.0111-.0582-.0877-.1445-.1704-.0964-.0922-.2015-.1708-.2722-.2035-.0849-.0393-.1486-.0535-.242-.054-.1166-.0005-.1269-.0041-.1269-.0446 0-.0371.0182-.0482.1124-.0693.0877-.0196.1467-.0199.2689-.0013.086.0131.2077.0237.2702.0237.0683-.0001.2792-.0412.5276-.1028.3114-.0772.4365-.0999.5052-.0917.0502.006.1566.0168.2364.0241.1109.0101.1717.0049.2587-.0225.0625-.0196.1753-.0718.2506-.116.0848-.0498.1988-.0948.2993-.1181.0893-.0207.3291-.0705.533-.1106.2038-.04.4367-.0953.5174-.1227.0808-.0273.2543-.1139.3856-.1922s.2774-.16.3246-.1814c.0525-.0237.1318-.0391.2035-.0394.0806-.0003.1443.0132.2029.0429.047.0238.1416.0832.2103.132.0686.0488.1521.0982.1854.1098.0463.0161.078.0139.1339-.0094.047-.0196.0733-.0441.0733-.0683 0-.0208-.0274-.1187-.0609-.2175-.0377-.1113-.0609-.2212-.0609-.2884 0-.0597.0129-.1335.0287-.164.0158-.0304.0732-.096.1275-.1458.0544-.0498.2127-.1872.3518-.3053.1392-.1182.4082-.3624.598-.5427.1897-.1803.4349-.3936.545-.4739.11-.0803.3017-.2289.4261-.3303.1243-.1014.2946-.2281.3783-.2816.0837-.0534.2207-.1486.3044-.2115s.221-.1567.3052-.2084c.0842-.0518.206-.1496.2708-.2174.0773-.081.1136-.1341.1057-.1548-.0067-.0173-.0121-.0581-.0121-.0906 0-.0573-.003-.0591-.1001-.0591-.0906 0-.1125.0101-.2311.1063-.072.0585-.2144.177-.3165.2633-.1021.0864-.1976.157-.2123.157-.0146 0-.0426-.0176-.0621-.0392-.0207-.0228-.0292-.0504-.0203-.0658.0084-.0147.0599-.0875.1144-.1618.0545-.0744.1859-.3013.2921-.5043s.2206-.4091.2543-.4579c.0337-.0489.0854-.141.115-.2047.0404-.087.054-.1485.0544-.2475.0004-.0805-.0139-.169-.0366-.228-.0205-.0529-.0451-.0915-.0546-.0856-.0096.0059-.0792.0994-.1547.2078-.0755.1083-.3055.4249-.5111.7034-.2057.2785-.4693.6274-.5859.7753-.1625.2059-.2363.2827-.3157.3279-.0569.0325-.1681.0736-.2469.0915-.0789.0178-.1799.0575-.2246.0881-.0446.0306-.1299.1237-.1894.2068-.0596.0831-.1463.1767-.1928.2081l-.0845.0571-.0055-.3964c-.003-.2179-.0101-.3963-.0158-.3963s-.0645.0273-.1307.0607c-.0662.0333-.1293.0772-.1402.0976-.0109.0203-.0756.2003-.1439.4001-.0682.1998-.1814.4817-.2515.6265-.0754.1557-.1682.3119-.2272.3823-.0549.0654-.1446.1681-.1994.2282-.0644.0706-.1466.1323-.2324.1745-.122.0599-.1505.0655-.3532.0696l-.2205.0044-.2306.1533c-.1268.0843-.2609.1658-.2979.1812-.0371.0154-.2125.0564-.3899.0912-.1773.0348-.3919.091-.4768.1249-.085.034-.1968.0878-.2487.1196-.0518.0318-.1358.0895-.1867.1283-.0508.0388-.1427.0942-.2041.1232-.0615.029-.1875.0703-.2801.0918-.0925.0215-.3372.0636-.5437.0937-.314.0456-.4185.0527-.6392.0435-.188-.0079-.3221-.0261-.4667-.0633-.1116-.0288-.3051-.0896-.43-.1352s-.3553-.1454-.5118-.2217c-.1566-.0763-.3512-.1773-.4324-.2244s-.2096-.1261-.2852-.1756c-.0944-.0618-.1651-.1289-.2255-.2144-.0484-.0684-.2116-.3659-.3626-.6611-.1511-.2952-.309-.6234-.3509-.7292-.0752-.1898-.0765-.1978-.0954-.593-.0158-.3279-.0143-.4066.0082-.4336.015-.0181.0585-.046.0966-.0619l.0693-.0289.7221.7197c.3972.3958.783.768.8574.827.0743.0591.2048.1872.2899.2847.095.1089.1955.2007.2605.2379.0581.0334.1651.0828.2376.1098.0726.027.2385.0829.3688.1242.151.0478.2553.0705.2874.0624.0278-.0069.0789-.0483.1135-.092.0346-.0436.1112-.1064.1701-.1397.059-.0332.1799-.115.2686-.1818s.2857-.2396.4377-.384.3635-.3317.4699-.4163.2162-.1839.244-.2207c.0277-.0369.0891-.1445.1365-.2392.0473-.0947.1254-.2223.1735-.2835.0481-.0613.1104-.1616.1384-.2229.028-.0612.0658-.166.0841-.2329.0233-.0848.0366-.2438.0441-.5266.0088-.3267.0048-.4286-.0206-.5267-.0172-.0668-.0773-.2195-.1334-.3392s-.1739-.3294-.2617-.4659c-.0879-.1365-.1834-.2892-.2123-.3393s-.0785-.1155-.1102-.1454c-.0316-.0298-.1032-.0769-.159-.1047s-.1778-.0649-.2711-.0825c-.0934-.0176-.2554-.032-.3602-.032s-.1906-.0041-.1906-.0091.0427-.0984.0948-.2075c.0924-.1935.1049-.2087.515-.6238.3141-.3181.4342-.4537.4754-.5369.0414-.0837.1445-.1998.4138-.4659.1973-.195.4352-.4528.5287-.573.0934-.1202.2619-.3059.3744-.4126.1953-.1854.2194-.2013.5398-.3557.1844-.0889.3901-.2005.4571-.248.0669-.0474.1602-.1058.2071-.1296.047-.0238.1183-.0433.1583-.0433.0401 0 .0975.0129.1277.0286.0301.0158.0862.0614.1247.1013.0507.0527.0869.0725.1319.0722.0341-.0003.1167-.0231.1837-.0506s.1475-.0501.1789-.0501c.0314-.0001.0739.0088.0943.0197.0205.011.1483.2047.284.4305s.2908.4603.3446.5212c.0888.1005.1022.1087.1459.0888.048-.0218.048-.0224.0352-.2828-.0071-.1436-.0331-.3592-.0579-.4792-.0419-.2033-.0427-.2215-.012-.2683.0181-.0277.0431-.0503.0555-.0503s.0599.0112.1054.0248c.0534.0159.1323.0713.2215.1552.0762.0718.1879.2047.2484.2953.0604.0907.1373.2292.1708.3078s.0845.224.1133.323c.0288.0991.0752.2941.1032.4333.028.1393.0823.3754.1207.5248s.0722.274.0751.2768c.0029.0029.0295.0114.059.0188.0502.0126.0566.0059.0997-.1047.031-.0798.0453-.1577.0439-.2397-.0011-.0668-.03-.3034-.0642-.5256-.0342-.2223-.0622-.4509-.0622-.5081s.0056-.1095.0125-.1164c.0068-.0068.1081.0988.2251.2346.117.1359.2713.3246.3429.4193.0716.0946.1662.245.2102.3342.0441.0891.103.2416.131.339.0481.1672.0824.2241.62 1.0288.313.4685.5998.9129.6373.9877.0375.0747.1068.2407.1539.3688s.1714.4061.2763.6178c.1079.2179.2117.4595.2394.557.0268.0947.0634.2588.0813.3646s.0408.3273.051.4921c.0113.1822.0112.3841-.0001.5149-.0103.1184-.0366.3026-.0585.4093-.0218.1067-.0716.3079-.1107.4472-.039.1392-.1129.4029-.1641.5859-.065.2322-.1324.4159-.2232.6077-.0715.1512-.1582.3696-.1925.4853-.0344.1158-.0816.2477-.1048.2931-.0232.0455-.0614.1085-.0848.1401s-.1218.1161-.2187.1878c-.0969.0718-.2257.1875-.2863.2572-.0605.0697-.1397.1705-.1759.2239-.0363.0535-.0981.1538-.1375.2229-.0393.069-.1529.2979-.2522.5087-.0994.2107-.2278.4614-.2853.557s-.1952.3127-.306.4824c-.1319.2021-.2347.3883-.2979.5394-.0531.1269-.1276.2739-.1656.3267-.0379.0528-.1414.1589-.2299.2358-.0886.0769-.1673.1328-.175.1242-.0077-.0085-.0553-.1402-.1059-.2927l-.0919-.2771.0399-.1482c.035-.1297.0371-.1652.0168-.2835-.0135-.0786-.0553-.1976-.0996-.2836-.042-.0816-.1613-.2846-.2652-.4513-.104-.1667-.2205-.3718-.259-.4558s-.0794-.1724-.0908-.1965c-.0114-.0242-.0381-.0484-.0593-.0539-.0212-.0056-.07-.0015-.1084.0091s-.0744.0267-.08.0358.0393.1249.0999.2575c.0605.1325.1335.3224.1621.4219.0286.0996.0705.2819.0932.4051.0266.145.0453.3565.0527.5989.0064.2061.0015.5956-.0108.8656-.0213.4683-.0252.4982-.0826.6482-.0331.0865-.0929.2484-.1328.3598s-.0817.2421-.0928.2904c-.0111.0484-.047.1213-.0796.1621-.0327.0408-.083.1258-.1119.1889-.0288.0631-.0656.177-.0818.2532-.0161.0761-.0295.167-.0297.2019-.0002.0419-.0327.1107-.0954.2026-.0523.0764-.1777.2529-.2786.392-.1009.1392-.2379.3169-.3043.395-.0665.0781-.3269.3502-.5788.6048-.2518.2545-.5538.54-.671.6343-.1172.0944-.3181.2427-.4464.3296-.1284.0869-.3704.2426-.5378.3461-.1674.1034-.3591.2248-.4261.2697-.067.045-.276.2036-.4646.3527-.1886.149-.3941.3055-.4566.3479-.0625.0423-.1913.1186-.2862.1695-.0948.0509-.3596.1809-.5884.289-.2288.108-.5176.24-.6418.2932-.1721.0738-.2683.102-.4046.1186-.1259.0154-.2181.0408-.3116.0858-.0959.0461-.1807.069-.3056.0824-.0951.0102-.2277.0324-.2946.0493-.067.0169-.1975.0707-.2901.1196-.1575.0832-.1833.0902-.4058.1101-.1307.0116-.3243.0346-.4303.051-.1061.0164-.2934.03-.4164.0302-.1657.0003-.263-.0106-.3754-.0419-.1145-.0319-.1843-.0394-.2837-.0307-.0726.0063-.2159.0175-.3184.0247-.1209.0085-.2206.0046-.2831-.0111-.053-.0133-.2111-.0683-.3512-.1221s-.3277-.1124-.417-.1301c-.1359-.0271-.2897-.0948-.9436-.4158-.4297-.2109-.8944-.4265-1.0328-.479-.2034-.0774-.2721-.1143-.3596-.1934-.0595-.0537-.1472-.1186-.1949-.144-.0758-.0404-.1152-.0461-.31-.0452-.1922.0008-.25.0096-.416.0633-.106.0343-.2841.0768-.3957.0944-.1116.0177-.3353.0508-.4972.0735-.1618.0228-.3653.0636-.4522.0906-.1438.0448-.1642.0466-.2266.0206-.0377-.0157-.1949-.0377-.3493-.0489s-.4999-.0345-.7677-.0519c-.2679-.0174-.624-.0456-.7914-.0628-.1674-.0171-.3637-.0429-.4363-.0572-.0725-.0143-.3739-.0995-.6696-.1893-.2958-.0897-.638-.2052-.7606-.2566-.1225-.0514-.3189-.1443-.4363-.2066-.1174-.0622-.3002-.1696-.4062-.2386s-.2781-.197-.3825-.2844c-.1043-.0874-.276-.2574-.3815-.3776-.1055-.1203-.2498-.2715-.3206-.336s-.1796-.1479-.2418-.1853c-.0622-.0373-.1705-.091-.2406-.1193s-.2324-.0725-.3607-.0982c-.1284-.0257-.2867-.0652-.3518-.0877-.0651-.0226-.1701-.0703-.2334-.106-.0632-.0357-.1842-.1339-.2688-.2182-.0847-.0843-.1852-.2072-.2235-.273-.0621-.1068-.0808-.1235-.1751-.1555-.058-.0197-.1449-.0628-.193-.0959-.0481-.033-.1239-.0997-.1685-.1483-.0447-.0486-.1328-.1566-.1958-.2402-.063-.0835-.1958-.2446-.2951-.3578s-.3215-.3847-.4937-.6031c-.2375-.3013-.3246-.4278-.3603-.5233-.0259-.0694-.073-.2263-.1045-.3489-.0316-.1225-.0725-.3094-.091-.4152-.0185-.1059-.0422-.4111-.0527-.6786-.0106-.2673-.0336-.6631-.0513-.8794s-.0261-.426-.0188-.4659.0356-.111.063-.1581c.0291-.05.0862-.1069.1376-.1369.0561-.0328.1407-.058.2344-.0697.0891-.0112.1619-.0322.1857-.0537.0215-.0194.0488-.0715.0607-.1157.0133-.049.0144-.0876.003-.099-.0103-.0103-.2004-.0964-.4225-.1913s-.5035-.2222-.6253-.2829-.2989-.1617-.3935-.2246c-.0946-.0628-.2258-.1652-.2915-.2275-.1185-.1123-.1198-.1148-.1492-.2847-.0163-.0943-.0439-.272-.0613-.395s-.0317-.3557-.0316-.5173c.0001-.1615.0141-.4486.0313-.638.0171-.1894.0312-.4446.0312-.5671.0001-.1226-.0091-.3049-.0202-.4052-.0112-.1002-.0392-.2461-.0622-.324-.0231-.078-.0911-.2284-.1511-.3343-.0601-.1058-.1233-.2467-.1405-.3131-.0189-.0726-.0313-.2059-.031-.3342.0002-.1174.009-.3463.0196-.5085.0105-.1623.0422-.4043.0705-.5379.0282-.1335.0649-.2879.0814-.343.0166-.0551.0626-.1456.1023-.201.0531-.0741.1072-.2085.2037-.5064.0723-.2231.1689-.5084.2148-.6341.0458-.1256.1171-.2806.1584-.3443.0539-.0832.1037-.1313.1768-.171.056-.0303.1258-.0791.155-.1082.0293-.0292.0806-.1017.1142-.161.0336-.0594.0922-.1317.1304-.1608s.1265-.1323.1962-.2294c.0698-.0972.1584-.245.1969-.3286.0385-.0835.1098-.2157.1584-.2937.0485-.078.1209-.2105.1608-.2946.0399-.084.09-.2299.1113-.324.0213-.0943.0577-.2807.0808-.4144.0232-.1337.0658-.3661.0947-.5165.0503-.2619.052-.2931.0395-.7393-.0119-.4222-.0095-.4773.0251-.5874.021-.0669.1502-.3221.287-.5672.1369-.2451.2822-.4802.3231-.5224.05-.0518.1073-.0859.1758-.1046.0558-.0152.1243-.0328.1522-.039s.1219-.0519.2089-.1015c.0869-.0497.2878-.1463.4464-.2147s.3477-.1599.4202-.2032c.0726-.0434.2963-.1462.4972-.2285s.4373-.1829.5254-.2236c.088-.0407.2031-.1067.2556-.1467s.1323-.1288.1775-.1975c.0451-.0686.2598-.4347.4771-.8135.2172-.3788.4629-.7889.5458-.9115.0829-.1225.1866-.3048.2305-.4051.0438-.1002.1028-.22.1311-.2662.0283-.0461.1336-.1827.2341-.3034.1004-.1208.2283-.2641.2841-.3185s.2013-.1893.3234-.2997c.1387-.1256.268-.2231.3449-.2601.0677-.0327.193-.0733.2785-.0904.1006-.0201.2977-.0329.5581-.0363.2214-.0029.608-.002.8591.0021.4065.0065.4756.0028.6304-.0342.0956-.0229.2463-.0701.3348-.105.0886-.0349.2614-.116.3842-.1801.1228-.0642.309-.1698.4138-.2346.1262-.078.2735-.1972.4363-.3531.1351-.1295.2822-.2636.3268-.2982.0447-.0346.127-.0859.183-.1141s.1428-.0622.1928-.0756c.0715-.0192.1214-.0562.233-.1725.1393-.1453.1475-.1502.4261-.2593.1563-.0612.4162-.1535.5775-.2051.1614-.0515.4034-.1159.5378-.143.1344-.027.3402-.0621.4574-.0778.1172-.0158.2735-.0298.3475-.0311.0739-.0013.1725.011.2192.0275zm-3.3744 4.2129c-.0431.0153-.1107.0508-.1503.0789-.0394.028-.1985.2042-.3534.3915-.2167.2618-.2886.3636-.3114.4404-.0164.0549-.0298.1285-.0298.1634s.0137.1096.0305.1659c.0178.0601.0619.1364.1065.1848.0418.0454.6468.5546 1.3443 1.1316.6976.577 1.3139 1.072 1.3697 1.1.0751.0377.1335.0509.2249.0509.0891 0 .1535-.0141.232-.0507.0933-.0435.1479-.0975.389-.3848.1543-.1838.3008-.3752.3255-.4254.0282-.057.0479-.1411.0528-.2248.0057-.0985-.0015-.1517-.0272-.2025-.0193-.0379-.0499-.0858-.0681-.1065s-.067-.0549-.1084-.076c-.0472-.024-.1174-.0383-.1883-.0383-.0796 0-.1416.0145-.2088.0488-.0527.0269-.1277.0823-.1668.1233-.039.041-.1049.0919-.1463.1132-.0477.0246-.1168.0388-.1885.0388-.073 0-.1414-.0144-.1924-.0404-.0436-.0222-.102-.0702-.13-.1068-.0279-.0365-.0603-.1089-.0719-.1608-.0117-.0519-.0155-.1246-.0084-.1616.007-.037.0265-.0946.0433-.128s.0509-.0881.0758-.1215.0565-.096.0703-.139c.0139-.043.0211-.1277.016-.1881-.0065-.0783-.0261-.1343-.0685-.1952-.0341-.0491-.0978-.1048-.1497-.1309-.0587-.0297-.126-.0455-.1925-.0452-.0562.0003-.1388.0173-.1834.0378-.0446.0206-.1277.0823-.1846.1372-.061.059-.1368.1099-.1849.1243-.0449.0134-.1217.0242-.1706.0239-.0489-.0002-.1255-.017-.1701-.0373-.0447-.0203-.1143-.0736-.1548-.1185-.0405-.0448-.0849-.1156-.0987-.1573s-.0211-.124-.0162-.1829c.0067-.0806.0307-.1431.0972-.253.0665-.1098.0905-.1723.0972-.253.0049-.0588-.0021-.1402-.0154-.1807-.0135-.0405-.0476-.1012-.076-.1348-.0283-.0336-.0865-.079-.1293-.1008-.0429-.0218-.1168-.0392-.1649-.0387-.0478.0005-.1223.0134-.1654.0288zm12.3348 1.1848c-.0781.0205-.2014.0598-.2739.0872-.0726.0274-.1996.0838-.2823.1253-.0826.0416-.2211.1199-.3078.1741-.0866.0542-.2746.1814-.4178.2826s-.2635.1928-.2672.2035c-.0037.0108.0419.0422.1015.0699.0595.0277.1311.0502.159.0501s.124-.0303.2136-.0671c.0895-.0368.2294-.1058.3108-.1533.0814-.0474.2364-.1529.3445-.2343.108-.0814.3037-.2409.4348-.3545.1312-.1135.2385-.2102.2385-.2148s-.0252-.0079-.0558-.0073c-.0307.0006-.1198.018-.1979.0386zm-27.6939.6084c-.0283.0222-.097.102-.1525.1772s-.1975.3071-.3156.5152-.2607.47-.317.5819c-.0562.1118-.1491.3198-.2063.4621-.0572.1424-.1488.391-.2036.5525-.0547.1615-.1168.3621-.1381.4456-.0212.0836-.0617.3034-.0899.4886-.0355.2326-.0743.4016-.1254.5469-.0408.1156-.1137.3242-.1621.4634-.067.1932-.096.3179-.122.5264-.0204.1632-.0298.3368-.0233.4312.0064.0936.024.1779.0432.2071.0197.0301.0442.0448.0628.0377.0167-.0064.0572-.0679.0901-.1367.0329-.0687.1048-.2614.1599-.4282.055-.1668.1241-.4185.1534-.5593.0294-.1408.0892-.3823.1329-.5367.0437-.1545.1672-.5315.2744-.8378.1072-.3064.2552-.712.3289-.9014.0736-.1894.2002-.5403.2812-.7798s.2168-.6103.3017-.824c.0849-.2136.1544-.4073.1544-.4304 0-.0274-.0131-.0419-.0378-.0419-.0208 0-.061.0181-.0893.0404zm37.127.0099c-.0064.0166-.0004.0781.0134.1368.0136.0586.0749.2478.136.4205.061.1727.1822.4644.2692.6482.0871.1838.2176.4983.2901.6988s.2054.5924.2953.871c.0898.2785.2006.6319.2461.7853.0456.1535.1233.3877.1729.5206.0495.1329.1595.4767.2443.7641.0849.2875.1683.5442.1854.5706.0279.0431.0342.0447.0623.0167.0171-.0171.039-.0797.0486-.1391.0103-.0639.009-.1905-.003-.3104-.0112-.1114-.0469-.3849-.0794-.6077-.0324-.2229-.0834-.5146-.1134-.6482-.0299-.1336-.0856-.3459-.1237-.4716s-.1201-.3718-.1823-.5469c-.0621-.175-.1612-.4094-.2201-.5208-.059-.1114-.1536-.2892-.2102-.395-.0667-.1246-.1536-.3457-.2463-.6268-.1023-.3102-.173-.4869-.2472-.6178-.0571-.1009-.1431-.2386-.1909-.306-.0479-.0674-.1244-.1563-.1701-.1975s-.1016-.0749-.1242-.0749c-.0227 0-.0464.0136-.0528.0301zm-11.4673.734c-.0501.0062-.0796.0284-.1235.093-.0318.0466-.0966.1504-.144.2307s-.0804.1552-.0734.1666c.007.0113.0486.0302.0924.042.0612.0164.0949.0149.1462-.0068.0367-.0155.0823-.0457.1015-.0672.019-.0214.0494-.074.0673-.1169.0179-.0428.0379-.1405.0443-.217.0094-.1118.0062-.1384-.0166-.1358-.0156.0018-.058.0069-.0942.0114zm.89.0563c-.0489.0152-.1205.0579-.159.0948-.0385.037-.088.102-.11.1445-.022.0426-.0452.122-.0517.1764l-.0117.0991.0788-.0115c.0434-.0062.1427-.0241.2209-.0395.0781-.0155.1648-.0449.1927-.0654.0282-.0207.0654-.0814.0836-.1368.0181-.0548.0389-.125.0462-.156.0122-.0515.0058-.06-.0734-.0958-.0477-.0216-.0959-.0389-.1071-.0384-.0111.0005-.0603.0133-.1093.0286zm1.408.1104c-.0781.0437-.4205.2476-.7609.4531-.3536.2134-.6218.388-.6257.4072-.0037.0185.0283.0879.071.1541.0428.0663.0835.1206.0905.1207s.0185-.029.0256-.0646c.0072-.0356.0268-.0858.0436-.1114.0208-.0317.0503-.0467.0921-.0467.0337 0 .0873.0134.1191.0298.055.0284.0619.0267.1468-.0381.049-.0374.1756-.111.2812-.1637s.2651-.1396.3544-.1932.2188-.1485.2878-.2109.1443-.144.1674-.1812c.0231-.0373.0419-.0866.0419-.1095s-.024-.0606-.0534-.0837c-.0295-.0231-.0728-.0419-.0964-.0417-.0236.0001-.1069.036-.185.0798zm-16.4572 1.9411c-.0559.0195-.1655.0778-.2435.1295-.0779.0518-.2124.1544-.2987.2279-.0864.0736-.2036.1997-.2606.2803s-.1475.2332-.201.3392c-.0536.106-.1115.2403-.1288.2982-.0202.0681-.0256.1255-.0151.1619.0089.0311.0413.1065.072.1677.0306.0612.1056.1779.1666.2594.061.0816.1673.2048.2362.2738.069.0691.5299.4399 1.0243.8241.4944.3841.9829.7561 1.0856.8265s.2495.1649.3262.21l.1396.0819.1648-.0143c.0906-.0079.193-.0261.2275-.0405s.1617-.1343.2827-.2666c.121-.1322.2604-.295.3097-.3617.0493-.0668.1269-.1853.1726-.2633s.1143-.2185.1525-.3121c.0575-.1408.0674-.1861.057-.2619-.0069-.0504-.0454-.1516-.0855-.2248-.04-.0732-.1105-.1833-.1564-.2446-.046-.0612-.1205-.1515-.1655-.2005s-.1184-.1058-.163-.1262c-.0447-.0203-.1131-.037-.1522-.037s-.1121.0186-.1623.0413c-.0503.0226-.1221.0703-.1598.1059-.0376.0355-.0947.1193-.1268.1862-.0378.0786-.0584.1539-.0584.2132 0 .0504.0131.1104.0292.1333.016.0229.0798.0806.1417.1282l.1125.0867-.1602.2054c-.0881.113-.1733.2044-.1893.2031-.016-.0012-.4209-.3056-.8997-.6763-.4789-.3707-.9097-.7113-.9575-.757-.0477-.0456-.1093-.1282-.1369-.1834-.0276-.0553-.0501-.1238-.0501-.1522 0-.0285.0171-.0791.038-.1125s.0688-.0956.1065-.1381l.0685-.0774.1113.0832c.0612.0458.1328.0886.159.0952.0264.0066.0821.0018.1239-.0107.0419-.0125.1133-.0497.1588-.0826.0454-.0328.1094-.099.1421-.147s.07-.1182.0829-.1561c.0129-.0378.0234-.1108.0232-.162-.0002-.059-.017-.122-.0457-.1717-.031-.0537-.0914-.1063-.1915-.1668-.0804-.0486-.2219-.1194-.3145-.1573-.0926-.038-.1957-.0744-.2292-.0809-.0357-.007-.103.0027-.1627.0234zm10.7573.1152c-.0434.0155-.1165.0646-.1623.1091-.0547.0532-.1388.1029-.2443.1445-.0885.0349-.222.099-.2967.1425-.0746.0436-.1848.1171-.2449.1635-.06.0464-.1822.1553-.2715.2421s-.208.1842-.2638.2164c-.0558.0323-.1229.09-.1491.1282-.0407.0595-.0461.0868-.0372.1884.0057.0653.018.1259.0273.1346.0094.0088.1075-.0513.2182-.1334s.2933-.2298.4058-.3283c.1126-.0984.2499-.2131.3052-.2547s.1557-.102.2232-.1341.1912-.0806.2749-.1079c.0837-.0272.3148-.093.5135-.1462s.3836-.1143.4109-.1357c.0357-.028.0496-.0588.0496-.1097 0-.0389-.0095-.0884-.021-.11-.0195-.0362-.0449-.0391-.3399-.0382-.2184.0006-.3438.0097-.3979.0289zm-.4587 1.0476c-.0614.0463-.2167.1664-.345.2669-.1284.1005-.2369.1853-.2412.1883s.0037.0331.0177.0669.0316.0614.0391.0614c.0074 0 .0679-.0141.1343-.0314.0664-.0172.1665-.0601.2224-.0952s.177-.119.2692-.1864c.1218-.089.1792-.1463.2103-.2096.0235-.0479.0394-.0899.0354-.0932-.0041-.0034-.0385-.0166-.0764-.0294-.0379-.0127-.0882-.0231-.1116-.0229-.0235.0002-.0929.0382-.1542.0846zm-.2537.7151c-.558.2607-1.0302.4834-1.0493.4949-.0316.0191-.0321.0294-.0055.1174.016.0531.0453.1087.0651.1235.0223.0168.0707.0239.1277.0187.0676-.0061.2815-.1019.8117-.3636.396-.1954.7888-.4006.873-.456.1364-.0897.1591-.1141.208-.2229.0302-.0672.0549-.1314.0549-.1427 0-.0114-.0144-.0262-.0321-.0329-.0176-.0068-.0336-.0119-.0355-.0114-.0018.0005-.46.2143-1.018.475zm-4.1903 1.557c-.0837.0369-.2204.1016-.3038.1438-.0833.0421-.2085.1125-.2781.1564s-.1732.1307-.2301.1929c-.057.0622-.193.2325-.3023.3785s-.2513.3426-.3156.437c-.1156.1699-.1167.1728-.1038.2826.0072.061.0165.1142.0206.1183.0041.0042.0523-.0152.1072-.0429.0739-.0374.1335-.0942.2301-.2192.0717-.0927.2027-.244.2911-.3362s.2255-.2149.3046-.2727.2077-.1567.2859-.2197c.0781-.0631.2653-.2258.4159-.3616.1507-.1359.2768-.2547.2801-.264.0034-.0094-.0404-.027-.0974-.0392-.0569-.0122-.1144-.0219-.1278-.0216-.0135.0003-.0929.0307-.1766.0676zm.1826.7146c-.0167.0055-.0648.0244-.1069.0422-.0535.0225-.1546.1208-.337.3278-.1434.1625-.4135.4732-.6003.6905-.1868.2172-.3466.4132-.355.4354-.0084.0223-.0214.0656-.0288.0963-.0118.0486-.0075.0557.0337.0557.0276 0 .076-.0302.117-.073.0385-.0402.1857-.1678.3272-.2837.1414-.1158.3697-.3309.5073-.478.1375-.1471.3254-.3468.4175-.4439.1352-.1426.1674-.1885.1674-.2389 0-.0355-.0176-.08-.0406-.103-.0223-.0222-.0475-.0397-.0558-.0389-.0084.0009-.0289.0061-.0457.0115zm21.7742.4109c-.0116.0215-.0362.1013-.0547.1772-.0247.101-.0335.228-.0331.4724.0004.1838.0115.4116.0248.5063s.0407.2375.0609.3173c.0203.0797.054.18.0749.2228.0242.0495.052.0777.0766.0777.0263 0 .0469-.024.0648-.0757.0144-.0417.0359-.1621.0477-.2676s.0212-.2947.021-.4205-.0132-.3244-.0288-.4414c-.0156-.1169-.0428-.2745-.0604-.3502-.0175-.0756-.0459-.1645-.063-.1975-.0182-.0351-.0473-.0599-.0704-.0599-.0217 0-.0488.0176-.0603.0391zm-21.038.079c-.0254.0344-.0914.0774-.1613.1051-.0651.0259-.1435.0644-.1744.0857-.0309.0212-.0697.0648-.0863.0968-.0165.032-.0301.0734-.0301.0921 0 .0293.0147.0321.1062.02.0585-.0078.1511-.0384.2059-.0682.0547-.0298.1209-.0863.1469-.1256.0261-.0393.0532-.1001.0601-.135.007-.0349.0045-.0782-.0056-.0962-.0158-.0282-.0244-.0246-.0614.0253zm-20.4554.0692c-.0113.014-.0344.0664-.0513.1166-.0168.0502-.0475.1778-.0681.2836-.0299.1535-.0374.2884-.0374.6683.0001.3997.0059.4948.0364.5934.0199.0646.051.1231.069.13.0205.0078.0467-.0047.07-.0333.0205-.0253.0561-.1066.0791-.1807s.056-.2258.0732-.3372c.0235-.1525.0286-.2952.0204-.5773-.0062-.213-.023-.4228-.0389-.4861-.0154-.0613-.0391-.132-.0527-.157-.0135-.0251-.0369-.0456-.0519-.0456-.0149 0-.0365.0114-.0478.0253zm27.2878.1554c.0611.0248.1723.0858.2471.1354s.1995.1582.2772.2412c.094.1004.1717.2105.2322.3286.0501.0976.1102.2368.1337.3092s.0567.1983.0736.2798c.017.0815.0307.2182.0306.3038-.0002.0856-.0138.2126-.0302.2822-.0164.0695-.0586.1854-.0938.2573-.0352.072-.1106.1854-.1677.2521-.057.0666-.3594.3465-.6719.6218s-.6038.5265-.6473.5583c-.0497.0361-.1045.0576-.1471.0576-.0408 0-.0841-.0161-.1084-.0403-.0222-.0222-.1237-.2067-.2256-.4102-.1018-.2034-.2333-.4438-.2921-.5341-.0588-.0904-.1695-.2305-.246-.3114-.0764-.0809-.2258-.2087-.332-.2839s-.2802-.213-.3868-.3064c-.1065-.0933-.2581-.2272-.3368-.2976-.1205-.1078-.1415-.1361-.1332-.1793.0054-.0282.0408-.0822.0786-.12s.1074-.0882.1545-.112.1816-.1091.2988-.1895.277-.1811.3551-.2238.2607-.1518.4058-.2424.314-.1931.3754-.2277.1618-.0826.2232-.1067.1573-.0566.2131-.0723c.07-.0197.18-.0264.3551-.0217.205.0054.275.0154.3649.052zm-.6794.3799c-.0223.0049-.0522.0127-.0663.0174-.0173.0057-.0013.0431.0492.1153.0412.0587.0979.1319.1259.1625s.0609.0557.0731.0557.089.032.1708.0711.2498.1411.3733.2265c.1616.1118.2607.1654.353.191.0923.0255.1284.0287.1284.0115 0-.0132-.0235-.0942-.0521-.1801l-.0521-.1562-.3791-.2112c-.2086-.1162-.4268-.2351-.485-.2642-.0582-.0292-.1267-.0519-.1522-.0506s-.0646.0063-.0869.0113zm-7.3255.2595c-.0781.0241-.1712.0591-.2069.0777-.0356.0186-.2604.2413-.4995.4947-.239.2535-.4636.4944-.499.5354-.0355.041-.0874.1309-.1155.1998-.028.0689-.0465.1297-.041.1351.0054.0055.063-.0142.1279-.0436.082-.0373.1737-.1081.3006-.2322.1005-.0982.2549-.2276.3433-.2876.0884-.0599.1877-.1455.2206-.1902.0329-.0446.072-.1095.0869-.1441s.0596-.0914.0993-.1262c.0398-.0348.0982-.0767.1299-.093.0317-.0164.0862-.0623.1212-.1021.0349-.0397.069-.0938.0756-.1201s.009-.0702.0053-.0976l-.0066-.0499zm-9.9638.8153c-.056.0201-.1306.0568-.1657.0818-.035.0249-.084.087-.1087.138-.0366.0754-.0431.1162-.0349.2182.0058.0714.0298.1645.0557.216.0251.0499.0669.119.093.1538.0261.0347.56.5129 1.1864 1.0626.6265.5497 1.168 1.0189 1.2033 1.0425.0354.0237.0954.0537.1333.0666.038.013.102.0236.1424.0236.0403 0 .1047-.0168.143-.0373.0389-.0209.0881-.0723.1112-.1165.0291-.0555.0411-.1156.0402-.201-.0009-.0863-.0168-.1556-.0543-.2375-.0342-.0745-.1135-.1793-.2234-.2951-.0938-.0987-.1903-.2203-.2145-.2702s-.044-.123-.044-.1623c0-.0426.0145-.0845.0358-.1038.0198-.0178.0814-.0426.137-.055.0556-.0125.1467-.0169.2026-.01.0558.007.1517.027.2131.0444.0614.0175.1755.0313.2536.0307.0781-.0005.1825-.0156.232-.0334s.1202-.0555.1573-.0837c.037-.0283.081-.0778.0978-.11.0167-.0323.0302-.0934.03-.1357-.0001-.0423-.0208-.1131-.0459-.1573-.026-.046-.0863-.1054-.1408-.1391-.0664-.041-.5407-.1941-1.5623-.5043-1.2143-.3687-1.4931-.4469-1.6191-.4539-.1123-.0062-.1789.0011-.2541.0279zm14.9872.1648c.0496.032.2277.1938.3956.3595.168.1657.4191.4322.558.5922.139.16.292.3423.3399.4051.048.0628.1322.2069.1871.3201.0663.1364.1206.2205.1614.2495.0338.024.0615.0613.0615.0828s-.0075.0391-.0166.0391c-.0092 0-.0633-.0138-.1203-.0307-.0904-.0268-.1118-.0441-.1689-.1367-.0359-.0583-.1302-.1731-.2095-.2551s-.2721-.252-.4283-.3779c-.173-.1393-.4078-.3583-.6004-.5599-.174-.182-.3544-.3749-.4008-.4284-.0714-.0824-.0844-.1112-.0844-.1864 0-.0633.0102-.0949.0355-.1096.0195-.0113.0725-.0209.1177-.0212.0569-.0004.1102.0173.1725.0576zm-24.4521.0508c-.0101.0265-.0277.1154-.039.1975-.0114.082-.0269.2996-.0345.4834-.0084.203-.0045.4615.01.6583.0131.1783.0374.438.054.5773.0166.1392.052.35.0786.4683.0266.1182.0686.2622.0935.3199.0312.0723.0554.1029.0778.0987.02-.0039.0431-.0455.0597-.1073.0192-.0718.027-.2534.0272-.6277.0001-.3902-.011-.6368-.0429-.952-.0237-.2339-.0611-.5347-.0832-.6684-.0222-.1337-.0551-.2886-.0732-.3444-.018-.0557-.0419-.1126-.0529-.1265-.0111-.014-.0283-.0254-.0384-.0254s-.0266.0217-.0367.0483zm11.0507.9628c.046.0209.0905.0489.0987.0621.0082.0133.0057.0334-.0056.0446-.0113.0113-.0398.0145-.0633.007-.0235-.0074-.0701-.0365-.1035-.0646-.0334-.028-.0608-.0593-.0608-.0695 0-.0101.0114-.0182.0254-.018.0139.0003.063.0176.1091.0384zm30.3636 2.2485c-.0416.0437-.0903.1189-.1081.1671s-.0648.2743-.1045.5024c-.0398.2282-.1086.5791-.153.7799-.0444.2007-.1038.447-.132.5473-.0282.1002-.1338.4369-.2348.7482-.1009.3112-.2229.6667-.2711.7899-.0481.1232-.1418.338-.2082.4773-.0664.1392-.1865.4158-.2668.6145-.0804.1987-.1999.5245-.2657.7239-.0854.2592-.1662.4538-.2829.6819-.0899.1755-.2452.4376-.3452.5825-.1.1448-.2833.4303-.4073.6343-.124.2041-.2962.5049-.3825.6684-.0864.1636-.1908.3502-.2322.4146-.0413.0645-.1563.2285-.2555.3646-.0991.1361-.2871.3659-.4176.5106s-.33.3772-.4434.5165-.3203.4053-.4599.5911c-.1428.1903-.3996.4934-.5879.6941-.1838.196-.4945.5089-.6904.6953s-.5123.4726-.7029.636c-.1907.1634-.5192.432-.73.5968s-.5385.404-.7283.5315c-.1897.1275-.4197.2853-.5111.3506s-.2298.1877-.3075.272c-.0778.0842-.1621.192-.1873.2394-.0277.0521-.0403.1007-.0319.1225.0117.0305.0292.0342.1099.0234.0563-.0076.205-.0667.3598-.1431.1451-.0715.3596-.194.4768-.2721.1172-.0782.3059-.2178.4194-.3104s.3909-.3178.6165-.5004c.2256-.1827.6168-.516.8692-.7407.2524-.2248.5968-.5538.7654-.7313.1685-.1775.4013-.4244.5174-.5487s.38-.3848.5865-.5787c.2064-.194.4218-.4068.4785-.4728.0568-.0661.1679-.2067.2468-.3126.079-.1058.2355-.3413.3478-.5232.1124-.182.2949-.46.4056-.6178s.3194-.4693.4638-.6921.3796-.6056.5228-.8507.3725-.6644.5095-.9317c.1371-.2674.3313-.6655.4318-.8846.1004-.2192.2891-.6613.4194-.9824.1302-.3212.3502-.9212.4888-1.3334.1387-.4121.2836-.8633.3221-1.0026.0386-.1392.102-.4127.1409-.6076.039-.195.0939-.5316.1221-.748s.0513-.4582.0513-.5373c0-.0974-.0102-.1584-.0316-.1889-.0173-.0247-.0507-.045-.0741-.045-.0235 0-.0767.0358-.1184.0795zm-25.8613.2627c-.0447.0208-.1187.0777-.1646.1264-.0458.0486-.118.1417-.1605.2068-.0424.0651-.1533.2155-.2465.3342s-.2057.2853-.2501.3703c-.0444.0849-.0953.217-.1131.2935-.0183.0788-.0937.2622-.174.4233-.078.1563-.147.3228-.1533.37-.0106.0785-.0056.0914.0597.1528.0391.0369.1142.0835.1667.1035s.1025.0285.111.0189c.0085-.0097.0585-.1588.1111-.3315s.1171-.3595.1433-.4152c.0261-.0557.2379-.348.4705-.6494.2326-.3015.448-.5844.4786-.6288.0308-.0446.0614-.123.0686-.1757.009-.0654.0048-.1051-.0135-.1271-.0146-.0176-.0501-.044-.0788-.0586-.0287-.0147-.0796-.0322-.1131-.039-.0396-.008-.0893.0009-.142.0256zm1.0514.761c-.0356.0154-.0786.0549-.0956.0878s-.0403.1179-.0516.1889c-.0114.071-.0356.1793-.0538.2405-.0182.0613-.0495.1433-.0695.1823-.0201.039-.0876.127-.15.1956s-.1135.1302-.1135.1368.0479.0118.1065.0115c.0599-.0002.1432-.017.1901-.0383.0459-.0208.1067-.0685.135-.1059s.0661-.1036.0841-.147c.018-.0435.0504-.1665.072-.2735.0217-.1069.0457-.265.0533-.3514.0113-.1272.0086-.1568-.0142-.1562-.0155.0005-.0573.0135-.0928.0289zm-16.1062.046c-.0066.0067-.0121.0692-.0121.1391 0 .0698.0272.288.0604.4849.0333.1969.1151.5695.1818.828.0668.2586.1981.6928.2919.9651.0937.2722.2257.6362.2932.8088.0675.1727.1561.4035.197.5129.0408.1094.1561.3907.2562.6252s.2427.5369.3169.6721.1979.3506.2749.4787.1777.2831.2239.3443c.0461.0613.1195.1502.1632.1975.0436.0474.0976.0861.12.0861.035 0 .0391-.0097.0294-.0693-.0062-.0382-.0748-.2045-.1525-.3697s-.2199-.4661-.3159-.6688c-.096-.2026-.2486-.5536-.3391-.7798-.0905-.2263-.213-.5435-.2722-.7051-.0592-.1615-.145-.3872-.1907-.5016s-.1692-.4607-.2745-.7697c-.1052-.309-.2931-.8808-.4176-1.2707-.1244-.3899-.2573-.774-.2953-.8535s-.0821-.1495-.0979-.1556c-.0159-.006-.0343-.0056-.041.0011zm15.1166.5164c-.0153.0366-.0828.1826-.1499.3244-.0672.1418-.1711.3331-.2311.4252-.0599.092-.1371.2175-.1714.2788-.0344.0612-.087.1736-.117.2496-.0299.076-.0721.2309-.0938.3443-.0216.1133-.0393.2498-.0393.3033s.0128.1219.0284.152.0476.0722.0711.0934c.0356.0322.0512.0347.0934.0155.0316-.0143.0687-.0635.098-.1298.026-.0587.1229-.2877.2152-.509.0924-.2212.2537-.6303.3585-.909.1048-.2786.1904-.526.1903-.5497-.0002-.0237-.007-.053-.0152-.0653s-.0332-.0315-.0555-.0428c-.0224-.0112-.0661-.0266-.0972-.034-.0501-.0119-.0598-.0058-.0845.0531zm-5.5378.6637c.0752.0369.1797.1123.2423.1747.0945.0944.1099.1206.1099.1869 0 .0541-.0135.0893-.0456.1183-.0251.0227-.0981.0743-.1621.1145-.1.0629-.1157.0677-.1116.0344.0035-.0282-.042-.0708-.1672-.1565-.0945-.0648-.1927-.1488-.2182-.1867-.0254-.0379-.0645-.13-.0867-.2047-.0223-.0747-.0406-.143-.0406-.1517s.0782-.011.1738-.0051c.1408.0088.1988.0232.306.0759zm14.3511.9075c-.0598.0312-.1293.0872-.1545.1245s-.0458.0926-.0458.1229.019.079.0421.1084c.0367.0466.0568.0534.1593.0534.0645 0 .1463-.0102.1818-.0225.0361-.0125.0776-.0478.0943-.08.0164-.0317.0298-.0934.0298-.1372 0-.0673-.0126-.0911-.0812-.153-.0447-.0403-.0893-.0732-.0992-.0732-.0098 0-.0668.0255-.1266.0567zm5.0594.0408c-.0368.0343-.0739.1-.0933.1653-.0241.081-.0273.1268-.0126.181.0108.04.0449.1003.076.1341.0309.0338.0998.0913.1529.1277.0805.0553.0986.061.1088.0346.0067-.0174.0088-.1629.0046-.3233-.0065-.2512-.0129-.2975-.046-.334-.0211-.0233-.0588-.0424-.0838-.0424s-.073.0256-.1066.057zm1.2187 2.4752c-.0585.0085-.1287.0211-.1559.0279s-.0635.0265-.0807.0437c-.0173.0172-.0456.0787-.0629.1367-.0174.0579-.045.1942-.0614.3027-.0164.1086-.0299.2065-.0299.2178 0 .0128.1204.0203.3247.0203.1786 0 .3247-.0035.3247-.0077 0-.0043-.0182-.1479-.0405-.3191-.0222-.1711-.0455-.3408-.0516-.377-.0062-.0362-.0222-.0647-.0356-.0633-.0135.0014-.0724.0095-.1309.018zm-26.9833 2.9162c-.0069.011.005.0595.0263.1076.0214.0482.11.2056.197.3497s.2845.4352.4389.6469c.1543.2116.4196.5489.5894.7494s.5238.58.7866.8432c.2628.2633.5919.5726.7315.6874.1395.1147.3075.2435.3734.286s.1321.0773.1471.0773c.0151 0 .0273-.0152.0273-.0337s-.0624-.1165-.1387-.2177c-.0763-.1013-.3748-.4484-.6633-.7715s-.7306-.8193-.9824-1.1028c-.2518-.2834-.6404-.7209-.8636-.9722-.2231-.2513-.4457-.4959-.4945-.5436-.0489-.0477-.1055-.0956-.1258-.1064-.024-.0129-.0411-.0127-.0492.0004zm17.1691.5101c-.0653.2043-.0894.2536-.1551.3168-.0428.0411-.088.1017-.1005.1346-.0197.0519-.0152.0742.0342.1677.0312.0594.1208.1846.1989.2783.0781.0936.148.1708.1553.1715.0073.0006.0366-.0386.0652-.0871.0285-.0486.0766-.1603.1069-.2482.0451-.1305.0551-.1951.0549-.3522-.0002-.1496-.0102-.2179-.0449-.3069-.0245-.063-.0758-.1553-.1139-.2051s-.0815-.0952-.0965-.101c-.0195-.0074-.049.0578-.1045.2316zm-12.5861 4.2804c-.0079.0206.0024.0658.0244.1065.021.039.1024.1294.1808.201s.2202.1832.315.248c.0949.0649.2289.1462.2978.1808s.1607.0686.2039.0755c.0599.0096.0854.0044.107-.0217.0248-.0297.0224-.0457-.0185-.1226-.0259-.0486-.0968-.1433-.1576-.2104s-.19-.175-.2871-.2399c-.0971-.0648-.2397-.1431-.3169-.1739-.0772-.0309-.1841-.0613-.2377-.0676-.0809-.0096-.0996-.0055-.1111.0243zm3.1785 1.9376c0 .0129.0377.0581.0837.1005s.1487.1217.2283.1762c.0795.0546.2678.1677.4185.2514s.3561.1931.4566.2431c.1004.05.3744.1689.6087.2641.2344.0953.6316.243.8828.3283.2511.0853.7082.2267 1.0159.3143s.7231.1914.9233.2308c.2001.0393.4689.085.5973.1014.1283.0165.4114.0408.629.054.2394.0145.4302.017.483.0064.048-.0097.0881-.0268.089-.0379.001-.0112-.0231-.0326-.0536-.0476-.0305-.0151-.3583-.1029-.7283-.1952s-.8235-.2103-1.0076-.2623c-.1842-.0519-.4992-.1447-.7001-.2061-.2009-.0615-.6255-.1939-.9436-.2942-.318-.1004-.8026-.2585-1.0768-.3514-.2743-.0929-.796-.2883-1.1595-.4341s-.6802-.2651-.7037-.2651c-.0236 0-.0429.0106-.0429.0234zm17.0859.6844c-.0948.0201-.2592.0662-.3652.1025-.1061.0363-.2953.1142-.4206.1731s-.2805.1441-.345.1893c-.0644.0452-.1293.1017-.1442.1256-.0201.0323-.0212.0492-.004.0663.0127.0126.0664.0216.1194.02.0531-.0016.1733-.0185.2672-.0377.0939-.0191.2806-.0698.4149-.1128.1343-.0429.3641-.1373.5108-.2096.1466-.0724.2995-.1627.3399-.2007.0403-.0379.0732-.0795.0732-.0924s-.0234-.0323-.052-.0432c-.0286-.0108-.0903-.0191-.137-.0183s-.1625.0179-.2574.0379zm-4.0685 1.0769c-.0893.0094-.3359.0446-.5479.0782-.2121.0337-.454.0707-.5375.0822-.0836.0115-.3758.0347-.6494.0515-.2735.0168-.7485.0389-1.0554.0491s-.6859.0288-.8421.0414c-.1563.0125-.5418.0291-.8568.0368-.4163.0102-.5797.0209-.5982.0394-.0184.0184-.0195.035-.0041.0603.0118.0192.0941.0595.1828.0895.0888.03.2662.0686.3942.0858s.3902.0496.5828.072c.2548.0297.4786.0408.8228.0408.2601 0 .5957-.0095.7458-.0211s.3277-.0303.3946-.0416c.067-.0114.2741-.0565.4602-.1003.1862-.0438.4419-.0888.5682-.0999.1264-.0112.3191-.0204.4284-.0205s.2691-.0145.3552-.032c.086-.0174.2694-.069.4075-.1146s.2933-.111.3448-.1454c.0515-.0345.0966-.0786.1003-.098.0044-.0231-.0119-.0425-.0467-.0557-.0295-.0112-.1511-.0191-.2704-.0176-.1192.0014-.2899.0103-.3791.0197z" fill="#fff" fill-rule="evenodd"/></g></svg>