<svg fill="none" height="60" viewBox="0 0 120 60" width="120" xmlns="http://www.w3.org/2000/svg" xmlns:xlink="http://www.w3.org/1999/xlink"><clipPath id="a"><path d="m0 0h120v60h-120z"/></clipPath><g clip-path="url(#a)" fill="#fff"><path d="m110.337 28.285c-.54 0-.783.3197-.921.7993-.313 1.1024-.618 2.2049-1.252 3.164-.145.2205-.294.5816-.629.4272-.27-.1212-.194-.452-.167-.7193.11-.9297.282-1.8506.515-2.7562.189-.7938-.097-1.0666-.882-.8875-.177.0428-.339.1347-.467.2655-.129.1309-.219.2957-.262.4759-.302.8221-.478 1.6865-.523 2.5633 0 .7496-.459 1.1465-.996 1.4828-.378.237-.667.0551-.689-.4024 0-.2239.02-.4473.063-.667.137-.802.291-1.6013.426-2.4034.073-.4299.124-.8874-.27-1.1768s-.885-.193-1.317.0137c-.81.3941-1.323 1.1025-1.773 1.8577-.103.1736-.133.4272-.459.485.129-.5512.251-1.0638.361-1.5737.065-.2894.238-.645-.064-.8489-.148-.0768-.312-.1177-.478-.1196-.166-.0018-.33.0356-.48.1092-.1494.0736-.2803.1815-.3826.3152-.1018.1338-.1724.2898-.206.4559-.2588.7731-.4033 1.5813-.4293 2.3979-.0072.2725-.0777.5393-.2053.7788-.1275.2395-.3086.4448-.5286.5992-.2026.1709-.4263.3528-.7017.2067-.2754-.146-.1996-.4189-.1891-.6587.0461-1.0005.3211-1.9679.4562-2.9573.0728-.532-.1539-.7855-.6478-.7883-.3075 0-.5882.0331-.761-.3142-.0781-.1598-.2698-.1378-.4373-.1461-.5444-.026-1.0829.1245-1.5383.43-.5455.3467-1.0085.8135-1.3548 1.3661-.3464.5526-.5678 1.1772-.6478 1.8283-.034.3044-.1589.5907-.3577.82-.1992.2293-.4626.3905-.7542.4616-.1755.0386-.386.0965-.5181-.0441-.1324-.1406.0378-.3363.1106-.4879.4478-.9426.6855-1.9293.429-2.9601-.34-1.4001-1.7624-1.8742-2.8633-.9701-.1298.1047-.2079.3087-.4399.2756-.111-.3087-.0812-.7084-.5399-.7938-.1468-.034-.2992-.0347-.4464-.0022-.1471.0326-.2852.0977-.4052.1906-.12.093-.2185.2117-.2886.3477-.0702.136-.1102.2861-.1178.4396-.0173.4682-.0011.9371.0487 1.4029.0917.8819-.0324 1.6537-.7882 2.2325-.2697.2039-.5259.5347-.893.3252s-.2189-.5788-.1649-.893c.1566-.904.3482-1.7998.4833-2.7066.154-1.0308-.4452-1.5048-1.4197-1.1465-.6924.2858-1.2749.7936-1.6598 1.4469-.1864.2757-.3592.5513-.5399.8435.0566-.5429.0845-1.0885.0838-1.6344.0064-.103-.0091-.2061-.0457-.3022-.037-.0961-.0939-.1828-.1667-.2541-.0732-.0712-.1608-.1251-.2562-.1581-.0959-.033-.1977-.0441-.2981-.0326-.7772-.0165-1.3035.441-1.7918.9757-.3942.4327-.6289.9784-.9447 1.4663l-.143-.0551c.1132-.4906.2403-.9785.3399-1.4718.054-.2756.2268-.5926-.0351-.8048-.2618-.2123-.6127-.1296-.9202-.0359-.1543.0483-.2935.1367-.4041.2566-.1109.1198-.1894.2669-.2275.427-.1215.3674-.2169.7432-.286 1.1245-.0675.4741-.4048.4961-.7451.5512-.34.0551-.3992-.2315-.4777-.4906-.2913-.9784-.8097-1.7557-1.8891-1.9155-.5263-.1047-1.0715-.0469-1.5658.1662-.4942.213-.9149.5716-1.2088 1.03-.4894.7267-.726 1.6002-.672 2.4805.0208.1288-.0087.2606-.0819.3677-.0728.107-.1841.1808-.3094.2056-1.1122.4246-2.3045.5866-3.4869.474-1.4681-.1488-2.483-1.0032-2.7286-2.4171-.157-.772-.163-1.568-.0174-2.3423.1453-.7743.4392-1.5116.8648-2.1695.4161-.6585 1.0455-1.1464 1.7786-1.3781 1.4386-.4575 2.186.1736 1.9943 1.6813 0 .0606-.0132.1212-.0215.1819-.0566.4492-.0675.8902.4777 1.0335.2316.0775.4829.064.7052-.038.2222-.1019.3991-.285.4961-.5132.7935-1.5324-.0811-3.5582-1.7382-3.9386-.644-.1606-1.3137-.1825-1.9668-.0643-.6528.1181-1.2746.3737-1.8254.7506-2.0751 1.4112-2.8282 3.5196-2.8607 5.945-.0403 2.9271 1.8352 4.8812 4.7125 4.9969 1.4443.0836 2.8893-.1514 4.237-.689.1151-.057.2441-.0774.3709-.0588.1264.0187.2445.0757.3392.1635 1.2171.9344 2.6395.769 3.6435-.3913.2939-.3371.5097-.7375.6312-1.1714.1298-.463.4781-.4437.8097-.4134.332.0303.2702.3417.2864.5678.0143.449.0796.8947.1943 1.3284.0358.1827.1309.3478.2701.4683.1389.1206.3139.1896.4962.1959.192.0217.3852-.03.5421-.145.157-.115.2668-.2852.3083-.4778.1268-.4079.2294-.8269.3505-1.2321.1909-.6879.4724-1.3463.8369-1.9568.1214-.1929.2214-.5292.4991-.4355.2781.0937.1189.3969.1026.6036-.0403.5512-.1188 1.1025-.1754 1.6537-.0823.5269-.0098 1.0667.2079 1.5517.0698.1476.183.2692.3237.3478.1411.0786.3022.1102.4618.0904.1517.0029.3003-.0433.4248-.1318.1246-.0887.2189-.2151.2687-.3615.1079-.2756.1864-.5788.2698-.8737.2241-.8895.5889-1.7357 1.0798-2.5054.1158-.1736.2346-.4685.4882-.35.2539.1186.1188.3997.0837.6091-.1535.6744-.2558 1.36-.3048 2.0506 0 1.0391.475 1.56 1.4926 1.5545.4991 0 .5207.1543.3641.5677-.4558 1.0909-.7199 2.2553-.7799 3.4398-.0241 1.3367.3645 2.067 1.1523 2.2049.8908.1681 1.6386-.4135 2.089-1.6344.3777-1.0122.6139-2.0736.7018-3.1531.0623-.8599.1592-1.6013 1.2308-1.6537.2211 0 .3995-.2756.6693-.1019.9202.609 1.8001.3886 2.626-.1985.2995-.2122.4587-.2398.7447.0441.3294.3223.7663.5048 1.2225.5104.4558.0056.8968-.166 1.2337-.4801.1713-.1732.3317-.3573.4803-.5512 1.0795 1.2651 1.4522 1.3257 2.8124.3996.3158-.2149.3535 0 .4667.1875.0758.1487.1951.2698.3411.3464.146.0765.3116.1048.4743.0807.161-.0118.314-.0752.438-.1811.123-.1059.211-.2489.25-.4087.076-.2094.127-.4299.186-.6449.233-.9318.614-1.8183 1.128-2.6239.125-.1846.238-.5209.521-.3886.23.1075.092.4079.057.6174-.116.7442-.332 1.4718-.294 2.2352.046.9371.54 1.4057 1.465 1.3974.588.0053 1.16-.1962 1.62-.5705.253-.2095.413-.2756.674.0441.54.6973 1.282.7138 1.919.0827.23-.2511.447-.5142.651-.7883.027.2746-.019.5516-.133.8016-.115.25-.294.4636-.518.6178-.911.6707-1.713 1.4836-2.377 2.4089-.452.6062-.688 1.3522-.667 2.114 0 .1997.038.3975.114.5817.075.1842.186.3512.325.4911.14.14.306.25.487.3237.182.0737.376.1096.572.1056.282.003.561-.0526.821-.1635.259-.1109.494-.2747.69-.4815.439-.4759.777-1.0388.994-1.6537.782-1.9651 1.079-4.0432 1.411-6.1159.186-1.1879.386-2.373.564-3.5609.084-.5788-.076-.7332-.642-.7221zm-37.3531 4.7819c-.086.0802-.1875.1406-.298.1771-.111.0365-.2279.0482-.3434.0343-.1154-.0138-.2267-.0529-.3259-.1146-.0997-.0617-.1849-.1445-.2502-.2429-.2286-.3131-.3415-.6987-.3184-1.0887.0162-.7937.1241-1.378.5802-1.808.0574-.0725.131-.1298.2147-.1668.0838-.037.1751-.0525.266-.0454.2456.0551.1566.2976.1807.463.0502.5309.2626 1.0323.6071 1.4332.3347.3638.1675.995-.3128 1.3588zm13.2571 2.4034c-.0411 1.2169-.2022 2.4265-.4807 3.6105-.0566.204-.1022.4989-.3803.4658-.2781-.033-.2701-.3307-.2943-.5512-.0551-.486-.0177-.9783.1106-1.4498.1811-1.0404.5353-2.0416 1.0473-2.96 0 .3004.0189.5925-.0026.8847zm2.3668-2.3566c-.1295.1131-.2913.2757-.4803.1627-.1891-.113-.0917-.2894-.0947-.4438 0-.2756 0-.5677 0-.8516 0-.7276-.1159-1.4801.575-2.0037.2241-.1709.4346-.3886.7447-.2564.137.0655.2494.1745.3204.3107.0709.1361.0969.292.0739.4445.02.4993-.0724.9966-.2698 1.4539-.1973.4572-.4946.8621-.8692 1.1837zm7.4678-2.8856c-.1026.6008-.2238 1.2017-.3509 1.797-.046.2194-.1155.4329-.2075.6367-.1785.3775-.3996.7551-.8961.6339-.4969-.1213-.4399-.5513-.4535-1.017.0781-.9482.4048-1.8384 1.2602-2.4503.1754-.1267.3942-.2756.6048-.1598.2105.1157.0754.3748.043.5595zm11.1604 8.9244c-.149.2287-.327.5512-.656.3859-.33-.1654-.27-.5099-.189-.8048.27-1.0033.974-1.6841 1.843-2.4806-.24 1.1356-.469 2.0726-.998 2.8995z"/><path d="m55.5398 22.5175c-.3589.4019-.6303.8776-.7966 1.3954-.4602 1.2669-.7635 2.5882-.9027 3.9327.0052.1485-.0416.2941-.1314.4105-.0902.1164-.2179.196-.3597.2245-1.7421.5069-2.6901 1.7306-2.9715 3.5429-.0371.2344-.0159.507-.2257.6678-.6347.4987-1.3144.902-2.1615.793-.3344-.0408-.7754-.0845-.7966-.466-.0211-.2889.4329-.2535.6745-.3516 1.062-.4224 1.8931-1.0138 2.0182-2.2811.0609-.4254-.0412-.8586-.2854-1.2079-.2447-.3494-.6114-.5877-1.0238-.6644-.4013-.0789-.8152-.0616-1.2086.0504-.3939.112-.7573.3158-1.0617.5955-.8578.7795-1.1711 1.7906-1.1897 2.9216 0 .2044.0372.4033-.1458.5451-.6638.545-1.3783.9429-2.2703.8176-.3133-.0409-.7224-.0954-.7487-.4552-.0215-.2725.3927-.2534.6184-.3407.8523-.3324 1.6251-.7521 1.941-1.7114.457-1.39-.2866-2.4965-1.6674-2.4829-1.0862.0137-1.8586.5587-2.4162 1.4854-.1117.188-.1911.3951-.2947.5914-.0791.1431-.2045.2533-.3545.3111s-.3152.0596-.4662.005c-.369-.0981-.0531-.3925-.0479-.5969.0056-.2044.0876-.4387.0906-.6567 0-.4388-.0772-.8749-.5312-1.0711-.2012-.0901-.4243-.1167-.6404-.0764-.216.0403-.4157.1456-.5731.3026-.5312.4687-.8497 1.1092-.6693 1.7769.2922 1.0901-.4803 1.6352-.9213 2.3656-.0612-.1093-.0972-.2313-.1061-.357-.1355-1.0901-.101-2.213-.1433-3.3195 0-.3243-.0371-.6758-.4462-.7495-.4091-.0735-.7966 0-.9959.4497-.1485.3298-.2654.6759-.3928 1.0111-.3905.9593-.7966 1.9078-1.2108 2.9625-.1363-.1992-.2072-.438-.202-.6813-.0423-.9648-.098-1.9323-.1139-2.8998 0-.5124-.1277-.8694-.7198-.8667-.592.0028-.8868.2289-.9053.8558-.0264.6239-.006 1.2489.0608 1.8696.0542.3062.0231.6218-.089.9108-.1121.2891-.3011.5401-.5453.7244-.2603.2562-.526.6922-.9321.447-.3664-.2154-.1912-.6623-.1407-1.003.1139-.7985.2814-1.5889.3983-2.3847.1087-.7413-.0293-.8912-.7569-.932-.1381 0-.2973.0408-.3957-.0736-.6663-.774-1.3861-.3816-2.026-.03-1.2479.6868-1.8932 1.8369-2.1242 3.2486-.0292.1962.0133.4252-.1566.5642-.7143.5805-1.4844 1.0029-2.4456.7985-.2655-.0518-.5788-.1363-.5974-.4061s.3505-.2262.531-.3243c.3001-.1554.624-.2535.9188-.417.3107-.159.5817-.3891.7921-.6727.2104-.2835.3546-.6128.4214-.9625.2655-1.2836-.4753-2.1994-1.7526-2.1803-1.6887 0-2.9579 1.548-2.9447 3.562.0372 1.7307 1.0383 2.7772 2.719 2.848.8382.0506 1.6716-.1614 2.3898-.6077.1753-.109.3213-.2508.5683-.0382 1.0886.9485 1.8214.9185 2.8518-.1226.2016-.199.2654-.1853.4329.0381.6343.8613 1.3834.973 2.2491.3571.2082-.1513.4079-.3151.5972-.4906.1622-.1471.2417-.1145.3612.0682.7353 1.1173 1.6808 1.0901 2.3738-.0655.284-.4742.4967-.992.7966-1.6161.0743.5669.101.992.1886 1.4008.2365 1.1256 1.1656 1.4445 2.0394.7141.3545-.2923.6473-.6558.86-1.0683.4277-.8395.9507-1.3409 1.9811-1.0738.3371.0872.5019.1281.5813.4878.0821.4406.2829.8486.5802 1.1773.2974.3288.6786.5649 1.1006.6814 1.0038.3134 2.0287.2916 2.921-.2726.6905-.4333 1.2454-.6268 1.8427.0682.0931.0759.2023.1282.3188.1526.5527.2054 1.1433.2802 1.728.2189.585-.0613 1.1488-.2573 1.6496-.5732.3237-.199.5308-.2725.8471.0654.3422.3445.8029.5376 1.2825.5376.4795 0 .9398-.1931 1.2825-.5376.3901-.3924.5549-.4251.7832.1308.1964.477.6533.5696 1.1099.4197.5152-.1662.438-.5968.356-1.0029-.0824-.4061-.1515-.7931-.2658-1.1828-.0772-.2884-.0958-.5902-.0535-.8862.042-.296.1433-.5798.2977-.8335.8943-1.5704 1.5658-3.2634 1.9941-5.0283.2179-.9484.3482-1.9077.101-2.8725-.2999-1.21-1.4655-1.4989-2.326-.6105zm-34.8456 8.7756c.1036-.5069.2469-1.0274.7435-1.3408.0937-.0761.2098-.1174.3293-.1174.1194 0 .2355.0413.3292.1174.1006.0816.172.1951.2032.3228.0313.1277.0205.2623-.0306.383-.1241.2618-.3029.4923-.5237.675-.2207.1828-.478.3133-.7535.3825-.3107.0218-.3-.1799-.2974-.4225zm7.1322-1.0056c-.1489.6868-.3241 1.5071-.5127 2.3275-.0553.2396-.1748.4585-.3452.6323-.0698.0914-.164.1599-.2717.1972-.1073.0374-.2227.0419-.3326.013-.1095-.0289-.209-.0899-.2854-.1757-.0765-.0856-.127-.1924-.1456-.3071-.2657-.9539.5019-2.6273 1.3753-3.0415.4065-.2153.555-.1499.5179.3543zm13.7199 1.21c-.0798-.4523.4065-1.3926.8233-1.5861.4169-.1935.7966.0327.7966.5233 0 .545-.8656 1.33-1.3942 1.2836-.0286.0004-.0568-.005-.0835-.0159-.0264-.011-.0509-.0271-.0713-.0476s-.0367-.0449-.0479-.0719c-.0115-.027-.0174-.056-.0178-.0854zm5.2681-.0653c-.0583-.447.3534-1.2892.7383-1.4963.4566-.248.8497 0 .8363.5069-.0133.507-.8177 1.2837-1.3278 1.2619-.1882-.0082-.2201-.1199-.2412-.2725zm5.94 2.0167c-.5045.06-.7436-.2725-.7276-1.2373.0234-.4138.1351-.8172.3281-1.1814.1927-.3642.4614-.6802.7874-.9253.3396-.2589.5308-.188.5308.2725.0133.6432.0557 1.2864.069 1.9296.0186.4578-.5468 1.0901-.9826 1.1419zm3.4517-6.0639c-.1748.6573-.4432 1.2845-.7966 1.8614.0799-1.7851.2153-3.5429.6905-5.2654.0586-.2044.1195-.5123.3612-.4932.2947.0191.2657.3542.2921.5804.085 1.1474-.186 2.243-.5338 3.3168z"/><path d="m17.0756 23.2447c-.572-.1972-1.1761-.2758-1.7776-.2311-.26-.0181-.5208-.0181-.7808 0-1.4588.2061-2.7447.7157-3.331 2.2557-.6186 1.6376.0541 3.1358 1.7831 3.9908.8833.44 1.8046.7965 2.7015 1.2337.5997.2952.9995.7686.8888 1.5234-.1108.7546-.6241 1.0275-1.2211 1.2086-.6993.1999-1.4349.2237-2.145.0696-1.1698-.2283-1.4264-.5653-1.3048-1.7684.0486-.4846-.046-.8633-.5566-1.0109-.2332-.0746-.4855-.0515-.7024.0641-.2169.1157-.3809.3148-.4565.5541-.44576 1.1502-.0108 2.6206 1.0725 3.1553 1.9424.958 3.9496.9803 5.8218-.1364 1.9964-1.1892 1.8911-3.9351-.1081-5.088-.6105-.3509-1.2751-.6016-1.9154-.8801-.5403-.2506-1.1238-.4483-1.5885-.8605-.1994-.1566-.3546-.3653-.4493-.6046-.0948-.2392-.1257-.5003-.0896-.756s.1379-.4968.2949-.6984c.157-.2014.3635-.3559.5979-.4474.4977-.2313 1.0447-.3272 1.5885-.2785 1.2886.1281 1.9965.4205 1.7371 1.9299-.0119.0822-.0119.1657 0 .2479-.0006.104.0196.2069.0594.3024.0398.0956.0983.1816.1719.2527.0735.0711.1605.1258.2556.1606.095.0349.196.0491.2966.0418.5403.0223.8672-.3036 1.0022-.9496.3215-1.5874-.343-2.7655-1.8451-3.2807z"/><path d="m19.879 21.8252c.4178-.1176.3828-.4001.2911-.7426-.1563-.5754.0351-.8814.6174-1.0592.2483-.0746.504-.1237.7629-.1464.6794-.0654.7333 0 .5904.6485-.3343 1.5534-.5769 3.1225-.8088 4.6916-.0539.387.0513.7218.5177.7636.4663.0418.744-.1883.7925-.6669.1291-1.3094.3316-2.6111.6066-3.8992.4125-1.909-.0836-1.5429 1.9922-1.5455.5392 0 .6391.1752.4932.6617-.4797 1.6004-.5012 3.2453-.4581 4.8902 0 .2459.0566.476.3425.5492.1179.0257.2408.0203.3561-.0156.1149-.0358.2182-.1008.2989-.1884.1567-.1777.2604-.394.2992-.625.1485-.5232.3746-1.0227.6712-1.4827.0701-.1073.1485-.2746.3102-.2197.1616.0549.0915.2301.0753.3557-.0799.3976-.1375.7992-.1726 1.2029-.0162.7715.4692 1.1193 1.2565.9519.2574-.0418.4986-.1502.698-.3138.2698-.2275.4341-.1961.7119.0131.7873.591 2.0973.4079 2.6392-.3348.205-.2824.3693-.6485.0863-.897-.283-.2484-.4609.1569-.6418.3138-.5389.4577-.9271.4969-1.4016.0759.1779-.1805.4312-.1961.6441-.2903.2408-.0946.4624-.2291.6554-.3975.2363-.199.3976-.4689.4579-.7668.0606-.2979.0169-.6069-.1236-.8781-.2699-.4498-.9034-.625-1.5531-.3897-.3901.1311-.7304.3731-.9765.6945s-.387.7073-.4036 1.1074c.0034.1926-.011.3852-.0434.5753-.0279.1459-.1108.2765-.2321.3668-.1214.0902-.2729.1338-.4255.1222-.3803-.0523-.2374-.3844-.2024-.6145.092-.5727.2401-1.1402.2913-1.7129.046-.4864-.2694-.7035-.7684-.6068-.2729.0647-.5235.1972-.7277.3845-.3743.3645-.6912.7804-.9411 1.2343-.1455-.4419.0675-.6564.2699-.8708.4884-.513.9195-1.0749 1.2858-1.6763.3464-.5454.5337-1.1718.542-1.8123-.0027-.4969-.0539-1.0199-.6121-1.2134-.5581-.1936-1.0137.0889-1.348.523-.075.1223-.1888.2179-.3241.2726-.1357.0546-.2857.0654-.4278.0307-1.3896-.1719-2.7953-.1807-4.1869-.0261-.6199.0463-1.2239.2126-1.7765.489-.3573.1841-.6328.4887-.7744.8563-.1415.3677-.1394.7728.006 1.1391.1402.3295.337.5989.7684.4785zm10.7188 1.8568c.0942-.3583.1861-.7401.6602-.7845.0472-.0089.0954-.0067.1414.0063.0459.0131.0878.0366.1225.0686.0346.032.0606.0716.0765.1154.0154.0439.0199.0906.0131.1365-.0218.3243-.5664.7846-.8494.7584-.2103-.0235-.1967-.1804-.1643-.3007zm-3.4156-4.4536c.0618-.136.1293-.3216.3233-.2824.1941.0392.1862.2301.1862.3818 0 .9702-.4963 1.7364-1.108 2.453.0475-.8777.2499-1.741.5985-2.5524z"/></g></svg>