<svg fill="none" height="60" viewBox="0 0 120 60" width="120" xmlns="http://www.w3.org/2000/svg" xmlns:xlink="http://www.w3.org/1999/xlink"><clipPath id="a"><path d="m0 0h120v60h-120z"/></clipPath><g clip-path="url(#a)" fill="#fff"><path d="m29.0739 33.6016c-.2021-.2176-.3978-.3626-.587-.4352-.1892-.0725-.3796-.1088-.5714-.1088-.2851 0-.5429.0505-.7736.1516-.2306.101-.4289.2409-.5947.4196-.1659.1788-.2942.3873-.3849.6256s-.136.4948-.136.7694c0 .2953.0453.5673.136.816s.219.4637.3849.645c.1658.1814.3641.3238.5947.4275.2307.1036.4885.1554.7736.1554.2229 0 .4393-.0531.6492-.1593s.4056-.2759.587-.5091l.8085.5751c-.2488.342-.552.5906-.9096.7461-.3576.1554-.7386.2331-1.1429.2331-.425 0-.815-.0686-1.1701-.2059-.355-.1373-.6608-.3316-.9174-.5829-.2565-.2513-.4574-.553-.6025-.9053-.1451-.3524-.2177-.7435-.2177-1.1735 0-.4404.0726-.8406.2177-1.2007s.346-.6671.6025-.9209c.2566-.2539.5624-.4495.9174-.5868.3551-.1373.7451-.2059 1.1701-.2059.3732 0 .7192.066 1.0379.1982.3188.1321.6155.3561.8902.6722zm5.8889-1.29h.8474l2.3713 5.5021h-1.1196l-.5131-1.2589h-2.3868l-.4976 1.2589h-1.0962zm1.2439 3.4039-.8474-2.2382-.863 2.2382zm7.8481-2.2227c-.1037-.1502-.2423-.2603-.4159-.3303-.1737-.0699-.3564-.1049-.5482-.1049-.114 0-.2241.013-.3304.0389-.1062.0259-.2021.0673-.2876.1243-.0856.057-.1542.1308-.2061.2215-.0518.0907-.0777.1982-.0777.3225 0 .1865.0648.329.1943.4275.1296.0984.2903.1839.4821.2564s.4017.1425.6297.2098c.2281.0674.438.1606.6298.2798.1917.1192.3524.2772.482.4741.1296.1968.1944.4585.1944.7849 0 .2953-.0545.553-.1633.7732-.1089.2202-.2553.4029-.4393.5479-.184.1451-.3978.2539-.6414.3264-.2436.0726-.5001.1088-.7697.1088-.3421 0-.6712-.057-.9874-.1709-.3161-.114-.5882-.3057-.8163-.5751l.7386-.715c.1192.1813.276.3225.4704.4235.1943.1011.4004.1516.6181.1516.114 0 .228-.0156.342-.0466.1141-.0311.2177-.0778.311-.1399.0933-.0622.1685-.1412.2255-.2371.057-.0958.0855-.2059.0855-.3302 0-.2021-.0648-.3575-.1944-.4663-.1295-.1088-.2902-.2008-.482-.2759s-.4017-.1464-.6297-.2137c-.2281-.0674-.438-.1593-.6298-.2759s-.3524-.272-.482-.4663-.1944-.4546-.1944-.781c0-.285.0583-.5311.175-.7383.1166-.2073.2695-.3795.4587-.5168.1891-.1373.4055-.2396.6491-.307.2437-.0673.4924-.101.7464-.101.2903 0 .5714.044.8436.1321.2721.0881.517.2331.7347.4352zm7.024 0c-.1037-.1502-.2423-.2603-.416-.3303-.1736-.0699-.3563-.1049-.5481-.1049-.114 0-.2242.013-.3304.0389-.1063.0259-.2022.0673-.2877.1243s-.1542.1308-.206.2215-.0778.1982-.0778.3225c0 .1865.0648.329.1944.4275.1296.0984.2903.1839.482.2564.1918.0725.4017.1425.6298.2098.228.0674.438.1606.6297.2798.1918.1192.3525.2772.4821.4741.1295.1968.1943.4585.1943.7849 0 .2953-.0544.553-.1632.7732-.1089.2202-.2553.4029-.4393.5479-.184.1451-.3978.2539-.6414.3264-.2436.0726-.5002.1088-.7697.1088-.3421 0-.6712-.057-.9874-.1709-.3162-.114-.5883-.3057-.8163-.5751l.7386-.715c.1192.1813.276.3225.4703.4235.1944.1011.4004.1516.6181.1516.114 0 .2281-.0156.3421-.0466.114-.0311.2177-.0778.311-.1399.0933-.0622.1684-.1412.2255-.2371.057-.0958.0855-.2059.0855-.3302 0-.2021-.0648-.3575-.1944-.4663s-.2902-.2008-.482-.2759-.4017-.1464-.6298-.2137c-.228-.0674-.4379-.1593-.6297-.2759s-.3525-.272-.482-.4663c-.1296-.1943-.1944-.4546-.1944-.781 0-.285.0583-.5311.1749-.7383.1166-.2073.2695-.3795.4587-.5168s.4056-.2396.6492-.307c.2436-.0673.4924-.101.7464-.101.2902 0 .5714.044.8435.1321s.517.2331.7347.4352zm6.1065-1.1812h.8474l2.3713 5.5021h-1.1195l-.5132-1.2589h-2.3868l-.4976 1.2589h-1.0962zm1.244 3.4039-.8475-2.2382-.863 2.2382zm5.1502-3.4039h1.2984l2.6667 4.0877h.0155v-4.0877h.9797v5.5021h-1.244l-2.7211-4.2198h-.0156v4.2198h-.9796zm8.75 0h2.1691c.3628 0 .7127.0557 1.0496.1671.3369.1113.6349.281.894.509.2592.2279.4665.5142.622.8587.1555.3446.2333.75.2333 1.2163 0 .4714-.0894.8794-.2683 1.224-.1788.3445-.4094.6294-.6919.8548s-.5961.3938-.9407.5052c-.3447.1113-.6829.167-1.0146.167h-2.0525zm1.7104 4.6162c.3058 0 .5947-.035.8669-.1049.2721-.07.5092-.1788.7113-.3264.2022-.1477.3616-.3394.4782-.5751s.1749-.522.1749-.8587c0-.3316-.0518-.6166-.1555-.8549s-.2475-.4313-.4315-.579c-.184-.1476-.4017-.2564-.653-.3264-.2514-.0699-.5274-.1049-.828-.1049h-.8941v3.7303zm6.7518-4.6162h1.9126c.2643 0 .5196.0246.7658.0738s.4652.1334.657.2526c.1917.1191.3446.2797.4587.4818.114.2021.171.4585.171.7694 0 .3989-.1101.7331-.3304 1.0025s-.5352.4326-.9446.4896l1.4616 2.4324h-1.1818l-1.275-2.3314h-.7153v2.3314h-.9796zm1.7416 2.3314c.1399 0 .2798-.0065.4198-.0194.1399-.013.2682-.0441.3848-.0933s.2112-.1243.2838-.2254c.0726-.101.1088-.2422.1088-.4235 0-.1606-.0336-.2901-.101-.3886-.0674-.0984-.1555-.1722-.2644-.2215-.1088-.0492-.2293-.0816-.3615-.0971s-.2604-.0233-.3848-.0233h-.8475v1.4921zm5.4223.443c0-.4404.0726-.8406.2177-1.2007.1452-.3601.346-.6671.6026-.9209.2565-.2539.5623-.4495.9174-.5868.355-.1373.745-.2059 1.1701-.2059.4302-.0052.8241.0583 1.1817.1904s.666.3251.9252.579c.2591.2538.4613.5595.6064.917s.2177.7564.2177 1.1968c0 .43-.0726.8212-.2177 1.1735s-.3473.6554-.6064.9092c-.2592.2539-.5676.4521-.9252.5945-.3576.1425-.7515.2163-1.1817.2215-.4251 0-.8151-.0686-1.1701-.2059-.3551-.1373-.6609-.3316-.9174-.5829-.2566-.2513-.4574-.553-.6026-.9053-.1451-.3524-.2177-.7435-.2177-1.1735zm1.0263-.0622c0 .2953.0453.5673.136.816.0908.2487.219.4637.3849.645.1658.1814.3641.3238.5948.4275.2306.1036.4885.1554.7735.1554.2851 0 .5443-.0518.7775-.1554.2332-.1037.4328-.2461.5986-.4275.1659-.1813.2942-.3963.3849-.645s.136-.5207.136-.816c0-.2746-.0453-.5311-.136-.7694s-.219-.4468-.3849-.6256c-.1658-.1787-.3654-.3186-.5986-.4196-.2332-.1011-.4924-.1516-.7775-.1516-.285 0-.5429.0505-.7735.1516-.2307.101-.429.2409-.5948.4196-.1659.1788-.2941.3873-.3849.6256-.0907.2383-.136.4948-.136.7694z"/><path d="m29.3391 22.4302c-.2022-.2176-.3978-.3626-.587-.4352-.1892-.0725-.3797-.1088-.5715-.1088-.285 0-.5429.0506-.7735.1516-.2307.101-.4289.2409-.5948.4196-.1659.1788-.2941.3873-.3849.6256-.0907.2384-.136.4948-.136.7694 0 .2953.0453.5673.136.816.0908.2487.219.4637.3849.645.1659.1814.3641.3238.5948.4275.2306.1036.4885.1554.7735.1554.2229 0 .4393-.0531.6492-.1593s.4056-.2759.587-.509l.8086.575c-.2488.342-.552.5907-.9097.7461-.3576.1554-.7386.2331-1.1428.2331-.4251 0-.8151-.0686-1.1701-.2059-.3551-.1373-.6609-.3316-.9174-.5829-.2566-.2512-.4574-.553-.6026-.9053-.1451-.3523-.2177-.7435-.2177-1.1735 0-.4404.0726-.8406.2177-1.2007.1452-.3601.346-.6671.6026-.9209.2565-.2539.5623-.4495.9174-.5868.355-.1373.745-.2059 1.1701-.2059.3731 0 .7191.066 1.0379.1982.3187.1321.6155.3562.8902.6722zm17.6169-1.29h.9796v4.6162h2.3401v.886h-3.3197zm19.8093 2.7744c0-.4404.0726-.8406.2177-1.2007.1452-.3601.346-.6671.6026-.9209.2565-.2539.5623-.4495.9174-.5868.355-.1373.745-.2059 1.1701-.2059.4302-.0052.8241.0583 1.1817.1904s.666.3251.9252.579c.2592.2538.4613.5595.6064.917s.2177.7564.2177 1.1968c0 .43-.0726.8212-.2177 1.1735s-.3472.6554-.6064.9092c-.2592.2539-.5676.4521-.9252.5946-.3576.1424-.7515.2163-1.1817.2214-.4251 0-.8151-.0686-1.1701-.2059-.3551-.1373-.6609-.3316-.9174-.5829-.2566-.2512-.4574-.553-.6026-.9053-.1451-.3523-.2177-.7435-.2177-1.1735zm1.0263-.0622c0 .2953.0454.5673.1361.816s.2189.4637.3848.645c.1659.1814.3641.3238.5948.4275.2306.1036.4885.1554.7735.1554.2851 0 .5443-.0518.7775-.1554.2332-.1037.4328-.2461.5987-.4275.1658-.1813.2941-.3963.3848-.645s.1361-.5207.1361-.816c0-.2746-.0454-.531-.1361-.7694-.0907-.2383-.219-.4468-.3848-.6256-.1659-.1787-.3655-.3186-.5987-.4196s-.4924-.1516-.7775-.1516c-.285 0-.5429.0506-.7735.1516-.2307.101-.4289.2409-.5948.4196-.1659.1788-.2941.3873-.3848.6256-.0907.2384-.1361.4948-.1361.7694zm21.8152-2.7122h3.6463v.8859h-2.6667v1.3523h2.5268v.8859h-2.5268v1.4921h2.8067v.886h-3.7863z"/></g></svg>