<svg fill="none" height="60" viewBox="0 0 120 60" width="120" xmlns="http://www.w3.org/2000/svg" xmlns:xlink="http://www.w3.org/1999/xlink"><clipPath id="a"><path d="m0 0h120v60h-120z"/></clipPath><clipPath id="b"><path d="m24 20h73v19h-73z"/></clipPath><g clip-path="url(#a)"><g clip-path="url(#b)" fill="#fff"><path d="m91.1218 27.9686c-.4044.2026-.7728.3657-1.1128.5684-.0447.0422-.0802.0935-.1041.1506-.024.0572-.0359.1188-.035.181-.085 1.5-.1313 3.0052-.2575 4.5026-.067.8895-.2293 1.7763-.3684 2.6579-.0045.0792-.0295.1558-.0723.2219-.0429.0662-.1021.1196-.1716.1549-.0696.0353-.147.0511-.2245.0459-.0775-.0051-.1523-.0311-.2168-.0753-.3211-.1983-.6307-.4153-.9273-.65-.3295.258-.7105.4388-1.116.5298-.4055.0909-.8256.0897-1.2306-.0035-.8784-.2-1.6073-.6316-1.9654-1.5027-.3564.4998-.7463.9737-1.1669 1.4185-.2877.2345-.6357.3789-1.002.4157-.524.0711-1.0549.0711-1.579 0-.6027-.0868-.9195-.5263-1.1436-1.1131-.201-.5263-.0851-.9737.0334-1.4632.1932-.7894.3916-1.5973.5667-2.3921.1752-.7947 0-1.6684-.0257-2.5052-.032-.1528-.0895-.2988-.17-.4316-.5822.2631-1.136.5105-1.6692.7895-.0726.0464-.1348.1079-.1828.1804-.0479.0725-.0804.1545-.0954.2406-.0412.479 0 .9632-.0386 1.4421-.1013 1.2649-.2181 2.529-.3503 3.7921-.0502.4628-.1302.9217-.2396 1.3737-.1262.5105-.2576.5395-.7238.3105-.3169-.1579-.6594-.2631-.984-.3947-.0966-.0428-.1904-.0921-.2808-.1474-.4768.2465-.97.4584-1.4759.6342-.4483.1047-.9092.1411-1.3678.1079-.7728-.021-1.5455-.6947-1.7568-1.4921h-.3812c.0696-.2237.1314-.4158.1932-.6079-.1897.0735-.3718.166-.5435.2764-.1646.1417-.2928.3224-.3735.5263-.2859.1947-.6749.3263-.8346.6-.2859.4894-.4508.0973-.6877.0368-.4463.0016-.885-.1173-1.2717-.3447-.3868-.2274-.7078-.5551-.9307-.95-.9763.7263-1.986.7315-3.0266.2763-.4817-.2105-1.0433-1.3158-.984-1.9105.1107-1.1237.1623-2.2579.3529-3.3632.1159-.6658.4353-1.2947.6929-1.9289.0798-.1948 1.1256-.479 1.3137-.379.0927.0474.2163.1763.2138.2632-.0206.3842-.1185.7631-.1211 1.1473 0 .6237-.2911 1.2711.1262 1.8685.0281.068.0388.1423.0309.2157.0361.7553.0438 1.5132.1108 2.2632-.0032.0939.0183.1869.0623.2695.0439.0825.1086.1515.1875.1999.0789.0483.1689.0742.2609.075.092.0007.1824-.0237.262-.0707.0512-.0235.0971-.0573.1352-.0993.0381-.0421.0674-.0915.0864-.1455.2163-1.2526.4817-2.4973.6027-3.7578.0721-.7553-.0876-1.5343-.1416-2.2895-.9145-.3316-.9428-.3948-.8037-1.75l.7727-.0763c.1417-1.2185.2576-2.4316.4276-3.6369.1108-.8105.3607-1.2447 1.0999-1.4579.5152-.15 1.0484-.2421 1.5842-.3631.1082 1.1394.0283 1.9605-.2447 2.4658l.0953-.0369c-.1134.8105-.237 1.6816-.3709 2.6184.6027.0658 1.1514.1448 1.7052.1764.3168.0157.5924.0631.6671.4157.0747.3527.1803.7211-.1288 1.0527-.1654.1984-.3169.4086-.4533.6289h-1.7851c-.0515 1.7527-.103 3.4553-.1442 5.1605.0001.2787.0234.5569.0695.8316.0567.4027.6285.6711 1.1076.4869.3504-.1342.6646-.2632.6105-.8237-.0811-.9434-.0915-1.8918-.0309-2.8369.0471-.4782.1835-.9427.4018-1.3684.2351-.5605.5559-1.0793.9505-1.5368.3491-.3021.779-.4901 1.2339-.5395.2539-.04.5136.0073.7383.1345.2248.1272.4018.327.5032.5681.2241.4579.4405.9185.6595 1.3764-.6852.2631-1.0304.1131-1.6125-.7106-.1249.5563-.211 1.1208-.2576 1.6895-.0258 1.2474 0 2.4974.0463 3.7447.0275.3022.1495.5873.3481.813.1987.2256.4632.3798.7544.4397.0792.0064.1587-.0059.2324-.036.0738-.0301.1397-.0773.1926-.1377.377-.5149.6318-1.1122.7445-1.7447.0987-.542.1658-1.0894.2009-1.6395.0232-1.0053-.0438-2.0132-.0155-3.0211.0258-.9289.1262-1.8579.1881-2.7895.0644-.9921.0875-1.9868.1983-2.9736.0773-.7079.0773-1.4553.5152-2.0685.3709-.5052 1.5017-.8579 1.8932-.6447v6.6921c.2293-.1579.492-.3474.7599-.5263.644-.4105 1.3111-.6 2.0427-.2395.093.0404.1909.0678.291.0816.7033.1263.9608.671 1.1618 1.2763.4172 1.2579.0927 2.5474.1416 3.8237-.0254.2167-.0836.4279-.1726.6263-.018-.1289-.0334-.2631-.0515-.4026h-.0669v.7921l.1854-.0763c-.0386.571-.0747 1.1237-.1133 1.7105.814-.1842 1.1127-.5921.9711-1.2974-.2512-1.2396-.1775-2.5251.2138-3.7263.211-.5142.5092-.9864.8809-1.3947.3097-.347.6419-.6723.9943-.9737.1932-.0184.4147-.0474.6362-.0553 1.1308-.0394 1.9963.7685 2.0891 2 .0338.4202-.0271.8426-.178 1.2349-.151.3924-.3879.7441-.6927 1.0283-.4044.3842-.9299.6921-1.6125.4289.0876.7053-.3013 1.3843.1185 2.0132.2025.2823.4339.5417.6904.7737.147.1758.3386.3069.5538.3789.3231.0425.6512.0256.9685-.05.3039-.0658.1623-.3447.1674-.5526.0284-.7026.0567-1.4053.1134-2.1053.0978-1.1921.2215-2.3815.3219-3.5737.0803-.5325.3058-1.0312.6507-1.4389.3448-.4077.7951-.708 1.2993-.8663.4121-.1.6233.1158.5332.5263-.0272.1874-.0427.3764-.0464.5658l.0979.1026c.4099-.2319.8048-.4903 1.1823-.7737.559-.4737 1.1334-.6526 1.7748-.25.6414.4027.7135 1.0842.662 1.7579-.0824 1.0527-.2035 2.0816-.3503 3.1132-.0946.4625-.2141.9194-.3581 1.3684-.0366.1272-.0532.2596-.0489.3921.0154.25-.0206.6605.0979.7184.4077.1685.8342.2852 1.2699.3474.0468-.0394.0851-.0882.1126-.1435.0275-.0552.0435-.1157.0471-.1775-.0529-.1618-.0565-.3361-.0105-.5.0459-.164.1394-.3098.268-.4185.7522.9974.3401 2.2342-.7727 2.7579-.8758.4106-1.713.3184-2.5759.1395-1.0303-.2158-1.53-1.4053-1.1282-2.5658.2988-.8579.6131-1.7105.8706-2.5816.2243-.6761.2342-1.4072.0284-2.0894zm-5.6205-.0737c-.6311.5447-.7084 1.45-.7934 2.1763.002.0468.0162.0922.0411.1315s.0596.0711.1006.0922c.1425.085.3079.1211.472.1031s.3182-.0892.4398-.2031c.5641-.5027.286-1.779-.2576-2.3"/><path d="m35.4158 34.8841c-.4894.5552-1.1051.6605-1.7542.6789-.7727.0211-1.0535-.6158-1.4347-1.1605-.134.1553-.2576.2632-.3555.4105-.5152.6685-1.2648.6579-1.9242.45-.8835-.2815-1.3858-.9921-1.8778-1.7237-.3632-.5394-.7393-1.071-1.1565-1.6736.1236.4579.2395.8421.3322 1.2342.2113.8842.4302 1.7684.5976 2.6658.0387.2131-.1081.4657-.188.6947-.0299.0141-.0624.0215-.0953.0215s-.0654-.0074-.0953-.0215c-.2782-.2632-.5435-.5263-.8294-.8079l-.17.2026c-.0361-.0342-.0696-.05-.0747-.071-.1443-.4658-.456-.8211-.7058-1.2211-.2501-.4219-.4115-.8924-.474-1.3816-.2009-1.4315-.3168-2.8763-.5152-4.3105-.1725-1.3158-.4121-2.6316-.5898-3.9473-.0773-.579-.0747-1.1711-.1159-1.8843.4765-.0579.953-.1342 1.4347-.1552.085 0 .1777.2184.2576.3131.595-.2184 1.172-.5263 1.7825-.621.5472-.0839 1.1064-.0251 1.6254.171.4497.1713.8467.4617 1.1504.8413s.5032.8349.578 1.3193c.2576 1.3894 0 2.5947-1.0304 3.5921-.4559.4394-.8706.9237-1.3085 1.3921.4688 1.1421 1.3446 1.9552 2.3646 2.6316.1474.0921.3071.1621.474.2079.2962.0947.4791.0131.4611-.3501-.0232-.4236-.0361-.85-.0438-1.2736-.0135-.1612.0022-.3236.0463-.479.2576-.6868.3246-1.5421 1.0304-1.9079.407-.2105.9608-.1789 1.4451-.1605.2756 0 .3606.6158.2447.9974-.2004.6062-.3546 1.2273-.4611 1.8579-.0615.6013-.0778 1.2066-.049 1.8105-.0036.1017.0193.2026.0663.2924s.1164.1653.2012.2188c.0848.0534.1819.083.2815.0857.0997.0026.1982-.0217.2856-.0706.0359-.0296.0651-.0668.0855-.1091.0205-.0422.0317-.0885.033-.1356.0361-1.1.0593-2.2.0876-3.3.0154-.4948.7727-1.4027 1.2441-1.4474.2618.009.5214.0514.7728.1263v4.8474c.1407-.0262.2746-.082.3931-.1639s.219-.1882.2951-.3119c.0761-.1238.1261-.2624.1469-.4071.0207-.1446.0118-.292-.0263-.4329-.0993-.5016-.1511-1.0119-.1545-1.5237 0-.4868.0438-.9789.0747-1.4684s.3735-.7158.7135-.9211c.2489-.1697.5427-.2576.842-.252.2992.0057.5896.1046.8323.2836-.018.1211-.0386.2632-.0773.5079.4199-.2895.7547-.5263 1.0999-.7553.3452-.2289.7599-.6 1.1797-.6815.3169-.0606.7033.2237 1.0484.3789.0902.0395.1443.1684.2164.2632.3549-.3495.7355-.6706 1.1385-.9606.4296-.2323.8777-.4268 1.3395-.5815.0652-.0189.135-.0124.1957.0184.8733.5079 1.288 1.3026 1.4451 2.2974.3069 1.9846.265 4.0093-.1236 5.9789-.0066.2773.0272.554.1004.8211l1.1746-.8974c.0051.1677-.014.3353-.0566.4974-.5152 1.0052-1.306 1.621-2.46 1.6842-.1696.0114-.3396-.0153-.4981-.0782-.1584-.0629-.3015-.1605-.4191-.2859-.1175-.1254-.2068-.2756-.2615-.44-.0548-.1644-.0736-.3391-.0551-.5117.0669-1.75.1107-3.5027.1416-5.2632.0053-.3668-.0514-.7318-.1674-1.0789-.1004-.206-.2748-.3644-.4868-.4421-.0825-.0316-.2808.1894-.3993.321-.0843.079-.1509.1756-.1953.2832-.0445.1076-.0657.2237-.0623.3405.0232 1.6026.2576 3.2105-.0592 4.8026-.0556.2521-.1755.4846-.3474.674-.1718.1895-.3897.3292-.6315.405-.1708.0811-.3622.1051-.5472.0688-.1849-.0364-.354-.1314-.4831-.2715-.0878-.0651-.1579-.152-.2035-.2526-.0876-.5605-.1855-1.1263-.2215-1.6921-.0618-1.0184-.0773-2.0395-.1185-3.0605-.0155-.3658-.049-.7342-.0824-1.2237-.4045.2632-.7728.4842-1.1051.7395-.0695.0552-.067.2395-.067.3631.0232 1.6185.0928 3.2342.0593 4.8527-.0129.5815-.2576 1.1631-.4199 1.7368-.0312.056-.0755.1031-.1291.1371-.0535.034-.1145.0538-.1774.0576-.3268-.0286-.6328-.1757-.8628-.4145-.23-.2389-.3689-.5538-.3916-.8881-.0232-.2631-.0207-.5263-.0258-.7895-.0052-.2631 0-.5263 0-.8921-.3606.2764-.6156.5027-.899.6816-.6105.3869-1.2287.4895-1.8623-.0921zm-8.7657-6.329c.8346-.0605 1.5919-.7894 1.5996-1.6105 0-.5105 0-1.1474-.2576-1.5026-.3271-.4237-.9376-.6448-1.4579-.8711-.3271-.1447-.5383.0658-.4791.429.188 1.1894.3993 2.3684.6027 3.5552"/><path d="m60.5488 36.5633c-.3375-.15-.7728-.2368-.8295-.7342-.093-.6242-.1301-1.2557-.1107-1.8868.0695-.7895.3761-1.5632.4147-2.3526.0261-1.0897-.0083-2.1801-.103-3.2658-.0284-.4395-.456-.6658-.8964-.5421-.7342.2052-1.4631.421-2.2153.6368l1.7336-3.4947c-.6388-.3342-1.1592-.0185-1.5919.5263-.5306.6763-1.0458 1.3658-1.5713 2.05-.0695.0921-.1494.1763-.2241.2631-.0412-1.1973-.5306-2.3315-.188-3.5184-.3355-.1039-.6809-.1709-1.0304-.2-.4125.0496-.8219.1234-1.2261.2211-.1752.0315-.339.11-.4748.2274-.1358.1175-.2386.2697-.2979.441-.3418.8082-.4491 1.6997-.3091 2.5684.1365.8974.2009 1.8079.2833 2.7132.1211 1.3526.1932 2.7079.3555 4.0552.1228.9099.2948 1.8122.5151 2.7027.0975.5159.3359.9931.6878 1.3763l.0412-.4947h.1237c.0798.2157.2395.4421.2189.6473-.0083.0529-.0059.1069.0073.1588.0131.0518.0367.1003.0691.1423.0325.0421.0731.0768.1194.102.0462.0251.0971.0402.1494.0443.3259.0487.6567.054.9839.0158.0567 0 .1443-.1842.1443-.2842 0-.429-.0258-.8579-.0309-1.2869-.0052-.4289 0-.8526.0232-1.2789.0257-.6053.1107-1.2105.0875-1.8132 0-.2158-.0231-.4316-.036-.65-.0347-.2299-.0527-.4621-.0541-.6947-.0438-.5079-.0876-1.0158-.1185-1.5263-.0451-.3334-.0188-.6728.0773-.9948.237-.5868 1.1359-.9894 1.8443-.8947.0094.2001.0397.3985.0902.5921.1365.3789-.2216.5763-.2731.8789-.1417.8474-.3014 1.6948-.4353 2.5422.0643.4749.1546.9458.2705 1.4105.0592-.2079.1339-.4106.188-.6158.0824.8052.1545 1.6052.5435 2.3289l-.1339-.5842.139-.0737c.2576 1.0527.9119 1.6974 1.8856 2.0737-.0206-.1131-.0309-.1842-.0464-.2631.2684.1086.566.1152.8388.0186.2727-.0966.5025-.29.6475-.5449.2576-.4895.2318-.5264-.2731-.7369"/><path d="m63.568 23.5765c.121.379.2756.8211.3941 1.2711.0351.1554.0188.3183-.0464.4632-.1072.2916-.2681.5596-.4739.7894-.2838.2236-.6038.3946-.9454.5053-.0776.0005-.154-.0196-.2218-.0584-.0677-.0387-.1244-.0948-.1645-.1627-.1288-.4947-.2087-1.0052-.2911-1.5131-.002-.0914.0184-.1818.0592-.2632.0807-.1679.1429-.3444.1855-.5263.0464-.3974.2885-.5052.6233-.5105h.881"/><path d="m97.0029 36.8841c0 .3606-.5951 1.0527-.8913 1.0527-.4636 0-1.0432-.5421-1.0303-.9448.0051-.3064.1253-.5992.3358-.8177.2105-.2184.4951-.3459.795-.3559.4636.0184.8036.4789.7933 1.0736"/></g></g></svg>