<svg fill="none" height="60" viewBox="0 0 120 60" width="120" xmlns="http://www.w3.org/2000/svg" xmlns:xlink="http://www.w3.org/1999/xlink"><clipPath id="a"><path d="m0 0h120v60h-120z"/></clipPath><g clip-path="url(#a)"><path clip-rule="evenodd" d="m29.7655 20.02c-.1784.0169-.5434.0678-.8112.113-.2678.0453-.6791.1347-.9141.1988-.235.064-.5772.1708-.7605.2372-.1833.0665-.607.2541-.9417.4171-.3346.1629-.7909.4158-1.014.5619-.223.1461-.5713.3974-.7738.5585-.2025.161-.5297.4516-.7269.6457-.1973.1941-.4894.5105-.6491.7032s-.3897.4931-.511.6674c-.1214.1744-.3084.4672-.4157.6508-.1072.1835-.2686.4887-.3585.6781-.09.1895-.2188.4898-.2862.6675-.0674.1776-.1653.4596-.2174.6267-.0521.167-.1333.4749-.1804.6841-.0472.2092-.1128.5605-.1459.7808-.0465.3094-.0599.6051-.0591 1.3014.001.7587.0128.9748.0751 1.3682.0407.257.1189.6474.1737.8677.0549.2202.1695.6007.2547.8454.0852.2448.2361.6216.3354.8375.0992.2158.2756.5562.392.7563.1163.2001.3108.5065.4321.6809s.3201.4372.4419.584c.1217.1468.333.3888.4694.5377.1365.1489.4008.4042.5872.5673.1866.1631.5079.421.7141.573.2063.1521.5361.3719.7328.4886.1968.1166.5251.2943.7296.395s.5467.2509.7605.3337c.2138.0829.5187.1895.6777.2368.1589.0475.4479.1237.6422.1695.1942.0457.5676.1137.8297.1511.262.0373.7259.0774 1.0309.089.3359.0127.7475.0052 1.0445-.0191.2695-.022.665-.0694.8788-.1052.2137-.0359.5636-.1091.7773-.1627.2138-.0536.5649-.1576.7802-.231s.5347-.1954.7098-.2712c.1751-.0756.4628-.214.6394-.3074.1766-.0935.4428-.2448.5915-.3364s.4149-.2718.5915-.4004.4587-.3503.6269-.4926c.1682-.1424.4479-.4055.6215-.5847.1735-.1793.4379-.4772.5874-.662.1496-.1848.3917-.5163.538-.7365.1464-.2203.3704-.6032.4977-.851.1274-.2478.2848-.5781.3498-.7341s.1664-.4263.2253-.6007c.059-.1744.1588-.5273.2218-.7842.0631-.257.1379-.6264.1664-.8209s.066-.5874.0834-.8731c.0186-.3075.0195-.7283.0021-1.0312-.0162-.2815-.0541-.677-.0841-.8789-.0301-.2018-.0915-.5247-.1365-.7174-.0449-.1927-.1123-.4555-.1498-.584-.0374-.1285-.132-.4063-.2102-.6174-.0782-.211-.267-.6315-.4194-.9343-.1525-.3029-.4143-.7534-.5818-1.0012-.1675-.2477-.404-.5721-.5255-.7207s-.3679-.4228-.5474-.6093c-.1796-.1864-.4656-.4566-.6355-.6004-.1699-.1439-.4535-.3667-.6301-.4954-.1766-.1286-.4428-.3089-.5915-.4006-.1487-.0918-.4301-.2505-.6253-.3528-.1952-.1022-.5155-.2532-.7119-.3354-.1963-.0823-.5719-.2178-.8346-.3014-.2627-.0835-.6591-.1896-.8808-.2359-.2217-.0462-.5762-.1073-.7877-.1359-.2115-.0285-.6964-.058-1.0775-.0656-.3811-.0075-.8389.0001-1.0172.0171zm4.7531.8545.1627.022-.3185.1049c-.1752.0577-.4313.1613-.5693.2302-.1379.069-.3621.2013-.4982.2942s-.3595.276-.4964.4069-.3432.3643-.4585.5187c-.1153.1545-.2763.4173-.3577.584-.0815.1668-.1783.3933-.2152.5035-.0368.1101-.0916.3205-.1218.4676-.0331.162-.0508.3836-.0448.5624l.0099.2951.3887.1115c.2137.0612.5255.1658.6929.2323.1673.0665.4608.2016.6524.3002.1915.0985.4722.2664.6237.3731s.4066.3216.5667.4776c.1602.156.3715.3963.4695.5339.098.1377.2434.3779.3232.5339.0798.1561.192.4149.2493.5753.0573.1603.1384.4607.1801.6674.0625.3094.076.488.0764 1.0099.0004.479-.0144.7072-.0603.9331-.0335.1646-.1068.4424-.163.6174-.0561.175-.183.4834-.282.6853s-.2516.4722-.339.6007c-.0875.1285-.2419.334-.343.4568-.1011.1227-.2857.3179-.4103.4338-.1245.1158-.3317.2884-.4605.3835-.1288.095-.3454.2357-.4813.3124-.1359.0768-.3861.1988-.556.2711s-.4779.1742-.6845.2264c-.2065.0522-.515.1135-.6856.1361-.1993.0265-.5073.0346-.8619.0226-.3128-.0106-.6615-.0423-.8052-.0734-.1394-.0302-.4077-.1054-.5962-.1672s-.4933-.187-.6774-.2782-.4774-.2601-.6517-.3752c-.1744-.1151-.4762-.3606-.6707-.5454-.1946-.1849-.4486-.4563-.5645-.6031s-.276-.3721-.3558-.5006c-.0798-.1284-.2178-.3837-.3067-.5673-.0889-.1835-.2092-.4741-.2672-.6457-.0581-.1716-.1423-.487-.1873-.7008-.0449-.2138-.0976-.6098-.1169-.8799-.0246-.3437-.0244-.6231.0007-.9306.0198-.2416.066-.5928.1026-.7804.0367-.1876.1118-.4995.1668-.6932.0551-.1936.1614-.5037.2361-.689.0748-.1853.2208-.5039.3245-.7079.1036-.2041.2655-.4931.3597-.6423s.3018-.444.4612-.655c.1594-.2111.4881-.5801.7304-.82.2424-.2399.6232-.5708.8463-.7353.2231-.1646.5729-.3984.7774-.5196.2045-.1211.5429-.3047.7519-.4077.2091-.1032.5361-.2489.7267-.3239s.4835-.1805.6508-.2344.4487-.134.6253-.178.4579-.1041.6253-.1335c.1673-.0294.4182-.0661.5576-.0815.1395-.0154.4454-.03.6798-.0323.2344-.0024.4994.0055.5888.0176zm40.8944 2.8304c-.1125.0255-.2836.0759-.38.112-.0965.0362-.2456.1065-.3314.1561-.0859.0497-.2432.1776-.3495.2842s-.2475.2964-.3139.4218c-.0663.1254-.1519.3291-.1902.4526-.0383.1234-.0854.3766-.1048.5625-.0193.1858-.0351.4415-.0351.568v.2301h-.4563-.4563v.7341.7342h.4563.4563v2.7364 2.7364h.9126.9126v-2.7364-2.7364h.7605.7605v-.7342-.7341h-.7644-.7645l.0133-.3255c.0106-.2618.0296-.3582.0968-.492.0489-.0971.1433-.2107.2266-.2727.0869-.0645.2195-.1221.338-.1467.1492-.031.2722-.0317.5227-.0031.1803.0206.4079.0676.5059.1043.0979.0368.1879.0558.2.0423s.064-.3354.1154-.7153c.0513-.3799.0851-.712.075-.7379-.0104-.0268-.1909-.0951-.4183-.1583-.3743-.104-.438-.1118-.9915-.1199-.4116-.006-.6538.0054-.7963.0375zm-12.2503 1.4524c0 .7342-.0132 1.3349-.0292 1.3349s-.1567-.0334-.3127-.0741c-.2423-.0634-.3692-.074-.8749-.0731-.5035.0009-.6318.012-.8619.0746-.1487.0405-.3798.1248-.5135.1873-.1336.0625-.3386.1778-.4554.2561s-.3118.2409-.4335.3613-.2959.3301-.3872.466-.2249.382-.2969.5469-.1683.4529-.214.6401c-.0457.1871-.0956.4986-.1109.692-.0153.1935-.0159.5226-.0015.7313.0145.2088.0501.4922.0792.6299.029.1376.0925.3704.1411.5172s.1418.3721.2071.5006.1687.3109.2299.4055c.0611.0945.2132.2786.3379.4091.1246.1305.3324.3066.4616.3915.1292.0848.3375.1967.4628.2487s.3618.1176.5256.1458c.1637.0282.3951.0512.5143.0512s.334-.0238.4772-.0529c.1524-.031.3698-.109.5238-.1879.1448-.0743.3375-.201.4284-.2816.1395-.1239.1679-.1374.1826-.0874.0096.0325.0277.1456.0403.2511l.0227.1919h.8411.8411v-4.8054-4.8054h-.9126-.9125zm-9.4524 1.2153c-.1331.025-.3232.0713-.4225.1029s-.3059.1224-.4591.2018c-.1533.0794-.3676.2119-.4763.2945-.1088.0826-.2787.2375-.3778.3442-.099.1067-.2492.2991-.3337.4276-.0845.1284-.2094.3612-.2776.5172-.0681.156-.1653.4413-.216.6341-.0752.2858-.0954.4492-.1097.8872-.0134.411-.0044.6127.0384.8605.0307.178.0952.447.1433.5977.0481.1508.1379.3793.1996.5078.0617.1284.1729.3262.2471.4394s.2448.32.3791.4596c.1342.1395.3445.3191.4672.3992.1228.0801.3209.1939.4403.253.1193.059.3627.1457.5407.1926.283.0746.394.0855.8815.0871.4667.0016.6062-.0101.8551-.0717.1637-.0405.4105-.1251.5485-.1881.1381-.063.3655-.1926.5055-.2882.1399-.0955.3449-.2691.4555-.3858.1106-.1168.2645-.3045.342-.4171.0775-.1127.2063-.3419.2862-.5093.0799-.1675.1837-.4471.2306-.6215.047-.1743.1035-.4429.1255-.5968.0243-.1692.0329-.4597.0218-.7342-.01-.2499-.0426-.5645-.0723-.6992-.0297-.1346-.092-.3565-.1384-.493s-.1435-.3642-.2158-.506-.2013-.3513-.2865-.4655c-.0853-.1142-.2504-.2994-.3669-.4116-.1164-.1122-.3135-.2708-.4378-.3524-.1244-.0816-.3241-.1923-.4439-.2459s-.3375-.1297-.4839-.1692c-.2061-.0555-.388-.0745-.8069-.084-.3645-.0083-.6197.0025-.7828.0331zm14.7589.002c-.1394.0263-.3904.0869-.5577.1348-.1673.0478-.4411.1512-.6084.2296s-.3906.1974-.4963.2645c-.1057.067-.201.1361-.2118.1534-.0109.0174.1112.3066.2713.6428.1602.3362.2951.6154.2999.6203.0048.005.0984-.05.208-.1222.1096-.0723.3062-.185.4369-.2505s.3588-.1499.507-.1874c.1785-.0453.3778-.0684.5905-.0685.1965-.0001.3908.0205.5007.053.1251.0371.2291.1006.3431.2097.122.1168.1773.2027.2176.3379.0297.0997.054.2587.054.3533v.1721l-.5662.0578c-.3114.0318-.7228.0875-.9142.1238-.1915.0362-.4828.1093-.6474.1624s-.4111.1517-.5476.219c-.1366.0673-.3575.2029-.4909.3013-.1463.108-.3039.2638-.3972.3929-.085.1176-.1906.2945-.2346.3931-.0441.0986-.0973.2588-.1183.3561-.021.0972-.0382.3156-.0382.4852s.023.3979.0511.5072c.028.1094.1139.3257.1907.4806.1061.214.1978.3384.381.5173.1328.1295.327.2854.4317.3463.1047.061.3001.1475.4341.1923.1341.0447.3521.0981.4845.1186.1325.0204.371.0289.53.0188.1591-.01.3872-.0429.507-.073.1198-.0302.3289-.1087.4647-.1744.1357-.0656.3208-.185.4112-.2653l.1643-.1459.0176.0924c.0096.0508.027.1637.0387.2509l.0211.1585h.826.826v-2.4709c0-2.1214-.0075-2.5069-.0533-2.7259-.0294-.1404-.0889-.3482-.1322-.462-.0434-.1137-.1423-.3059-.2198-.427-.0774-.1212-.2382-.3084-.3572-.416-.119-.1077-.3046-.2422-.4123-.2989s-.3323-.143-.4991-.1919c-.2646-.0776-.3767-.0905-.8779-.1013-.405-.0088-.6494.0016-.8281.0352zm11.7453-.0274c-.0557.0088-.223.0457-.3718.0821-.1487.0363-.4072.1325-.5745.2138-.1674.0812-.4278.2442-.5788.3621-.1509.118-.3658.3302-.4774.4715-.1117.1414-.2717.3869-.3557.5456s-.1921.4058-.2401.5491c-.0481.1434-.1143.3836-.147.534-.0439.2011-.0595.4232-.0592.8406.0003.4261.016.638.0629.851.0343.156.1076.4113.1628.5673s.161.3963.2352.5339c.0742.1377.2191.3593.322.4925s.2653.3121.3608.3974.2775.2218.4043.3033c.1269.0814.3287.192.4487.2457.1199.0537.3431.1275.496.164.1529.0366.4391.076.636.0875.218.0129.4884.0049.6917-.0204.1837-.0228.4333-.0717.5547-.1087s.3273-.1199.4574-.1841c.1301-.0643.3279-.1808.4395-.259.1117-.0781.3111-.2544.4432-.3917.132-.1373.3186-.3756.4145-.5295.096-.1539.2215-.4001.2791-.5471.0575-.147.1411-.409.1857-.5822s.0951-.4736.1122-.6674c.0195-.2217.0187-.4927-.0021-.7304-.0183-.2078-.0706-.5199-.1163-.6935s-.1206-.4068-.1665-.5183c-.0458-.1114-.1376-.2984-.204-.4155-.0663-.1172-.2089-.3227-.3168-.4568-.1079-.134-.2784-.312-.3788-.3955-.1005-.0835-.255-.2-.3434-.259-.0885-.059-.271-.1588-.4056-.2217-.1347-.063-.3666-.1464-.5153-.1854-.2094-.0548-.3924-.0731-.8112-.081-.2974-.0056-.5864-.003-.6422.0058zm8.1964.0279c-.1208.0268-.3337.0878-.4732.1358-.1394.0479-.3371.1327-.4394.1884-.1022.0557-.2564.1508-.3427.2113l-.1568.1101-.0417-.2642-.0416-.2643h-.8409-.8408v3.4711 3.471l.921-.0088.9211-.0089.0086-2.4509.0087-2.4508.0758-.0806c.0417-.0443.1671-.1448.2786-.2232.1116-.0784.2798-.1807.374-.2274.0941-.0466.2687-.1022.3881-.1236.1193-.0214.3009-.0293.4035-.0176.1025.0117.2811.0663.3968.1213.1323.063.2531.1521.3255.2403.0633.0771.1474.2035.1869.2809.0395.0775.0973.2351.1284.3504.0495.1833.0582.4847.0694 2.4037l.0129 2.1942h.9106.9106v-2.1441c0-1.1894-.0153-2.3026-.0343-2.5002-.0188-.1959-.0713-.5008-.1168-.6776-.0454-.1767-.1358-.4294-.2009-.5615-.0652-.1321-.1765-.3149-.2473-.4062-.0709-.0913-.2198-.2383-.331-.3268-.1111-.0884-.2856-.2001-.3879-.2482-.1022-.0482-.2924-.1167-.4225-.1525-.1662-.0456-.3773-.0686-.7098-.0772-.332-.0087-.5387.0021-.6929.0361zm6.7599.0127c-.158.0341-.4026.1094-.5435.1674-.141.058-.3725.1807-.5146.2728-.142.0921-.3549.2614-.473.3763s-.2801.3039-.36.4201c-.0798.1161-.2109.3481-.2911.5155-.0803.1675-.1845.4509-.2316.63-.047.1791-.1031.5274-.1247.7741-.0299.3432-.0297.5478.0011.8709.0221.2322.0773.5667.1227.7434s.1572.4718.2485.6557c.0912.184.241.4321.3327.5514.0918.1193.2606.3025.3751.4072.1145.1046.3299.2642.4786.3546.1488.0904.4151.2116.5918.2695.1768.0579.4771.1288.6674.1577.2533.0385.4746.0475.8267.0335.308-.0122.631-.0491.8991-.1027.2301-.0461.5537-.1302.7192-.1872.1654-.0569.411-.165.5458-.2403.1347-.0753.245-.1585.245-.1848s-.1007-.3502-.2239-.7199c-.1231-.3695-.2307-.6836-.2391-.6978-.0084-.0143-.0636.0145-.1226.0639s-.2337.1477-.3882.2185c-.1545.0707-.3902.1581-.5239.1942-.1336.0361-.3925.0809-.5752.0995-.2242.0228-.4303.0229-.6339.0001-.1659-.0186-.4006-.0705-.5216-.1155-.1209-.0449-.2858-.1265-.3664-.1812-.0805-.0548-.1945-.1535-.2532-.2195s-.1448-.1943-.1914-.285c-.0465-.0907-.1071-.2591-.1346-.3742-.0275-.115-.0502-.258-.0504-.3176l-.0005-.1085h2.2694 2.2695l-.0193-.5756c-.0106-.3166-.0439-.7108-.0741-.8759s-.1002-.4339-.1557-.5975c-.0555-.1635-.1685-.4263-.2512-.5841-.0826-.1577-.227-.3803-.3208-.4946-.0939-.1142-.2649-.283-.3802-.3751s-.3164-.2194-.447-.2827c-.1306-.0634-.3743-.1553-.5416-.2042-.2581-.0755-.3835-.0909-.8281-.1017-.4209-.0102-.5803-.0005-.8112.0493zm-51.6652.1622c.0121.0325.6716 1.594 1.4657 3.4701l1.4437 3.4111.7991.001c.6086.0008.8031-.0089.8159-.0406.0092-.023.6496-1.5771 1.4232-3.4536.7735-1.8766 1.4064-3.4195 1.4064-3.4289 0-.0093-.4152-.0169-.9227-.0169h-.9227l-.8762 2.2692c-.4819 1.248-.8842 2.2689-.894 2.2687-.0098-.0003-.4225-1.0177-.9171-2.2609l-.8993-2.2603-.972-.0089c-.9167-.0084-.9707-.0055-.95.05zm52.7179 1.2773c.1182.0368.2742.1116.3468.1662s.1894.1748.2596.267c.0703.0923.1585.249.1961.3482s.0786.2568.0911.3501l.0228.1697h-1.3225c-1.2483 0-1.3225-.0034-1.3225-.0598 0-.0328.0233-.1481.0518-.2561s.092-.2694.1412-.3587c.0493-.0892.1524-.2195.2292-.2894s.2137-.17.3042-.2223c.0905-.0524.234-.1137.3189-.1363.085-.0226.2252-.0421.3115-.0434.0864-.0012.2537.0279.3718.0648zm-41.5377.0372c.0985.0207.2549.0753.3477.1214.0927.0462.2555.1715.3616.2787.1232.1242.2355.2827.31.4375.0643.1336.145.3629.1792.5098.0458.1969.0616.394.0601.7508-.0015.3503-.0188.5484-.0626.7175-.0333.1285-.1125.3419-.1761.4744-.0668.1392-.195.3255-.3038.4415-.1269.1354-.2614.2364-.4127.3099-.2122.1031-.2445.109-.5968.109-.3488 0-.387-.0068-.6004-.1065-.13-.0608-.2974-.1755-.39-.267-.0892-.0882-.21-.2431-.2685-.3442-.0584-.101-.148-.3187-.199-.4838-.085-.275-.0929-.3477-.095-.8675-.002-.4938.0076-.601.0739-.8275.042-.1432.1209-.3475.1754-.454.0545-.1066.1752-.276.2682-.3766.0943-.1018.2595-.2303.3732-.2901.1122-.059.2689-.12.3482-.1354s.2082-.0297.2863-.0317c.078-.0021.2225.0132.3211.0338zm7.8347-.0028c.1208.0189.3147.065.4309.1026l.2113.0684v1.728 1.7279l-.1699.1569c-.0935.0863-.2663.2015-.3841.2559s-.3033.1133-.4122.1308c-.1304.0209-.2732.0199-.4181-.0029-.1211-.0191-.2812-.0619-.3558-.0951-.0747-.0332-.1962-.1085-.2701-.1673-.0739-.0587-.1991-.1921-.2783-.2964-.0793-.1043-.1811-.2807-.2264-.392s-.1086-.3215-.1406-.4672c-.0383-.174-.0584-.4135-.0585-.6986-.0002-.3389.0154-.4908.0715-.6941.0395-.1432.1289-.3685.1985-.5006.0705-.1336.2097-.3228.3136-.4262.1107-.11.2765-.229.4066-.2916.1208-.0582.3033-.1193.4056-.1356.1022-.0164.2467-.0314.3211-.0335.0743-.002.234.0118.3549.0306zm18.5248-.0008c.0995.0186.2498.0664.3341.1063.0843.0398.2527.171.3741.2915.1431.1418.2579.2954.3259.4359.0577.1193.1308.3146.1623.4339.0316.1193.0657.4087.0759.6431.0116.2688.0029.5212-.0236.6833-.0231.1415-.078.3622-.122.4906s-.1485.3325-.2323.4536c-.0838.121-.2137.2688-.2889.3284-.0751.0596-.2237.1487-.3301.198-.1734.0802-.2324.0895-.5654.0893-.3332-.0001-.392-.0095-.5672-.0904-.1074-.0496-.2844-.174-.3932-.2765-.13-.1225-.2398-.2687-.3203-.4268-.0673-.1323-.155-.3607-.1949-.5075-.0593-.2187-.0725-.3607-.0725-.7843 0-.4231.0131-.5645.0718-.7774.0394-.143.1171-.3533.1725-.4671.0554-.1139.1682-.2822.2505-.3739.0824-.0918.2361-.218.3415-.2805s.2707-.1326.3672-.1557c.0966-.0231.2382-.0433.3147-.0449.0764-.0015.2204.0124.3199.0311zm-10.9953 3.0424-.0091.7071-.2175.1438c-.1196.0791-.3021.1763-.4056.2159-.1295.0496-.2913.0769-.5191.0875-.2105.0097-.3864 0-.4833-.0267-.0837-.0232-.2119-.0848-.2849-.137s-.1635-.1546-.2012-.2275c-.0476-.0922-.0685-.1975-.0685-.3455 0-.1703.0205-.2534.1024-.4153.0571-.1127.1547-.2417.2203-.2911.0648-.0488.1848-.118.2667-.1538.082-.0357.2984-.095.4811-.1316.1827-.0367.4463-.0796.5857-.0954s.3184-.0307.3978-.033l.1443-.0044z" fill="#fff" fill-rule="evenodd"/></g></svg>