<svg fill="none" height="36" viewBox="0 0 207 36" width="207" xmlns="http://www.w3.org/2000/svg"><path d="m0 5c0-2.76142 2.23858-5 5-5h197c2.761 0 5 2.23858 5 5v26c0 2.7614-2.239 5-5 5h-197c-2.76142 0-5-2.2386-5-5z" fill="#0f0f0f"/><path clip-rule="evenodd" d="m202 1h-197c-2.20914 0-4 1.79086-4 4v26c0 2.2091 1.79086 4 4 4h197c2.209 0 4-1.7909 4-4v-26c0-2.20914-1.791-4-4-4zm-197-1c-2.76142 0-5 2.23858-5 5v26c0 2.7614 2.23858 5 5 5h197c2.761 0 5-2.2386 5-5v-26c0-2.76142-2.239-5-5-5z" fill="#464646" fill-rule="evenodd"/><g fill="#fafafa"><path d="m30.4053 17.4747c0-.9986-.9943-2.0591-2.715-2.0591-1.9322 0-4.0548 1.3842-4.3792 4.1456-.3314 2.789 1.4457 4.0286 3.2368 4.0286 1.7912 0 2.7291-.6818 3.6882-1.5908-.8251-1.0123-1.8899-.544-2.0944-.4407-.2257.1102-.5148.2617-1.1072.2617-.6911 0-1.3962-.303-1.3962-1.5632 4.4285-.427 4.767-1.7836 4.767-2.7821zm-2.1931.1652c-.0282.3099-.1552.8402-2.3977 1.1363.4725-1.639 1.3752-1.7629 1.7912-1.7629.3879 0 .6347.2961.6065.6266zm-7.5032.2686s-.952 2.9198-1.0295 3.1609c-.0283-.248-.7264-5.4885-.7264-5.4885-1.6219 0-2.4893 1.1294-2.9477 2.3207 0 0-1.1565 2.9267-1.2552 3.1746-.007-.2272-.1763-3.1401-.1763-3.1401-.0987-1.46-1.4668-2.3483-2.5739-2.3483l1.3398 7.94c1.6995-.0069 2.6163-1.1294 3.0958-2.3207 0 0 1.0225-2.5824 1.0648-2.6995.0071.1102.7334 5.0202.7334 5.0202 1.7066 0 2.6233-1.0536 3.1169-2.2036l2.3906-5.7364c-1.6854 0-2.5739 1.1225-3.0323 2.3207zm15.9583-2.5066c-1.0507 0-1.8546.5578-2.5316 1.3772v-.0068l.6065-4.7723c-1.3963 0-2.5316 1.1845-2.7502 2.9474l-1.0578 8.5184c.8039 0 1.6572-.2272 2.1155-.8057.409.5165 1.0226.9297 1.9322.9297 2.3554 0 3.9702-2.6719 3.9702-5.1786-.0141-2.2863-1.1494-3.0093-2.2848-3.0093zm-.2186 4.0974c-.2468 1.3979-1.0437 2.3482-1.8123 2.3482-.7757 0-1.1071-.3374-1.1071-.3374.148-1.2258.2397-1.9764.5218-2.6237s.952-1.6803 1.6501-1.6803c.6841 0 .9943.8883.7475 2.2932zm8.3847-3.9115h-1.6431l.007-.0826c.1129-1.0468.3667-1.5977 1.2059-1.6872.5712-.0551.8251-.3443.8885-.6611.0494-.2479.2045-1.1087.2045-1.1087-3.3002-.0207-4.3368 1.3704-4.6048 3.4914l-.0071.0482h-.0352c-.536 0-1.1283.5922-1.2271 1.3428l-.0352.2755h1.1001l-.9238 7.4511-.2821 1.3359c.0353 0 .0776.0069.1128.0069 1.5444-.0551 2.5317-1.2464 2.7503-2.9749l.7192-5.819h.5148c.5078 0 1.1001-.4958 1.2059-1.3222zm8.5468-.1377c-1.897 0-3.6881 1.3635-4.2382 3.5051-.55 2.1417.2821 4.6759 3.0746 4.6759 2.7855 0 4.3933-2.6375 4.3933-4.8342 0-2.183-1.5161-3.3468-3.2297-3.3468zm.7686 3.9803c-.0987.971-.5359 2.4447-1.7347 2.4447-1.2059 0-1.0366-1.7216-.9168-2.5411.127-.8746.6277-2.121 1.7066-2.121.9661 0 1.0578 1.1225.9449 2.2174zm11.833-1.5219s-.952 2.9198-1.0296 3.1609c-.0282-.248-.7263-5.4885-.7263-5.4885-1.6219 0-2.4893 1.1294-2.9477 2.3207 0 0-1.1565 2.9267-1.2552 3.1746-.007-.2272-.1763-3.1401-.1763-3.1401-.0987-1.46-1.4668-2.3483-2.5739-2.3483l1.3328 7.94c1.6995-.0069 2.6162-1.1294 3.0957-2.3207 0 0 1.0226-2.5824 1.0578-2.6995.0141.1102.7334 5.0202.7334 5.0202 1.7066 0 2.6233-1.0536 3.1169-2.2036l2.3906-5.7364c-1.6783 0-2.5669 1.1225-3.0182 2.3207zm-19.597-5.8603-1.3822 10.8874-.2821 1.3428c.0353 0 .0776.0069.1129.0069 1.4879-.0207 2.5457-1.2946 2.7431-2.8992l.7969-6.2459c.2397-1.9075-.9238-3.092-1.9886-3.092z"/><path d="m87.1172 19.6602v3.3398h-1.125v-8.5312h3.1465c.9336 0 1.664.2382 2.1914.7148.5312.4766.7969 1.1074.7969 1.8926 0 .8281-.2598 1.4668-.7793 1.916-.5157.4453-1.2559.668-2.2207.668zm0-.92h2.0215c.6015 0 1.0625-.1406 1.3828-.4218.3203-.2852.4805-.6954.4805-1.2305 0-.5078-.1602-.9141-.4805-1.2188-.3203-.3046-.7598-.4629-1.3184-.4746h-2.0859z"/><path d="m96.457 17.6328c-.164-.0273-.3418-.041-.5332-.041-.7109 0-1.1933.3027-1.4472.9082v4.5h-1.084v-6.3398h1.0547l.0175.7324c.3555-.5664.8594-.8496 1.5118-.8496.2109 0 .3711.0273.4804.082z"/><path d="m97.0547 19.7715c0-.6211.1211-1.1797.3633-1.6758.2461-.4961.5859-.8789 1.0195-1.1484.4375-.2696.9355-.4043 1.4941-.4043.8634 0 1.5604.2988 2.0914.8965.536.5976.803 1.3925.803 2.3847v.0762c0 .6172-.119 1.1719-.357 1.6641-.235.4882-.573.8691-1.014 1.1425-.437.2735-.941.4102-1.5116.4102-.8594 0-1.5567-.2988-2.0918-.8965-.5313-.5977-.7969-1.3887-.7969-2.373zm1.0898.1289c0 .7031.1621 1.2676.4864 1.6934.3281.4257.7656.6386 1.3125.6386.5506 0 .9886-.2148 1.3126-.6445.324-.4336.486-1.0391.486-1.8164 0-.6953-.166-1.2578-.498-1.6875-.328-.4336-.765-.6504-1.3124-.6504-.5351 0-.9668.2129-1.2949.6387-.3281.4257-.4922 1.0351-.4922 1.8281z"/><path d="m104.719 23v-5.502h-1.002v-.8378h1.002v-.6504c0-.6797.181-1.2051.545-1.5762.363-.3711.877-.5566 1.541-.5566.25 0 .498.0332.744.0996l-.059.8789c-.183-.0352-.379-.0528-.586-.0528-.351 0-.623.1035-.814.3106-.192.2031-.287.4961-.287.8789v.668h1.353v.8378h-1.353v5.502z"/><path d="m110.848 23.1172c-.86 0-1.559-.2813-2.098-.8438-.539-.5664-.809-1.3222-.809-2.2675v-.1993c0-.6289.12-1.1894.358-1.6816.242-.4961.578-.8828 1.008-1.1602.433-.2812.902-.4218 1.406-.4218.824 0 1.465.2715 1.922.8144.457.543.685 1.3203.685 2.3321v.4511h-4.295c.016.625.198 1.1309.545 1.5176.352.3828.797.5742 1.336.5742.383 0 .707-.0781.973-.2344.266-.1562.498-.3632.697-.621l.662.5156c-.531.8164-1.328 1.2246-2.39 1.2246zm-.135-5.6836c-.438 0-.805.1602-1.102.4805-.297.3164-.48.7617-.55 1.3359h3.175v-.082c-.031-.5508-.179-.9766-.445-1.2774-.266-.3047-.625-.457-1.078-.457z"/><path d="m118.271 21.3184c0-.293-.111-.5196-.333-.6797-.219-.1641-.604-.3047-1.155-.4219-.547-.1172-.982-.2578-1.306-.4219-.321-.164-.559-.3594-.715-.5859-.153-.2266-.229-.4961-.229-.8086 0-.5195.219-.959.656-1.3184.442-.3593 1.004-.539 1.688-.539.719 0 1.301.1855 1.746.5566.449.3711.674.8457.674 1.4238h-1.09c0-.2968-.127-.5527-.381-.7675-.25-.2149-.566-.3223-.949-.3223-.395 0-.703.0859-.926.2578-.222.1719-.334.3965-.334.6738 0 .2618.104.459.311.5918s.58.2598 1.119.3809c.543.1211.982.2656 1.318.4336s.584.3711.744.6094c.164.2343.246.5214.246.8613 0 .5664-.226 1.0215-.679 1.3652-.453.3399-1.041.5098-1.764.5098-.508 0-.957-.0899-1.348-.2695-.39-.1797-.697-.4297-.919-.75-.219-.3243-.329-.6739-.329-1.0489h1.084c.02.3633.164.6524.434.8672.273.211.633.3164 1.078.3164.41 0 .738-.082.984-.2461.25-.1679.375-.3906.375-.6679z"/><path d="m124.459 21.3184c0-.293-.111-.5196-.334-.6797-.219-.1641-.604-.3047-1.154-.4219-.547-.1172-.983-.2578-1.307-.4219-.32-.164-.559-.3594-.715-.5859-.152-.2266-.228-.4961-.228-.8086 0-.5195.218-.959.656-1.3184.441-.3593 1.004-.539 1.687-.539.719 0 1.301.1855 1.747.5566.449.3711.673.8457.673 1.4238h-1.089c0-.2968-.127-.5527-.381-.7675-.25-.2149-.567-.3223-.95-.3223-.394 0-.703.0859-.925.2578-.223.1719-.334.3965-.334.6738 0 .2618.103.459.31.5918s.58.2598 1.119.3809c.543.1211.983.2656 1.319.4336s.584.3711.744.6094c.164.2343.246.5214.246.8613 0 .5664-.227 1.0215-.68 1.3652-.453.3399-1.041.5098-1.763.5098-.508 0-.957-.0899-1.348-.2695-.391-.1797-.697-.4297-.92-.75-.219-.3243-.328-.6739-.328-1.0489h1.084c.019.3633.164.6524.433.8672.274.211.633.3164 1.079.3164.41 0 .738-.082.984-.2461.25-.1679.375-.3906.375-.6679z"/><path d="m128.133 23h-1.084v-6.3398h1.084zm-1.172-8.0215c0-.1758.053-.3242.158-.4453.11-.1211.27-.1816.481-.1816s.371.0605.48.1816.164.2695.164.4453-.055.3223-.164.4395-.269.1758-.48.1758-.371-.0586-.481-.1758c-.105-.1172-.158-.2637-.158-.4395z"/><path d="m129.586 19.7715c0-.6211.121-1.1797.363-1.6758.246-.4961.586-.8789 1.02-1.1484.437-.2696.935-.4043 1.494-.4043.863 0 1.56.2988 2.092.8965.535.5976.802 1.3925.802 2.3847v.0762c0 .6172-.119 1.1719-.357 1.6641-.234.4882-.572.8691-1.014 1.1425-.437.2735-.941.4102-1.511.4102-.86 0-1.557-.2988-2.092-.8965-.531-.5977-.797-1.3887-.797-2.373zm1.09.1289c0 .7031.162 1.2676.486 1.6934.328.4257.766.6386 1.313.6386.55 0 .988-.2148 1.312-.6445.324-.4336.486-1.0391.486-1.8164 0-.6953-.166-1.2578-.498-1.6875-.328-.4336-.765-.6504-1.312-.6504-.535 0-.967.2129-1.295.6387-.328.4257-.492 1.0351-.492 1.8281z"/><path d="m137.742 16.6602.035.7968c.485-.6093 1.118-.914 1.899-.914 1.34 0 2.015.7558 2.027 2.2675v4.1895h-1.084v-4.1953c-.004-.457-.109-.7949-.316-1.0137-.203-.2187-.522-.3281-.955-.3281-.352 0-.66.0937-.926.2812s-.473.4336-.621.7383v4.5176h-1.084v-6.3398z"/><path d="m147.252 23c-.063-.125-.113-.3477-.152-.668-.504.5235-1.106.7852-1.805.7852-.625 0-1.139-.1758-1.541-.5274-.399-.3554-.598-.8046-.598-1.3476 0-.6602.25-1.1719.75-1.5352.504-.3672 1.211-.5508 2.121-.5508h1.055v-.498c0-.3789-.113-.6797-.34-.9023-.226-.2266-.56-.3399-1.002-.3399-.386 0-.711.0977-.972.293-.262.1953-.393.4316-.393.709h-1.09c0-.3164.111-.6211.334-.9141.227-.2969.531-.5312.914-.7031.387-.1719.811-.2578 1.272-.2578.73 0 1.302.1836 1.716.5508.415.3632.629.8652.645 1.5058v2.918c0 .582.074 1.0449.223 1.3886v.0938zm-1.799-.8262c.34 0 .662-.0879.967-.2636.305-.1758.525-.4043.662-.6856v-1.3008h-.85c-1.328 0-1.992.3887-1.992 1.166 0 .3399.114.6055.34.7969.227.1914.518.2871.873.2871z"/><path d="m151.043 23h-1.084v-9h1.084z"/><path d="m157.055 19.6602v3.3398h-1.125v-8.5312h3.146c.934 0 1.664.2382 2.192.7148.531.4766.796 1.1074.796 1.8926 0 .8281-.259 1.4668-.779 1.916-.515.4453-1.256.668-2.221.668zm0-.92h2.021c.602 0 1.063-.1406 1.383-.4218.32-.2852.48-.6954.48-1.2305 0-.5078-.16-.9141-.48-1.2188-.32-.3046-.76-.4629-1.318-.4746h-2.086z"/><path d="m167.174 23c-.063-.125-.113-.3477-.153-.668-.503.5235-1.105.7852-1.804.7852-.625 0-1.139-.1758-1.541-.5274-.399-.3554-.598-.8046-.598-1.3476 0-.6602.25-1.1719.75-1.5352.504-.3672 1.211-.5508 2.121-.5508h1.055v-.498c0-.3789-.113-.6797-.34-.9023-.226-.2266-.56-.3399-1.002-.3399-.387 0-.711.0977-.973.293-.261.1953-.392.4316-.392.709h-1.09c0-.3164.111-.6211.334-.9141.227-.2969.531-.5312.914-.7031.387-.1719.811-.2578 1.272-.2578.73 0 1.302.1836 1.716.5508.414.3632.629.8652.645 1.5058v2.918c0 .582.074 1.0449.223 1.3886v.0938zm-1.799-.8262c.34 0 .662-.0879.967-.2636.304-.1758.525-.4043.662-.6856v-1.3008h-.85c-1.328 0-1.992.3887-1.992 1.166 0 .3399.113.6055.34.7969s.518.2871.873.2871z"/><path d="m172.852 17.6328c-.164-.0273-.342-.041-.534-.041-.711 0-1.193.3027-1.447.9082v4.5h-1.084v-6.3398h1.055l.017.7324c.356-.5664.86-.8496 1.512-.8496.211 0 .371.0273.481.082z"/><path d="m175.617 15.125v1.5352h1.184v.8378h-1.184v3.9317c0 .2539.053.4453.158.5742.106.125.286.1875.539.1875.125 0 .297-.0234.516-.0703v.8789c-.285.0781-.562.1172-.832.1172-.484 0-.85-.1465-1.096-.4395-.246-.2929-.369-.7089-.369-1.248v-3.9317h-1.154v-.8378h1.154v-1.5352z"/><path d="m179.098 16.6602.035.7968c.484-.6093 1.117-.914 1.898-.914 1.34 0 2.016.7558 2.028 2.2675v4.1895h-1.084v-4.1953c-.004-.457-.11-.7949-.317-1.0137-.203-.2187-.521-.3281-.955-.3281-.351 0-.66.0937-.926.2812-.265.1875-.472.4336-.621.7383v4.5176h-1.084v-6.3398z"/><path d="m187.324 23.1172c-.859 0-1.558-.2813-2.097-.8438-.539-.5664-.809-1.3222-.809-2.2675v-.1993c0-.6289.119-1.1894.357-1.6816.243-.4961.579-.8828 1.008-1.1602.434-.2812.903-.4218 1.406-.4218.825 0 1.465.2715 1.922.8144.457.543.686 1.3203.686 2.3321v.4511h-4.295c.016.625.197 1.1309.545 1.5176.351.3828.797.5742 1.336.5742.383 0 .707-.0781.972-.2344.266-.1562.499-.3632.698-.621l.662.5156c-.531.8164-1.328 1.2246-2.391 1.2246zm-.135-5.6836c-.437 0-.804.1602-1.101.4805-.297.3164-.481.7617-.551 1.3359h3.176v-.082c-.031-.5508-.18-.9766-.445-1.2774-.266-.3047-.625-.457-1.079-.457z"/><path d="m194.121 17.6328c-.164-.0273-.342-.041-.533-.041-.711 0-1.193.3027-1.447.9082v4.5h-1.084v-6.3398h1.054l.018.7324c.355-.5664.859-.8496 1.512-.8496.211 0 .371.0273.48.082z"/></g><path clip-rule="evenodd" d="m76.5 26v-14h1v14z" fill="#464646" fill-rule="evenodd"/></svg>